<svg width="58" height="33" viewBox="0 0 58 33" fill="none" xmlns="http://www.w3.org/2000/svg">
<g id="Asset 6 1">
<g id="Layer 2">
<g id="Layer 1">
<path id="Vector" d="M36.1722 3.38951C36.3064 3.38951 36.4513 3.38951 36.6481 3.40919C38.217 3.51832 39.8127 3.64712 41.3584 3.76698H41.4603C41.1074 4.88402 41.0307 6.07 41.2367 7.2232L39.1544 7.04431L37.5443 6.90298L38.0435 8.44326L38.9218 11.1535L39.4585 12.8136L39.8163 13.9156L40.8897 13.4755C41.1669 13.3628 41.4263 13.2448 41.6643 13.1321C42.0433 12.9369 42.4421 12.7828 42.8539 12.6723C43.1509 12.6092 43.4537 12.5768 43.7573 12.5757C44.8987 12.5757 45.904 13.0605 46.8504 14.0569C47.2279 14.4594 47.7771 14.921 48.6715 14.921H48.8343C49.0705 14.9067 49.3299 14.8995 49.6501 14.8995H50.2977C50.5392 14.8995 50.786 14.8995 51.0401 14.8995H52.5947L52.0311 13.4397L51.6608 12.4773C52.779 11.9125 53.7332 11.0698 54.4319 10.03C55.2502 11.8152 55.8422 13.6956 56.194 15.6276C56.2164 15.74 56.2487 15.8501 56.2906 15.9568V16.7797L56.2638 16.8548C56.2155 16.9989 56.16 17.1404 56.0974 17.2788C55.7808 17.9389 55.2816 18.2413 54.4874 18.2573C53.5589 18.277 52.6143 18.2878 51.7002 18.3003C50.5589 18.3146 49.3746 18.3289 48.21 18.3575C47.6517 18.3757 47.1139 18.5719 46.6751 18.9175C43.7251 21.32 40.7322 23.7691 37.8395 26.1394C36.3046 27.3952 34.7697 28.6511 33.2348 29.9069C32.3403 30.6332 31.2956 30.9803 30.0147 30.9803H15.9626C11.8731 30.9803 7.78423 30.9803 3.69592 30.9803C2.02148 30.9803 1.51342 30.1967 1.2576 29.5169C0.862248 28.4686 1.1288 27.236 1.87478 26.6546C2.23373 26.3822 2.65602 26.2056 3.10199 26.1412C3.56713 26.0908 4.03491 26.0686 4.50273 26.075H5.28271C5.51706 26.075 5.81939 26.075 6.14676 26.0589C6.64996 26.0082 7.11683 25.7739 7.45805 25.4006C7.63161 25.2201 7.79581 25.0308 7.95001 24.8335C8.08348 24.6516 8.23513 24.4837 8.40261 24.3326C11.5941 21.8191 15.027 19.116 19.2275 15.8423C19.5775 15.5727 19.956 15.3424 20.3563 15.1553C20.7128 14.9667 21.1169 14.8867 21.5184 14.9252C21.9199 14.9637 22.3014 15.1189 22.6157 15.3718C24.8697 16.9318 27.4834 18.8316 29.7714 21.0803C29.8466 21.1536 29.9145 21.2109 29.9879 21.2699L30.0917 21.3576L30.7697 21.939L31.462 21.388L35.2187 18.3933L36.7894 17.1411L37.4621 16.6044L37.0864 15.8316L36.9379 15.5256C36.8341 15.3128 36.7322 15.1035 36.632 14.8924C35.0631 11.6115 34.3278 8.50408 34.3726 5.38418C34.3851 4.41636 34.9092 3.61671 35.6409 3.44139C35.8172 3.40306 35.9973 3.38565 36.1776 3.38951M14.095 26.0535H25.8107L26.1166 25.5007L26.2025 25.3451L26.648 24.5437L25.9324 23.9802L25.1703 23.3826C24.1971 22.617 23.1899 21.8263 22.1828 21.057C21.9508 20.8863 21.6693 20.7964 21.3813 20.8012C21.0247 20.8011 20.6767 20.911 20.3849 21.1161C19.8053 21.5454 19.2364 21.9944 18.6872 22.4291L18.1988 22.8138C17.841 23.0928 17.4832 23.3719 17.0986 23.6814L16.5297 24.1304L14.095 26.0535ZM36.1722 2.31615C35.9094 2.31286 35.6471 2.33987 35.3905 2.39666C34.1507 2.69362 33.3189 3.92083 33.2992 5.36987C33.2491 8.89407 34.1543 12.1929 35.6624 15.3468C35.8127 15.6598 35.9665 15.9729 36.1204 16.2931L30.7929 20.54C30.6677 20.4345 30.5943 20.3772 30.5281 20.3128C28.2938 18.1214 25.7928 16.2663 23.2275 14.4899C22.7582 14.1295 22.1964 13.9094 21.6072 13.8553C21.0179 13.8011 20.4254 13.9151 19.8983 14.1839C19.4261 14.4049 18.9798 14.6772 18.5673 14.9961C14.9477 17.8226 11.3371 20.6599 7.73534 23.5079C7.3364 23.8245 7.06091 24.2932 6.69596 24.6599C6.54148 24.8376 6.3316 24.958 6.10025 25.0016C5.82833 25.0142 5.56357 25.0177 5.28271 25.0177H4.50273C3.99067 25.0107 3.47866 25.0352 2.96961 25.0911C2.32873 25.1795 1.72198 25.4335 1.2093 25.8281C0.0554385 26.7387 -0.293404 28.4686 0.252221 29.9176C0.797846 31.3667 1.9213 32.0751 3.69413 32.0769C7.78364 32.0769 11.8731 32.0769 15.9626 32.0769H30.0237C31.4727 32.0769 32.7858 31.6779 33.9146 30.7566C38.3941 27.0941 42.8736 23.431 47.3531 19.7672C47.6084 19.5724 47.9177 19.4612 48.2386 19.4488C50.3281 19.3951 52.4193 19.3915 54.5088 19.3486C55.6627 19.3236 56.5572 18.8334 57.0724 17.7618C57.1922 17.5132 57.2727 17.2466 57.3711 16.989V15.7564C57.3249 15.6583 57.2866 15.5566 57.2566 15.4523C56.8352 13.1194 56.0753 10.8606 55.0008 8.74737C54.8219 8.41105 54.6269 8.09262 54.3961 7.68832C53.6805 9.83505 52.2959 11.1928 50.2959 11.9227C50.5553 12.5918 50.786 13.1929 51.0365 13.844C50.5481 13.844 50.0902 13.8315 49.6465 13.8315C49.3477 13.8315 49.0561 13.8315 48.7663 13.8548H48.6679C48.2243 13.8548 47.9363 13.658 47.6268 13.3288C46.5355 12.1696 45.2439 11.5095 43.7537 11.5095C43.3767 11.5107 43.0008 11.5508 42.6321 11.6293C41.9255 11.776 41.2689 12.166 40.4854 12.4898C40.0345 11.098 39.5712 9.67404 39.0685 8.11946L42.6983 8.43431C41.9362 6.51121 42.056 4.69007 43.0024 2.86715C42.7806 2.83137 42.6035 2.79022 42.4228 2.77591C40.5247 2.62385 38.6284 2.46821 36.7286 2.33583C36.5497 2.32331 36.3708 2.31258 36.1794 2.31258L36.1722 2.31615ZM17.1899 24.9802L18.8571 23.6653C19.5727 23.1018 20.2883 22.5293 21.0182 21.9855C21.1253 21.918 21.2493 21.882 21.376 21.8817C21.4298 21.8789 21.4833 21.892 21.5298 21.9193C22.7821 22.8728 24.0218 23.8513 25.2651 24.8245L25.1774 24.9802H17.1899Z" fill="#282563"/>
<path id="Vector_2" d="M48.5589 1.18731C49.7265 1.20313 50.8415 1.67495 51.6658 2.50195C52.4902 3.32894 52.9584 4.44554 52.9704 5.61314C52.9686 6.19122 52.8524 6.76322 52.6286 7.29621C52.4048 7.82921 52.0777 8.31266 51.6663 8.71873C51.2612 9.12976 50.7786 9.45635 50.2465 9.67959C49.7143 9.90284 49.1431 10.0183 48.5661 10.0193H48.5571C47.3773 10.0039 46.2514 9.52293 45.4247 8.68116C45.017 8.28027 44.6933 7.80217 44.4725 7.27479C44.2516 6.74741 44.1381 6.18131 44.1384 5.60956C44.1563 3.21239 46.1796 1.18731 48.5589 1.18731ZM48.5589 0.113953C45.5875 0.113953 43.0865 2.61846 43.0651 5.60061C43.0436 8.56309 45.5696 11.0855 48.5553 11.0926H48.5661C50.0155 11.0819 51.4025 10.5013 52.4275 9.47636C53.4524 8.45141 54.033 7.06438 54.0438 5.61493C54.0322 4.16388 53.4523 2.77518 52.4286 1.74677C51.4049 0.718357 50.0188 0.132162 48.5678 0.113953L48.5589 0.113953Z" fill="#282563"/>
</g>
</g>
</g>
</svg>
