<svg width="38" height="38" viewBox="0 0 38 38" fill="none" xmlns="http://www.w3.org/2000/svg">
<g id="refer 1">
<g id="Layer 2">
<g id="Layer 1">
<path id="Vector" d="M0 36.1282C0.0953178 35.4355 0.168807 34.7392 0.291047 34.0501C0.972096 30.1327 2.75403 26.7863 5.57646 23.9967C7.44753 22.1372 9.70029 20.7064 12.1789 19.8034C12.2582 19.7743 12.336 19.7401 12.4124 19.7045C12.4328 19.695 12.4473 19.6724 12.4219 19.6972C11.7619 19.0591 11.0489 18.4682 10.4508 17.777C6.91236 13.6885 7.00768 7.59691 10.645 3.59865C12.5274 1.53004 14.8703 0.368032 17.6534 0.09081C17.7364 0.0783101 17.8185 0.0608155 17.8994 0.0384216L19.3546 0.0384216C20.0895 0.179579 20.8426 0.260345 21.5571 0.474992C24.8903 1.458 27.2638 3.56882 28.575 6.77688C29.8221 9.82851 29.6664 12.883 28.1289 15.7993C26.6133 18.6763 24.2238 20.5157 21.0521 21.2637C20.1877 21.4675 19.2789 21.5395 18.3876 21.5657C13.5751 21.7061 9.60964 23.6212 6.52745 27.284C4.10303 30.1567 2.93084 33.5277 2.91047 37.2924H0V36.1282ZM26.4751 10.7882C26.4547 6.46619 22.9199 2.94452 18.6124 2.94889C14.2802 2.95398 10.7447 6.50621 10.7687 10.8326C10.7927 15.159 14.3428 18.6829 18.6415 18.6581C22.957 18.6334 26.4947 15.0804 26.4751 10.7882Z" fill="white"/>
<path id="Vector_2" d="M37.2539 26.8146C35.0827 28.98 32.912 31.1463 30.7417 33.3137C30.6547 33.4156 30.5777 33.5258 30.5118 33.6425L28.3879 31.5128L31.7124 28.1898C30.8276 28.1898 29.9989 28.1738 29.1701 28.1898C25.6572 28.2698 22.9672 30.9809 22.9199 34.4924C22.9068 35.4259 22.9199 36.3587 22.9199 37.2923H20.0094C20.0538 35.8538 19.9847 34.4007 20.168 32.9797C20.4671 30.6615 21.6545 28.7813 23.467 27.3159C25.1886 25.9247 27.1779 25.2662 29.3869 25.2786C30.0891 25.2822 30.7912 25.2786 31.4796 25.2786L28.3239 22.1287L30.4456 20.0048C30.5184 20.0718 30.613 20.1598 30.7061 20.2522C32.7881 22.3332 34.8702 24.4142 36.9527 26.4952C37.0486 26.5827 37.1492 26.665 37.2539 26.7418V26.8146Z" fill="white"/>
</g>
</g>
</g>
</svg>
