<svg width="26" height="38" viewBox="0 0 26 38" fill="none" xmlns="http://www.w3.org/2000/svg">
<g id="reward-symbol-in-a-circle-svgrepo-com 1">
<g id="Group">
<g id="Group_2">
<path id="Vector" d="M12.961 2.70894C7.48206 2.70894 3.02393 7.16639 3.02393 12.6453C3.02393 18.1243 7.48138 22.5824 12.961 22.5824C18.44 22.5824 22.8974 18.1243 22.8974 12.6453C22.8974 7.16639 18.44 2.70894 12.961 2.70894ZM12.961 21.2168C8.23521 21.2168 4.38957 17.3718 4.38957 12.6453C4.38957 7.91954 8.23453 4.07458 12.961 4.07458C17.6868 4.07458 21.5318 7.91954 21.5318 12.6453C21.5318 17.3711 17.6868 21.2168 12.961 21.2168Z" fill="white"/>
<path id="Vector_2" d="M12.9611 5.29887C12.5842 5.29887 12.2783 5.60477 12.2783 5.98169C12.2783 6.3586 12.5842 6.66451 12.9611 6.66451C16.2592 6.66451 18.9413 9.34731 18.9413 12.6453C18.9413 13.0222 19.2472 13.3281 19.6241 13.3281C20.001 13.3281 20.3069 13.0222 20.3069 12.6453C20.3069 8.59416 17.0116 5.29887 12.9611 5.29887Z" fill="white"/>
<path id="Vector_3" d="M25.5678 12.6453C25.5678 5.69354 19.912 0.0384216 12.9609 0.0384216C6.00975 0.0384216 0.353271 5.69354 0.353271 12.6453C0.353271 16.7061 2.29726 20.478 5.5748 22.8508L1.56186 33.134C1.47719 33.3505 1.5086 33.5956 1.64517 33.7827C1.78173 33.9712 2.00979 34.0811 2.23581 34.064L6.79431 33.8141L9.97831 37.0855C10.108 37.2193 10.2856 37.2924 10.4679 37.2924C10.513 37.2924 10.558 37.2883 10.6038 37.2788C10.8311 37.2337 11.0196 37.0739 11.1043 36.8588L12.9609 32.1009L14.8181 36.8588C14.9021 37.0739 15.0906 37.2337 15.318 37.2788C15.363 37.2883 15.4088 37.2924 15.4538 37.2924C15.6362 37.2924 15.8123 37.22 15.9434 37.0855L19.1274 33.8141L23.6859 34.064C23.7009 34.0647 23.7166 34.0661 23.7303 34.0647C24.1052 34.0702 24.42 33.7622 24.42 33.3819C24.42 33.2474 24.381 33.1217 24.3134 33.0152L20.3456 22.8508C23.6238 20.478 25.5678 16.7061 25.5678 12.6453ZM10.2173 35.3723L7.55634 32.6383C7.42729 32.5058 7.25044 32.4307 7.06676 32.4307C7.05447 32.4307 7.0415 32.4307 7.0292 32.4321L3.21975 32.641L6.74515 23.6087C6.75812 23.6162 6.77178 23.6223 6.78476 23.6285C6.93839 23.7152 7.0968 23.7917 7.25317 23.8709C7.37881 23.9358 7.5024 24.004 7.63009 24.0641C7.68608 24.0908 7.74412 24.1119 7.80011 24.1365C8.85438 24.6131 9.96533 24.9429 11.1118 25.1123C11.1172 25.1136 11.1227 25.115 11.1282 25.115C11.3774 25.1512 11.6294 25.1764 11.882 25.1976C11.9476 25.2031 12.0124 25.212 12.0787 25.216C12.2794 25.2297 12.4815 25.2331 12.6836 25.2379C12.7765 25.2399 12.8687 25.2481 12.9609 25.2481C12.9889 25.2481 13.0169 25.244 13.0449 25.244C13.3951 25.2406 13.7461 25.2256 14.0998 25.1915C14.1264 25.1894 14.1524 25.1894 14.1783 25.1867C14.1824 25.1867 14.1872 25.1867 14.1927 25.186L12.3252 29.9685V29.9698L10.2173 35.3723ZM18.8918 32.4321C18.6972 32.4239 18.5026 32.497 18.3654 32.6383L15.7051 35.3723L13.6949 30.2218L15.7577 24.9361C15.9899 24.8842 16.2179 24.8193 16.4446 24.7531C16.4992 24.7388 16.5532 24.7271 16.6064 24.7108C16.9567 24.6056 17.3009 24.4827 17.6395 24.3468C17.7345 24.3086 17.8253 24.2656 17.9188 24.2266C18.1687 24.1188 18.4159 24.004 18.6583 23.8805C18.7621 23.8272 18.8666 23.7746 18.9683 23.7186C19.0373 23.6811 19.109 23.6483 19.1773 23.6094L22.7033 32.6424L18.8918 32.4321ZM19.139 22.0307C17.9113 22.8412 16.5614 23.3936 15.1234 23.6736C14.009 23.89 12.8994 23.9392 11.8192 23.8299C10.0193 23.6497 8.30266 23.0338 6.78134 22.0293C3.61101 19.9385 1.71823 16.4295 1.71823 12.6433C1.71823 6.44464 6.76086 1.40201 12.9595 1.40201C19.1581 1.40201 24.2008 6.44464 24.2008 12.6433C24.2021 16.4309 22.3087 19.9399 19.139 22.0307Z" fill="white"/>
</g>
</g>
</g>
</svg>
