<svg width="6" height="8" viewBox="0 0 6 8" fill="none" xmlns="http://www.w3.org/2000/svg">
<path id="Vector" d="M2.99955 7.12444C1.60316 7.12444 0.614309 6.34645 0.59436 5.19799H1.56326C1.6231 5.76794 2.03347 6.35785 2.98814 6.35785C3.86873 6.35785 4.38739 5.85629 4.38739 5.19799C4.38739 3.32283 0.622851 4.51974 0.622851 1.93499C0.622851 0.795083 1.55187 0.00854492 2.92831 0.00854492C4.25631 0.00854492 5.12548 0.738088 5.23377 1.79535H4.23635C4.1765 1.32514 3.73764 0.797933 2.88841 0.786534C2.14177 0.766585 1.55188 1.157 1.55188 1.9065C1.55188 3.70185 5.30501 2.58474 5.30501 5.15809C5.30216 6.13841 4.49284 7.12444 2.99955 7.12444Z" fill="#282563"/>
</svg>
