<svg width="20" height="24" viewBox="0 0 20 24" fill="none" xmlns="http://www.w3.org/2000/svg">
<path id="Vector" d="M10.6466 23.6326C4.75327 23.6326 0.79777 20.3496 0.481445 16.0778H7.17556C7.3323 17.6195 8.71731 18.6426 10.5754 18.6426C12.3166 18.6426 13.2256 17.8504 13.2256 16.8615C13.2256 13.3021 1.20245 15.8726 1.20245 7.765C1.20245 4.00615 4.40559 0.925537 10.1792 0.925537C15.8788 0.925537 19.042 4.09164 19.4781 8.44325H13.2171C13.0204 6.93856 11.872 5.94969 9.97403 5.94969C8.3924 5.94969 7.52038 6.58234 7.52038 7.65956C7.52038 11.1819 19.4695 8.68833 19.5863 16.9156C19.5863 20.7486 16.1837 23.6326 10.6466 23.6326Z" fill="#282563"/>
</svg>
