<svg width="23" height="33" viewBox="0 0 23 33" fill="none" xmlns="http://www.w3.org/2000/svg">
<path id="Vector" d="M10.398 0.284668C14.3563 0.284668 17.2033 2.26241 18.4686 4.59638V0.64089H22.1077V22.7922C22.1077 28.7767 18.118 33.0001 11.7431 33.0001C6.04354 33.0001 1.97405 30.1133 1.26161 25.4824H4.82098C5.61322 28.0956 8.18372 29.8739 11.7431 29.8739C15.5817 29.8739 18.4686 27.4231 18.4686 22.7922V18.2326C17.1634 20.5665 14.3563 22.664 10.398 22.664C4.58445 22.664 0.113159 18.1043 0.113159 11.3902C0.113159 4.67617 4.58445 0.284668 10.398 0.284668ZM11.1104 3.41942C7.15495 3.41942 3.79221 6.30624 3.79221 11.3988C3.79221 16.4913 7.15495 19.4979 11.1104 19.4979C15.0659 19.4979 18.4686 16.5312 18.4686 11.4301C18.4686 6.41739 15.0659 3.41087 11.1104 3.41087V3.41942Z" fill="#282563"/>
</svg>
