<svg width="7" height="7" viewBox="0 0 7 7" fill="none" xmlns="http://www.w3.org/2000/svg">
<path id="Vector" d="M0.303183 3.02679C0.290945 2.63457 0.357632 2.2439 0.499279 1.87795C0.640925 1.512 0.854651 1.17823 1.12776 0.896467C1.40088 0.6147 1.72781 0.390673 2.08916 0.237684C2.45052 0.0846938 2.83893 0.00585938 3.23133 0.00585938C3.62374 0.00585937 4.01215 0.0846938 4.37351 0.237684C4.73486 0.390673 5.06179 0.6147 5.33491 0.896467C5.60802 1.17823 5.82174 1.512 5.96339 1.87795C6.10504 2.2439 6.17171 2.63457 6.15947 3.02679C6.17171 3.419 6.10504 3.80968 5.96339 4.17563C5.82174 4.54158 5.60802 4.87534 5.33491 5.15711C5.06179 5.43888 4.73486 5.6629 4.37351 5.81589C4.01215 5.96888 3.62374 6.04772 3.23133 6.04772C2.83893 6.04772 2.45052 5.96888 2.08916 5.81589C1.72781 5.6629 1.40088 5.43888 1.12776 5.15711C0.854651 4.87534 0.640925 4.54158 0.499279 4.17563C0.357632 3.80968 0.290945 3.419 0.303183 3.02679Z" fill="#FFC108"/>
</svg>
