<svg width="23" height="23" viewBox="0 0 23 23" fill="none" xmlns="http://www.w3.org/2000/svg">
<path id="Vector" d="M10.5765 0.284668C14.6117 0.284668 17.3789 2.34221 18.6442 4.59638V0.64089H22.2833V22.3191H18.6527V18.2839C17.3475 20.6178 14.5405 22.6754 10.5451 22.6754C4.76862 22.6754 0.300171 18.1157 0.300171 11.4016C0.300171 4.68757 4.76862 0.284668 10.5765 0.284668ZM11.2889 3.41942C7.33057 3.41942 3.97068 6.30624 3.97068 11.3988C3.97068 16.4913 7.33912 19.4979 11.2975 19.4979C15.2558 19.4979 18.6527 16.5312 18.6527 11.4301C18.6527 6.41739 15.2529 3.41087 11.2975 3.41087L11.2889 3.41942Z" fill="#282563"/>
</svg>
