<svg width="19" height="29" viewBox="0 0 19 29" fill="none" xmlns="http://www.w3.org/2000/svg">
<path id="Vector" d="M9.76846 28.5956C4.23135 28.5956 0.312906 25.5093 0.235962 20.961H4.07176C4.30829 23.2409 5.92981 25.5492 9.77131 25.5492C13.2509 25.5492 15.3084 23.5714 15.3084 20.961C15.3084 13.5231 0.395549 18.2709 0.395549 8.02591C0.395549 3.46627 4.07461 0.391357 9.53478 0.391357C14.804 0.391357 18.2237 3.26963 18.6683 7.47305H14.7128C14.4763 5.61215 12.7351 3.51756 9.37234 3.48336C6.40573 3.40357 4.07176 4.9453 4.07176 7.91192C4.07176 15.0364 18.9447 10.6021 18.9447 20.81C18.9447 24.7199 15.7416 28.5956 9.76846 28.5956Z" fill="#282563"/>
</svg>
