<svg width="23" height="24" viewBox="0 0 23 24" fill="none" xmlns="http://www.w3.org/2000/svg">
<path id="Vector" d="M11.2072 23.6326C4.72114 23.6326 0.0532227 19.2809 0.0532227 12.279C0.0532227 5.27715 4.64135 0.925537 11.2072 0.925537C17.6563 0.925537 22.2045 5.2002 22.2045 11.9228C22.2032 12.5838 22.1633 13.2442 22.0848 13.9006H6.77583C7.01522 16.7931 8.79064 18.1353 10.9707 18.1353C12.8687 18.1353 13.9373 17.1864 14.4902 16.0009H21.6887C20.6229 20.3126 16.7045 23.6326 11.2072 23.6326ZM6.81574 10.1474H15.2824C15.2824 7.73365 13.3816 6.34866 11.1274 6.34866C8.87327 6.34866 7.21185 7.69376 6.81574 10.1474Z" fill="#282563"/>
</svg>
