<svg width="47" height="26" viewBox="0 0 47 26" fill="none" xmlns="http://www.w3.org/2000/svg">
<g id="Asset 6 1">
<g id="Layer 2">
<g id="Layer 1">
<path id="Vector" d="M29.4241 2.66436C29.5332 2.66436 29.6511 2.66436 29.8111 2.68037C31.0874 2.76913 32.3854 2.87391 33.6427 2.97141H33.7256C33.4385 3.88005 33.3761 4.84478 33.5437 5.78285L31.8499 5.63733L30.5402 5.52236L30.9462 6.77529L31.6607 8.97991L32.0973 10.3303L32.3883 11.2267L33.2614 10.8688C33.487 10.7771 33.698 10.681 33.8915 10.5894C34.1999 10.4306 34.5243 10.3053 34.8592 10.2154C35.1008 10.164 35.3471 10.1377 35.5941 10.1368C36.5225 10.1368 37.3403 10.5312 38.1101 11.3417C38.4172 11.6691 38.8639 12.0446 39.5915 12.0446H39.724C39.916 12.0329 40.127 12.0271 40.3875 12.0271H40.9143C41.1108 12.0271 41.3116 12.0271 41.5182 12.0271H42.7828L42.3244 10.8397L42.0232 10.0568C42.9327 9.5973 43.7089 8.91181 44.2773 8.06605C44.9429 9.51815 45.4245 11.0478 45.7106 12.6194C45.7288 12.7108 45.7551 12.8004 45.7892 12.8871V13.5565L45.7674 13.6176C45.7281 13.7348 45.683 13.8499 45.632 13.9625C45.3745 14.4995 44.9685 14.7454 44.3224 14.7585C43.5671 14.7745 42.7988 14.7832 42.0552 14.7934C41.1268 14.8051 40.1634 14.8167 39.2161 14.84C38.762 14.8548 38.3245 15.0144 37.9675 15.2955C35.5679 17.2498 33.1334 19.242 30.7803 21.1701C29.5318 22.1916 28.2832 23.2132 27.0346 24.2347C26.307 24.8256 25.4572 25.1079 24.4153 25.1079H12.9847C9.65813 25.1079 6.33203 25.1079 3.00642 25.1079C1.64436 25.1079 1.23108 24.4705 1.02299 23.9175C0.70139 23.0648 0.918214 22.0621 1.52503 21.5892C1.81701 21.3676 2.16052 21.2239 2.5233 21.1716C2.90166 21.1305 3.28217 21.1125 3.66272 21.1177H4.29718C4.48781 21.1177 4.73374 21.1177 5.00004 21.1046C5.40937 21.0634 5.78914 20.8727 6.0667 20.5691C6.20788 20.4223 6.34145 20.2683 6.46688 20.1078C6.57545 19.9598 6.69881 19.8233 6.83504 19.7003C9.43112 17.6558 12.2236 15.457 15.6404 12.794C15.9252 12.5747 16.2331 12.3873 16.5587 12.2352C16.8487 12.0818 17.1774 12.0167 17.504 12.048C17.8306 12.0793 18.1409 12.2056 18.3966 12.4113C20.2301 13.6802 22.3562 15.2256 24.2174 17.0548C24.2785 17.1145 24.3338 17.161 24.3934 17.2091L24.4779 17.2804L25.0294 17.7533L25.5925 17.3051L28.6484 14.8691L29.9261 13.8505L30.4733 13.4139L30.1677 12.7853L30.0469 12.5364C29.9625 12.3632 29.8795 12.193 29.7981 12.0213C28.5218 9.35244 27.9238 6.82477 27.9601 4.2869C27.9703 3.49964 28.3967 2.84917 28.9919 2.70656C29.1352 2.67538 29.2818 2.66121 29.4284 2.66436M11.4655 21.1002H20.9956L21.2444 20.6506L21.3143 20.524L21.6766 19.8721L21.0945 19.4137L20.4746 18.9276C19.683 18.3048 18.8637 17.6616 18.0444 17.0359C17.8558 16.897 17.6267 16.8239 17.3925 16.8278C17.1024 16.8277 16.8193 16.9171 16.582 17.0839C16.1105 17.4332 15.6477 17.7984 15.201 18.152L14.8037 18.4649C14.5127 18.6919 14.2216 18.9189 13.9088 19.1707L13.446 19.5359L11.4655 21.1002ZM29.4241 1.79124C29.2103 1.78856 28.9969 1.81054 28.7881 1.85672C27.7797 2.09829 27.103 3.09655 27.087 4.27526C27.0463 7.142 27.7826 9.82538 29.0093 12.3909C29.1316 12.6456 29.2567 12.9002 29.3819 13.1607L25.0483 16.6153C24.9464 16.5295 24.8868 16.4829 24.8329 16.4305C23.0154 14.6479 20.981 13.1389 18.8943 11.6939C18.5125 11.4007 18.0555 11.2217 17.5762 11.1777C17.0969 11.1336 16.6149 11.2263 16.1861 11.445C15.802 11.6247 15.439 11.8463 15.1035 12.1057C12.1591 14.4049 9.22205 16.7128 6.29226 19.0295C5.96775 19.2871 5.74365 19.6683 5.44679 19.9666C5.32112 20.1112 5.1504 20.2091 4.96221 20.2446C4.74102 20.2548 4.52565 20.2577 4.29718 20.2577H3.66272C3.24618 20.252 2.8297 20.2719 2.41561 20.3173C1.89429 20.3893 1.40073 20.5959 0.983698 20.9169C0.045096 21.6576 -0.238667 23.0648 0.205168 24.2435C0.649003 25.4222 1.56287 25.9984 3.00497 25.9999C6.33155 25.9999 9.65813 25.9999 12.9847 25.9999H24.4226C25.6013 25.9999 26.6694 25.6754 27.5876 24.926C31.2314 21.9467 34.8752 18.9669 38.5191 15.9867C38.7268 15.8283 38.9783 15.7378 39.2394 15.7277C40.939 15.684 42.6402 15.6811 44.3398 15.6462C45.2784 15.6258 46.006 15.2271 46.4251 14.3554C46.5226 14.1531 46.5881 13.9363 46.6682 13.7268V12.7241C46.6305 12.6443 46.5994 12.5616 46.575 12.4767C46.2322 10.5791 45.614 8.74163 44.74 7.02267C44.5945 6.7491 44.4359 6.49007 44.2482 6.1612C43.6661 7.90743 42.5398 9.01193 40.9128 9.60565C41.1238 10.1499 41.3116 10.6388 41.5153 11.1685C41.118 11.1685 40.7455 11.1583 40.3846 11.1583C40.1416 11.1583 39.9044 11.1583 39.6687 11.1773H39.5886C39.2277 11.1773 38.9934 11.0172 38.7417 10.7494C37.854 9.80646 36.8034 9.2695 35.5912 9.2695C35.2845 9.27045 34.9787 9.30312 34.6788 9.36699C34.104 9.48632 33.5699 9.80355 32.9325 10.0669C32.5658 8.9348 32.1889 7.77646 31.78 6.5119L34.7326 6.76801C34.1127 5.20368 34.2102 3.72229 34.98 2.23944C34.7996 2.21034 34.6555 2.17687 34.5085 2.16523C32.9646 2.04153 31.4221 1.91493 29.8766 1.80725C29.7311 1.79706 29.5856 1.78833 29.4299 1.78833L29.4241 1.79124ZM13.983 20.2271L15.3392 19.1576C15.9213 18.6992 16.5034 18.2335 17.0971 17.7911C17.1843 17.7362 17.2851 17.707 17.3881 17.7067C17.4319 17.7044 17.4755 17.7151 17.5133 17.7373C18.5319 18.5129 19.5404 19.3089 20.5517 20.1005L20.4804 20.2271H13.983Z" fill="white"/>
<path id="Vector_2" d="M39.4998 0.873118C40.4495 0.885985 41.3566 1.26978 42.0271 1.9425C42.6977 2.61521 43.0785 3.5235 43.0883 4.47327C43.0868 4.94351 42.9923 5.4088 42.8102 5.84236C42.6282 6.27592 42.3621 6.66918 42.0275 6.9995C41.698 7.33385 41.3054 7.59951 40.8725 7.78111C40.4396 7.9627 39.975 8.05662 39.5056 8.05742H39.4983C38.5386 8.04491 37.6228 7.65367 36.9503 6.96894C36.6187 6.64283 36.3554 6.25393 36.1757 5.82493C35.9961 5.39594 35.9037 4.93545 35.904 4.47036C35.9185 2.5204 37.5644 0.873118 39.4998 0.873118ZM39.4998 0C37.0827 0 35.0483 2.03728 35.0309 4.46309C35.0134 6.87289 37.0682 8.92472 39.4969 8.93054H39.5056C40.6847 8.92178 41.8129 8.44952 42.6467 7.61579C43.4804 6.78205 43.9527 5.65378 43.9614 4.47473C43.952 3.29439 43.4803 2.16476 42.6476 1.3282C41.8148 0.491648 40.6873 0.0148123 39.5071 0L39.4998 0Z" fill="white"/>
</g>
</g>
</g>
</svg>
