<svg width="44" height="44" viewBox="0 0 44 44" fill="none" xmlns="http://www.w3.org/2000/svg">
<g id="Group 404">
<circle id="Ellipse 4" cx="22" cy="22" r="21.5" stroke="#282563"/>
<path id="Arrow 1" d="M31.3536 18.3536C31.5488 18.1583 31.5488 17.8417 31.3536 17.6464L28.1716 14.4645C27.9763 14.2692 27.6597 14.2692 27.4645 14.4645C27.2692 14.6597 27.2692 14.9763 27.4645 15.1716L30.2929 18L27.4645 20.8284C27.2692 21.0237 27.2692 21.3403 27.4645 21.5355C27.6597 21.7308 27.9763 21.7308 28.1716 21.5355L31.3536 18.3536ZM12 18.5H31V17.5H12V18.5Z" fill="#282563"/>
<path id="Arrow 2" d="M11.6464 28.3536C11.4512 28.1583 11.4512 27.8417 11.6464 27.6464L14.8284 24.4645C15.0237 24.2692 15.3403 24.2692 15.5355 24.4645C15.7308 24.6597 15.7308 24.9763 15.5355 25.1716L12.7071 28L15.5355 30.8284C15.7308 31.0237 15.7308 31.3403 15.5355 31.5355C15.3403 31.7308 15.0237 31.7308 14.8284 31.5355L11.6464 28.3536ZM31 28.5H12V27.5H31V28.5Z" fill="#282563"/>
</g>
</svg>
