<svg width="26" height="26" viewBox="0 0 26 26" fill="none" xmlns="http://www.w3.org/2000/svg">
<g id="refer 1">
<g id="Layer 2">
<g id="Layer 1">
<path id="Vector" d="M0 25.1875C0.0665234 24.7041 0.117812 24.2181 0.203125 23.7372C0.678437 21.0031 1.92207 18.6677 3.89187 16.7207C5.19772 15.423 6.76995 14.4244 8.49977 13.7942C8.55512 13.7739 8.60945 13.75 8.66277 13.7252C8.67699 13.7186 8.68715 13.7028 8.66937 13.7201C8.20879 13.2747 7.71113 12.8624 7.29371 12.38C4.82422 9.52656 4.89074 5.27516 7.4293 2.48473C8.74301 1.04102 10.3782 0.230039 12.3205 0.0365625C12.3784 0.0278387 12.4358 0.015629 12.4922 0L13.5078 0C14.0207 0.0985156 14.5463 0.154883 15.045 0.304688C17.3712 0.990742 19.0277 2.46391 19.9428 4.70285C20.8132 6.83262 20.7045 8.96441 19.6315 10.9997C18.5737 13.0076 16.9061 14.2914 14.6925 14.8134C14.0893 14.9556 13.455 15.0059 12.8329 15.0241C9.47426 15.1221 6.70668 16.4587 4.55559 19.015C2.86355 21.0199 2.04547 23.3726 2.03125 26H0V25.1875ZM18.4773 7.50242C18.463 4.48602 15.9961 2.0282 12.9898 2.03125C9.96633 2.0348 7.49887 4.51395 7.51562 7.5334C7.53238 10.5529 10.01 13.0122 13.0102 12.9949C16.022 12.9777 18.491 10.498 18.4773 7.50242Z" fill="white"/>
<path id="Vector_2" d="M26 18.6874C24.4847 20.1987 22.9697 21.7106 21.4551 23.2232C21.3943 23.2944 21.3406 23.3712 21.2946 23.4527L19.8123 21.9664L22.1325 19.6472C21.515 19.6472 20.9366 19.636 20.3582 19.6472C17.9065 19.7031 16.0291 21.5952 15.9961 24.0459C15.987 24.6974 15.9961 25.3484 15.9961 25.9999H13.9648C13.9958 24.996 13.9476 23.9819 14.0755 22.9901C14.2843 21.3722 15.113 20.06 16.378 19.0373C17.5795 18.0664 18.9678 17.6068 20.5095 17.6154C20.9996 17.618 21.4896 17.6154 21.97 17.6154L19.7676 15.4171L21.2484 13.9348C21.2992 13.9815 21.3652 14.043 21.4302 14.1075C22.8832 15.5598 24.3364 17.0122 25.7898 18.4645C25.8567 18.5256 25.9269 18.5831 26 18.6367V18.6874Z" fill="white"/>
</g>
</g>
</g>
</svg>
