<svg width="18" height="26" viewBox="0 0 18 26" fill="none" xmlns="http://www.w3.org/2000/svg">
<g id="reward-symbol-in-a-circle-svgrepo-com 1">
<g id="Group">
<g id="Group_2">
<path id="Vector" d="M8.79898 1.86377C4.97515 1.86377 1.86377 4.97468 1.86377 8.7985C1.86377 12.6223 4.97468 15.7337 8.79898 15.7337C12.6228 15.7337 15.7337 12.6223 15.7337 8.7985C15.7337 4.97468 12.6228 1.86377 8.79898 1.86377ZM8.79898 14.7806C5.50079 14.7806 2.81687 12.0972 2.81687 8.7985C2.81687 5.50031 5.50031 2.81687 8.79898 2.81687C12.0972 2.81687 14.7806 5.50031 14.7806 8.7985C14.7806 12.0967 12.0972 14.7806 8.79898 14.7806Z" fill="white"/>
<path id="Vector_2" d="M8.79906 3.67139C8.536 3.67139 8.32251 3.88488 8.32251 4.14794C8.32251 4.41099 8.536 4.62448 8.79906 4.62448C11.1008 4.62448 12.9727 6.49684 12.9727 8.79857C12.9727 9.06163 13.1862 9.27512 13.4492 9.27512C13.7123 9.27512 13.9258 9.06163 13.9258 8.79857C13.9258 5.97121 11.6259 3.67139 8.79906 3.67139Z" fill="white"/>
<path id="Vector_3" d="M17.5975 8.79851C17.5975 3.94677 13.6503 0 8.79899 0C3.94773 0 0 3.94677 0 8.79851C0 11.6325 1.35673 14.265 3.64416 15.921L0.843491 23.0978C0.784399 23.2489 0.80632 23.42 0.90163 23.5505C0.996939 23.6821 1.15611 23.7588 1.31384 23.7469L4.49528 23.5725L6.71743 25.8556C6.80797 25.949 6.93187 26 7.05911 26C7.09056 26 7.12201 25.9971 7.15394 25.9905C7.31263 25.959 7.44416 25.8475 7.50325 25.6974L8.79899 22.3768L10.0952 25.6974C10.1538 25.8475 10.2853 25.959 10.444 25.9905C10.4755 25.9971 10.5074 26 10.5389 26C10.6661 26 10.7891 25.9495 10.8806 25.8556L13.1027 23.5725L16.2841 23.7469C16.2946 23.7474 16.3056 23.7483 16.3151 23.7474C16.5767 23.7512 16.7964 23.5362 16.7964 23.2708C16.7964 23.1769 16.7693 23.0892 16.7221 23.0149L13.9529 15.921C16.2408 14.265 17.5975 11.6325 17.5975 8.79851ZM6.88422 24.6599L5.02711 22.7518C4.93704 22.6594 4.81362 22.607 4.68542 22.607C4.67685 22.607 4.66779 22.607 4.65921 22.6079L2.00055 22.7538L4.46097 16.45C4.47002 16.4552 4.47955 16.4595 4.48861 16.4638C4.59583 16.5243 4.70639 16.5777 4.81552 16.633C4.90321 16.6782 4.98946 16.7259 5.07858 16.7678C5.11765 16.7864 5.15816 16.8012 5.19724 16.8183C5.93303 17.151 6.70837 17.3811 7.5085 17.4993C7.51231 17.5003 7.51612 17.5012 7.51993 17.5012C7.69387 17.5265 7.86972 17.5441 8.04604 17.5589C8.09179 17.5627 8.13706 17.5689 8.18329 17.5718C8.32339 17.5813 8.46445 17.5837 8.60551 17.587C8.67032 17.5884 8.73466 17.5942 8.79899 17.5942C8.81853 17.5942 8.83807 17.5913 8.8576 17.5913C9.10207 17.5889 9.34702 17.5784 9.59387 17.5546C9.61246 17.5532 9.63057 17.5532 9.64867 17.5513C9.65153 17.5513 9.65487 17.5513 9.65868 17.5508L8.35532 20.8885V20.8895L6.88422 24.6599ZM12.9383 22.6079C12.8025 22.6022 12.6667 22.6532 12.5709 22.7518L10.7142 24.6599L9.31128 21.0653L10.7509 17.3764C10.913 17.3402 11.0721 17.2949 11.2303 17.2487C11.2685 17.2387 11.3061 17.2306 11.3433 17.2191C11.5877 17.1457 11.8279 17.06 12.0643 16.9651C12.1305 16.9384 12.1939 16.9084 12.2592 16.8812C12.4336 16.806 12.6061 16.7259 12.7753 16.6396C12.8477 16.6025 12.9207 16.5658 12.9917 16.5267C13.0398 16.5005 13.0898 16.4776 13.1375 16.4504L15.5984 22.7547L12.9383 22.6079ZM13.1108 15.3487C12.254 15.9143 11.3118 16.2999 10.3082 16.4952C9.53049 16.6463 8.7561 16.6806 8.0022 16.6044C6.74602 16.4786 5.54798 16.0487 4.48623 15.3477C2.27361 13.8885 0.95262 11.4395 0.95262 8.79708C0.95262 4.47098 4.47193 0.951667 8.79804 0.951667C13.1241 0.951667 16.6435 4.47098 16.6435 8.79708C16.6444 11.4405 15.3229 13.8895 13.1108 15.3487Z" fill="white"/>
</g>
</g>
</g>
</svg>
