<svg width="128" height="127" viewBox="0 0 128 127" fill="none" xmlns="http://www.w3.org/2000/svg">
<g id="boss 1">
<g id="Layer 2">
<g id="Layer 1">
<path id="Vector" d="M79.4139 42.0552C79.4139 48.6619 79.3437 54.7204 79.4552 60.7758C79.4903 62.7765 79.0199 63.3202 76.9856 62.7887C74.8475 62.2297 72.5949 61.993 70.3774 61.8006C69.0579 61.686 68.5783 61.2493 68.4164 59.89C67.7674 54.4027 66.9457 48.9384 66.2279 43.4602C66.0981 42.463 65.9927 41.4229 64.6686 41.9208C63.4469 42.379 61.3301 40.4913 61.0339 43.5198C60.5757 48.2542 59.7495 52.9458 59.1615 57.6664C58.9431 59.4258 58.4147 60.2398 56.4003 59.7312C54.3248 59.2089 52.1561 59.0134 50.015 58.8042C48.335 58.6393 47.7242 57.9642 47.7822 56.1881C47.9242 51.6751 47.8295 47.1546 47.8295 42.1926C45.2501 44.0894 43.0035 45.7679 40.7219 47.3852C34.6939 51.6385 27.8932 53.1229 20.7001 53.4024C17.473 53.5277 14.2353 53.6223 11.0099 53.5185C7.9936 53.4207 6.05709 51.3957 6.14261 48.7841C6.22356 46.3406 8.28072 44.3811 11.0908 44.2635C14.779 44.1108 18.4734 44.065 22.1631 43.9581C29.3746 43.7657 35.1155 40.5035 40.3905 36.0425C41.2717 35.2988 42.1697 34.5688 42.999 33.77C45.9312 30.9493 49.4285 29.7367 53.4833 29.7794C60.258 29.8497 67.0343 29.8695 73.809 29.7794C77.8837 29.7229 81.3184 31.0638 84.3209 33.7502C86.0955 35.3385 87.9185 36.8728 89.7898 38.3532C95.0847 42.5561 101.244 44.1001 107.89 44.1185C110.508 44.1185 113.127 44.1719 115.743 44.2422C118.92 44.3277 121.038 46.1619 121.089 48.8162C121.144 51.5331 119.239 53.4681 115.982 53.5292C109.441 53.6529 102.886 53.5674 96.476 52.0279C91.2041 50.7603 86.8255 47.7303 82.5539 44.5552C81.6467 43.8787 80.7793 43.1441 79.4139 42.0552ZM63.7599 40.1874C64.9634 39.8316 66.764 40.2684 66.7686 38.2448C66.7686 35.3629 65.8431 34.4573 63.2697 34.4985C61.5898 34.5245 60.1695 36.319 60.4612 38.4693C60.7131 40.3187 62.4649 39.9247 63.7599 40.1874Z" fill="#FFC108"/>
<path id="Vector_2" d="M41.6825 117.872C35.369 117.872 29.0555 117.886 22.745 117.872C17.4211 117.857 15.2983 115.734 15.2968 110.505C15.2968 101.055 15.2601 91.6042 15.3304 82.1538C15.3426 80.4433 15.1685 79.7103 13.0793 79.5576C2.54145 78.823 -3.10925 68.5387 1.77784 59.296C2.77359 57.3961 4.26568 56.0033 6.00518 54.8273C6.44502 54.5219 6.88639 54.1508 7.47895 54.3997C11.5032 56.0888 15.6908 55.0564 19.8051 55.0763C21.0651 55.0763 21.9951 55.3374 22.8977 56.1988C25.9873 59.1417 27.3053 62.8345 27.3267 66.9641C27.3939 78.9497 27.4061 90.9414 27.2992 102.922C27.2793 105.068 27.7039 105.775 30.0222 105.749C41.6474 105.616 53.2741 105.723 64.8993 105.653C66.79 105.642 67.4253 106.038 66.6785 107.953C65.6201 110.667 64.6137 113.411 63.7768 116.2C63.3598 117.575 62.6619 117.918 61.3118 117.906C54.7662 117.837 48.2221 117.872 41.6825 117.872Z" fill="#FFC108"/>
<path id="Vector_3" d="M99.9444 84.6798C99.9444 78.684 99.894 72.6866 99.9627 66.6923C100.01 62.61 101.414 59.0439 104.415 56.1621C105.247 55.3618 106.125 55.1114 107.303 55.093C111.493 55.0197 115.753 56.0964 119.867 54.3875C120.675 54.0515 121.286 54.8456 121.881 55.2839C126.463 58.6224 128.308 64.319 126.691 70.0643C125.209 75.3287 120.397 79.1696 114.334 79.556C112.408 79.6782 111.954 80.1974 111.974 82.0683C112.075 91.676 112.026 101.287 112.019 110.896C112.019 115.423 109.81 117.796 105.299 117.851C98.2125 117.937 91.1247 117.839 84.0384 117.903C82.4822 117.918 82.4638 117.4 82.8884 116.162C83.8597 113.332 84.802 110.482 85.2785 107.515C85.4923 106.18 86.0772 105.595 87.5602 105.65C90.7902 105.772 94.0401 105.528 97.2611 105.742C99.5901 105.894 100.056 105.061 100.01 102.901C99.8466 96.8258 99.9444 90.7536 99.9444 84.6798Z" fill="#FFC108"/>
<path id="Vector_4" d="M40.5234 73.1722C44.1704 75.3638 47.7884 75.3516 51.2537 75.8846C60.6735 77.3314 70.1046 78.7018 79.5469 79.9958C81.0314 80.1974 81.4422 81.1031 81.9339 82.1141C85.1854 88.7957 85.5718 95.8331 84.4386 103.037C83.4444 109.36 81.5201 115.421 79.1559 121.354C77.476 125.56 73.4884 127.436 69.4627 125.892C65.6263 124.421 63.9448 120.382 65.5637 116.174C68.079 109.632 70.3194 103.04 70.4065 95.9217C70.4218 94.0011 70.1348 92.0901 69.5558 90.2588C68.2821 86.1185 65.4003 83.9972 61.0783 83.8169C55.0763 83.5588 49.2744 82.5723 44.5309 78.4396C42.9853 77.0926 41.5146 75.6616 40.5234 73.1722Z" fill="#FFC108"/>
<path id="Vector_5" d="M78.5145 78.8045C73.5586 78.073 67.856 77.2284 62.1534 76.3885C57.0586 75.6386 51.9668 74.8612 46.8659 74.1572C42.1224 73.5066 39.3581 71.3547 38.8908 67.8147C38.1806 62.4373 42.3102 58.6513 47.9579 59.5173C51.7561 60.0976 55.5527 60.6948 59.3525 61.2736C66.4189 62.3426 73.4914 63.3903 80.5548 64.4914C84.6783 65.1329 87.3555 68.4943 86.9691 72.4024C86.5827 76.2388 83.4183 78.8748 78.5145 78.8045Z" fill="#FFC108"/>
<path id="Vector_6" d="M63.4989 27.2168C55.9025 27.1771 49.9525 21.14 50.0029 13.5222C50.0533 6.01134 56.1285 0.0460324 63.7707 0.000215856C71.1579 -0.0425462 77.3508 6.27402 77.2943 13.7864C77.2377 21.2988 71.1136 27.2565 63.4989 27.2168Z" fill="#FFC108"/>
<path id="Vector_7" d="M52.6923 84.7943C46.9978 84.7943 41.3023 84.7943 35.6057 84.7943C32.5406 84.7943 31.9129 85.4159 31.9007 88.394C31.8885 91.6215 31.8885 94.848 31.9007 98.0735C31.9114 101.14 32.5788 101.798 35.7462 101.801C45.5999 101.812 55.454 101.812 65.3086 101.801C65.8462 101.801 66.3853 101.801 66.9244 101.801C67.4635 101.801 68.0515 101.801 67.9934 102.614C67.9507 103.174 67.8407 103.726 67.1794 103.836C66.6467 103.908 66.1087 103.936 65.5713 103.918C54.1782 103.918 42.7852 103.874 31.3921 103.967C29.4648 104.004 29.1487 103.312 29.1594 101.607C29.225 90.3916 29.167 79.1757 29.2082 67.9598C29.222 64.1708 28.4141 60.6384 26.2561 57.506C25.4177 56.2843 25.5811 55.7604 27.0365 55.6077C27.6474 55.5451 28.2583 55.3786 28.8692 55.3756C34.1025 55.3572 39.3367 55.3572 44.572 55.3756C45.3204 55.3756 46.1817 55.2015 46.226 56.4064C46.2566 57.2586 45.8717 57.5763 45.0684 57.7993C38.1806 59.7083 35.8089 63.6378 37.5988 70.5027C39.4314 77.5187 44.3185 81.6513 50.9741 83.9422C51.5407 84.1361 52.1241 84.2812 52.6984 84.4492L52.6923 84.7943Z" fill="#FFC108"/>
<path id="Vector_8" d="M91.3936 55.3648C93.9058 55.5252 96.9862 55.1144 100.053 55.5634C101.427 55.765 102.057 56.0994 101.006 57.5488C98.8586 60.5116 98.1042 63.9234 98.1042 67.5398C98.1042 78.9069 98.0706 90.2755 98.1439 101.643C98.1546 103.391 97.7773 104.086 95.8882 103.979C93.1254 103.817 90.3489 103.946 87.577 103.927C86.8974 103.927 86.1201 103.985 86.1613 102.913C86.1949 101.997 86.7386 101.788 87.5358 101.801C89.0737 101.829 90.6147 101.843 92.1526 101.801C94.5152 101.733 95.3796 100.9 95.401 98.6126C95.4346 95.0038 95.3918 91.3934 95.4163 87.7831C95.4285 85.7626 94.4129 84.8172 92.4489 84.802C90.6009 84.7867 88.7454 84.6828 86.9097 84.8325C85.416 84.9531 84.6509 84.4125 84.2309 83.0334C83.9721 82.228 83.6069 81.4606 83.1451 80.7518C82.5892 79.8721 82.8396 79.3773 83.6872 78.939C87.0059 77.1979 88.3376 74.3451 87.9818 70.7302C87.6305 67.1672 85.5764 64.8504 82.2272 63.6637C81.6346 63.4545 81.0161 63.3583 81.0192 62.5367C81.0299 60.4627 81.0192 58.3887 81.0314 56.3148C81.0406 55.2747 81.8317 55.3709 82.5174 55.3694C85.2939 55.3603 88.0642 55.3648 91.3936 55.3648Z" fill="#FFC108"/>
<path id="Vector_9" d="M102.817 122.575C102.053 122.575 101.29 122.526 100.526 122.587C99.3808 122.677 99.1151 122.112 99.1059 121.084C99.0952 119.974 99.3503 119.363 100.633 119.438C102.08 119.532 103.532 119.532 104.98 119.438C106.383 119.337 106.594 120.027 106.629 121.209C106.669 122.601 105.887 122.642 104.88 122.584C104.192 122.546 103.503 122.576 102.817 122.575Z" fill="#FFC108"/>
<path id="Vector_10" d="M24.2845 122.576C23.5957 122.576 22.8993 122.511 22.2197 122.588C20.8986 122.741 20.7062 122.019 20.7138 120.942C20.7138 119.927 20.9826 119.374 22.1448 119.439C23.5193 119.517 24.9015 119.497 26.2775 119.439C27.403 119.397 28.1621 119.5 28.156 120.979C28.156 122.37 27.5634 122.695 26.3508 122.582C25.6666 122.524 24.9732 122.576 24.2845 122.576Z" fill="#FFC108"/>
</g>
</g>
</g>
</svg>
