<svg width="35" height="34" viewBox="0 0 35 34" fill="none" xmlns="http://www.w3.org/2000/svg">
<g id="facebook 1">
<g id="Layer 2">
<g id="Layer 1">
<path id="Vector" d="M16.5197 0H17.6737C17.7118 0.00753933 17.7503 0.0130423 17.7891 0.0164854C18.9771 0.0572945 20.157 0.227973 21.3079 0.525474C24.9108 1.4602 27.9124 3.35767 30.2805 6.22697C32.6186 9.0604 33.9011 12.3266 34.1505 15.9946C34.1624 16.1714 34.176 16.3482 34.1888 16.5246V17.6786C34.183 17.7198 34.174 17.761 34.1723 17.8022C34.1231 19.1662 33.9056 20.5189 33.5248 21.8296C32.5599 25.1432 30.7645 27.9184 28.1386 30.1552C25.8632 32.0922 23.2486 33.3332 20.3167 33.9056C20.1374 33.9407 19.9569 33.9687 19.7747 34V22.0493H22.2476C22.7174 22.0493 23.1876 22.0493 23.6575 22.0493C23.7222 22.0493 23.756 22.0419 23.7667 21.9615C23.8133 21.6203 23.871 21.2811 23.9233 20.9406C24.0057 20.4073 24.0873 19.8739 24.1681 19.3403C24.2428 18.8529 24.3177 18.3652 24.3927 17.8772C24.4315 17.6221 24.4702 17.367 24.511 17.0999H19.7673V17.0175C19.7673 15.9806 19.762 14.9436 19.771 13.9071C19.774 13.644 19.8026 13.3817 19.8563 13.1241C20.0059 12.4049 20.3921 11.8534 21.0635 11.5258C21.5436 11.2913 22.06 11.2278 22.5863 11.2249C23.2519 11.2208 23.9179 11.2249 24.584 11.2249H24.7113V9.52859C24.7113 8.72712 24.7113 7.92552 24.7113 7.12377C24.7113 7.05989 24.7142 7.00549 24.6289 6.99478C24.4249 6.96881 24.2221 6.93007 24.0177 6.90864C23.4275 6.84641 22.8377 6.7817 22.2455 6.73307C21.5395 6.67537 20.8323 6.65064 20.1234 6.71081C19.4145 6.77099 18.7135 6.91688 18.0471 7.18518C16.7913 7.69252 15.8388 8.53905 15.2107 9.74372C14.6774 10.7666 14.4508 11.8679 14.4318 13.0091C14.41 14.3304 14.426 15.6525 14.4256 16.9747V17.1086H10.0928V22.0542H14.4203V33.9934C14.4001 33.9934 14.38 33.992 14.3601 33.9893C13.7592 33.8586 13.1505 33.7564 12.5591 33.592C9.18243 32.6527 6.34611 30.8488 4.07853 28.1773C1.59953 25.259 0.259266 21.8721 0.0309423 18.0516C-0.0752965 16.3164 0.0924378 14.5754 0.527979 12.8924C1.45982 9.28667 3.35688 6.28219 6.2237 3.91241C9.05631 1.57189 12.3233 0.288495 15.9889 0.0383287C16.1657 0.0263767 16.3429 0.0127762 16.5197 0Z" fill="#ADADAD"/>
</g>
</g>
</g>
</svg>
