<svg width="23" height="16" viewBox="0 0 23 16" fill="none" xmlns="http://www.w3.org/2000/svg">
<g id="Flag_of_India 1">
<path id="Vector" d="M0 0.5H22.5V15.5H0V0.5Z" fill="white"/>
<path id="Vector_2" d="M0 0.5H22.5V5.5H0V0.5Z" fill="#F15B25"/>
<path id="Vector_3" d="M0 10.5H22.5V15.5H0V10.5Z" fill="#006934"/>
<path id="Vector_4" d="M11.25 10.3125C12.5272 10.3125 13.5625 9.27716 13.5625 8C13.5625 6.72284 12.5272 5.6875 11.25 5.6875C9.97284 5.6875 8.9375 6.72284 8.9375 8C8.9375 9.27716 9.97284 10.3125 11.25 10.3125Z" fill="#2C2C6F"/>
<path id="Vector_5" d="M11.25 10C12.3546 10 13.25 9.10457 13.25 8C13.25 6.89543 12.3546 6 11.25 6C10.1454 6 9.25 6.89543 9.25 8C9.25 9.10457 10.1454 10 11.25 10Z" fill="white"/>
<path id="Vector_6" d="M11.2499 8.39998C11.4708 8.39998 11.6499 8.22089 11.6499 7.99998C11.6499 7.77906 11.4708 7.59998 11.2499 7.59998C11.0289 7.59998 10.8499 7.77906 10.8499 7.99998C10.8499 8.22089 11.0289 8.39998 11.2499 8.39998Z" fill="#2C2C6F"/>
<g id="d">
<g id="c">
<g id="b">
<g id="a">
<path id="Vector_7" d="M11.2498 6L11.3248 7.20352L11.2498 7.79941L11.1748 7.20352L11.2498 6Z" fill="#2C2C6F"/>
<path id="Vector_8" d="M11.4995 6.10387C11.5474 6.11018 11.5913 6.07645 11.5976 6.02854C11.6039 5.98063 11.5702 5.93667 11.5223 5.93037C11.4744 5.92406 11.4304 5.95779 11.4241 6.0057C11.4178 6.05361 11.4515 6.09756 11.4995 6.10387Z" fill="#2C2C6F"/>
</g>
<g id="a_2">
<path id="Vector_9" d="M11.2502 10L11.1752 8.79648L11.2502 8.20059L11.3252 8.79648L11.2502 10Z" fill="#2C2C6F"/>
<path id="Vector_10" d="M11.0005 9.89613C10.9526 9.88982 10.9087 9.92355 10.9024 9.97146C10.8961 10.0194 10.9298 10.0633 10.9777 10.0696C11.0256 10.0759 11.0696 10.0422 11.0759 9.9943C11.0822 9.94639 11.0485 9.90244 11.0005 9.89613Z" fill="#2C2C6F"/>
</g>
</g>
<g id="b_2">
<g id="a_3">
<path id="Vector_11" d="M11.7673 6.06818L11.5282 7.2501L11.3015 7.80628L11.3833 7.21128L11.7673 6.06818Z" fill="#2C2C6F"/>
<path id="Vector_12" d="M11.9816 6.23307C12.0263 6.25156 12.0775 6.23036 12.096 6.18571C12.1145 6.14107 12.0933 6.08988 12.0486 6.07139C12.004 6.05289 11.9528 6.0741 11.9343 6.11874C11.9158 6.16339 11.937 6.21457 11.9816 6.23307Z" fill="#2C2C6F"/>
</g>
<g id="a_4">
<path id="Vector_13" d="M10.7325 9.93182L10.9715 8.7499L11.1982 8.19372L11.1164 8.78872L10.7325 9.93182Z" fill="#2C2C6F"/>
<path id="Vector_14" d="M10.5181 9.76687C10.4735 9.74838 10.4223 9.76958 10.4038 9.81423C10.3853 9.85887 10.4065 9.91006 10.4511 9.92855C10.4958 9.94704 10.547 9.92584 10.5655 9.8812C10.584 9.83655 10.5628 9.78537 10.5181 9.76687Z" fill="#2C2C6F"/>
</g>
</g>
</g>
<g id="c_2">
<g id="b_3">
<g id="a_5">
<path id="Vector_15" d="M12.25 6.26791L11.7132 7.34769L11.3503 7.82624L11.5833 7.27269L12.25 6.26791Z" fill="#2C2C6F"/>
<path id="Vector_16" d="M12.4141 6.48263C12.4524 6.51205 12.5073 6.50482 12.5367 6.46648C12.5662 6.42814 12.5589 6.37321 12.5206 6.34379C12.4823 6.31438 12.4273 6.32161 12.3979 6.35995C12.3685 6.39828 12.3757 6.45321 12.4141 6.48263Z" fill="#2C2C6F"/>
</g>
<g id="a_6">
<path id="Vector_17" d="M10.25 9.73197L10.7868 8.65219L11.1497 8.17363L10.9167 8.72719L10.25 9.73197Z" fill="#2C2C6F"/>
<path id="Vector_18" d="M10.0857 9.51719C10.0474 9.48777 9.99243 9.495 9.96301 9.53334C9.9336 9.57168 9.94083 9.6266 9.97917 9.65602C10.0175 9.68544 10.0724 9.67821 10.1019 9.63987C10.1313 9.60153 10.124 9.5466 10.0857 9.51719Z" fill="#2C2C6F"/>
</g>
</g>
<g id="b_4">
<g id="a_7">
<path id="Vector_19" d="M12.6641 6.58581L11.8661 7.48986L11.3917 7.85819L11.7601 7.38379L12.6641 6.58581Z" fill="#2C2C6F"/>
<path id="Vector_20" d="M12.7672 6.83568C12.7966 6.87402 12.8516 6.88125 12.8899 6.85183C12.9282 6.82241 12.9355 6.76749 12.906 6.72915C12.8766 6.69081 12.8217 6.68358 12.7834 6.713C12.745 6.74241 12.7378 6.79734 12.7672 6.83568Z" fill="#2C2C6F"/>
</g>
<g id="a_8">
<path id="Vector_21" d="M9.83588 9.41419L10.6339 8.51014L11.1083 8.14181L10.7399 8.61621L9.83588 9.41419Z" fill="#2C2C6F"/>
<path id="Vector_22" d="M9.73254 9.16426C9.70312 9.12592 9.6482 9.11869 9.60986 9.14811C9.57152 9.17752 9.56429 9.23245 9.59371 9.27079C9.62312 9.30913 9.67805 9.31636 9.71639 9.28694C9.75473 9.25752 9.76196 9.2026 9.73254 9.16426Z" fill="#2C2C6F"/>
</g>
</g>
</g>
</g>
<g id="d_2">
<g id="c_3">
<g id="b_5">
<g id="a_9">
<path id="Vector_23" d="M12.9821 6.99983L11.9773 7.66654L11.4237 7.89953L11.9023 7.53664L12.9821 6.99983Z" fill="#2C2C6F"/>
<path id="Vector_24" d="M13.0171 7.26793C13.0356 7.31257 13.0867 7.33377 13.1314 7.31528C13.176 7.29679 13.1972 7.2456 13.1787 7.20096C13.1603 7.15631 13.1091 7.13511 13.0644 7.1536C13.0198 7.1721 12.9986 7.22328 13.0171 7.26793Z" fill="#2C2C6F"/>
</g>
<g id="a_10">
<path id="Vector_25" d="M9.51792 8.99993L10.5227 8.33322L11.0763 8.10022L10.5977 8.46312L9.51792 8.99993Z" fill="#2C2C6F"/>
<path id="Vector_26" d="M9.48293 8.73183C9.46444 8.68718 9.41325 8.66598 9.36861 8.68447C9.32396 8.70297 9.30276 8.75415 9.32125 8.7988C9.33974 8.84345 9.39093 8.86465 9.43558 8.84615C9.48022 8.82766 9.50142 8.77648 9.48293 8.73183Z" fill="#2C2C6F"/>
</g>
</g>
<g id="b_6">
<g id="a_11">
<path id="Vector_27" d="M13.1818 7.48248L12.0387 7.86642L11.4437 7.9482L11.9998 7.72153L13.1818 7.48248Z" fill="#2C2C6F"/>
<path id="Vector_28" d="M13.1463 7.7504C13.1526 7.79831 13.1965 7.83204 13.2444 7.82573C13.2924 7.81942 13.3261 7.77547 13.3198 7.72756C13.3135 7.67965 13.2695 7.64592 13.2216 7.65223C13.1737 7.65854 13.14 7.70249 13.1463 7.7504Z" fill="#2C2C6F"/>
</g>
<g id="a_12">
<path id="Vector_29" d="M9.31799 8.51758L10.4611 8.13364L11.0561 8.05186L10.4999 8.27853L9.31799 8.51758Z" fill="#2C2C6F"/>
<path id="Vector_30" d="M9.35349 8.2496C9.34718 8.20169 9.30323 8.16796 9.25532 8.17427C9.2074 8.18058 9.17368 8.22453 9.17999 8.27244C9.18629 8.32035 9.23025 8.35408 9.27816 8.34777C9.32607 8.34146 9.3598 8.29751 9.35349 8.2496Z" fill="#2C2C6F"/>
</g>
</g>
</g>
<g id="c_4">
<g id="b_7">
<g id="a_13">
<path id="Vector_31" d="M13.25 8.00005L12.0465 8.07505L11.4506 8.00005L12.0465 7.92505L13.25 8.00005Z" fill="#2C2C6F"/>
<path id="Vector_32" d="M13.1461 8.2497C13.1398 8.29761 13.1735 8.34157 13.2215 8.34787C13.2694 8.35418 13.3133 8.32045 13.3196 8.27254C13.3259 8.22463 13.2922 8.18068 13.2443 8.17437C13.1964 8.16806 13.1524 8.20179 13.1461 8.2497Z" fill="#2C2C6F"/>
</g>
<g id="a_14">
<path id="Vector_33" d="M9.25 8.00007L10.4535 7.92507L11.0494 8.00007L10.4535 8.07507L9.25 8.00007Z" fill="#2C2C6F"/>
<path id="Vector_34" d="M9.35387 7.75042C9.36018 7.70251 9.32645 7.65856 9.27854 7.65225C9.23063 7.64594 9.18667 7.67967 9.18037 7.72758C9.17406 7.77549 9.20779 7.81944 9.2557 7.82575C9.30361 7.83206 9.34756 7.79833 9.35387 7.75042Z" fill="#2C2C6F"/>
</g>
</g>
<g id="b_8">
<g id="a_15">
<path id="Vector_35" d="M13.1818 8.5177L11.9998 8.27865L11.4437 8.05197L12.0387 8.13376L13.1818 8.5177Z" fill="#2C2C6F"/>
<path id="Vector_36" d="M13.017 8.73195C12.9985 8.77659 13.0197 8.82778 13.0643 8.84627C13.109 8.86477 13.1602 8.84356 13.1787 8.79892C13.1972 8.75427 13.176 8.70309 13.1313 8.68459C13.0867 8.6661 13.0355 8.6873 13.017 8.73195Z" fill="#2C2C6F"/>
</g>
<g id="a_16">
<path id="Vector_37" d="M9.31824 7.4823L10.5002 7.72135L11.0563 7.94803L10.4613 7.86624L9.31824 7.4823Z" fill="#2C2C6F"/>
<path id="Vector_38" d="M9.48301 7.26805C9.5015 7.22341 9.4803 7.17222 9.43565 7.15373C9.391 7.13523 9.33982 7.15644 9.32133 7.20108C9.30283 7.24573 9.32403 7.29691 9.36868 7.31541C9.41333 7.3339 9.46451 7.3127 9.48301 7.26805Z" fill="#2C2C6F"/>
</g>
</g>
</g>
</g>
<g id="d_3">
<g id="c_5">
<g id="b_9">
<g id="a_17">
<path id="Vector_39" d="M12.982 8.99995L11.9023 8.46314L11.4237 8.10024L11.9773 8.33324L12.982 8.99995Z" fill="#2C2C6F"/>
<path id="Vector_40" d="M12.7671 9.16418C12.7377 9.20252 12.7449 9.25745 12.7833 9.28686C12.8216 9.31628 12.8765 9.30905 12.906 9.27071C12.9354 9.23237 12.9281 9.17745 12.8898 9.14803C12.8515 9.11861 12.7965 9.12584 12.7671 9.16418Z" fill="#2C2C6F"/>
</g>
<g id="a_18">
<path id="Vector_41" d="M9.51772 6.99999L10.5975 7.5368L11.0761 7.8997L10.5225 7.6667L9.51772 6.99999Z" fill="#2C2C6F"/>
<path id="Vector_42" d="M9.73263 6.8357C9.76205 6.79736 9.75482 6.74243 9.71648 6.71301C9.67814 6.6836 9.62321 6.69083 9.59379 6.72917C9.56438 6.7675 9.57161 6.82243 9.60995 6.85185C9.64828 6.88127 9.70321 6.87404 9.73263 6.8357Z" fill="#2C2C6F"/>
</g>
</g>
<g id="b_10">
<g id="a_19">
<path id="Vector_43" d="M12.664 9.41418L11.76 8.61619L11.3916 8.1418L11.866 8.51013L12.664 9.41418Z" fill="#2C2C6F"/>
<path id="Vector_44" d="M12.4139 9.51721C12.3756 9.54663 12.3683 9.60156 12.3977 9.6399C12.4272 9.67824 12.4821 9.68547 12.5204 9.65605C12.5588 9.62663 12.566 9.5717 12.5366 9.53336C12.5072 9.49503 12.4522 9.48779 12.4139 9.51721Z" fill="#2C2C6F"/>
</g>
<g id="a_20">
<path id="Vector_45" d="M9.8355 6.58582L10.7396 7.38381L11.1079 7.8582L10.6335 7.48987L9.8355 6.58582Z" fill="#2C2C6F"/>
<path id="Vector_46" d="M10.0856 6.48285C10.124 6.45343 10.1312 6.3985 10.1018 6.36016C10.0724 6.32182 10.0174 6.31459 9.97909 6.34401C9.94075 6.37343 9.93352 6.42836 9.96293 6.4667C9.99235 6.50504 10.0473 6.51227 10.0856 6.48285Z" fill="#2C2C6F"/>
</g>
</g>
</g>
<g id="c_6">
<g id="b_11">
<g id="a_21">
<path id="Vector_47" d="M12.25 9.73196L11.5833 8.72718L11.3503 8.17362L11.7132 8.65218L12.25 9.73196Z" fill="#2C2C6F"/>
<path id="Vector_48" d="M11.9818 9.76689C11.9372 9.78538 11.916 9.83656 11.9345 9.88121C11.953 9.92586 12.0042 9.94706 12.0488 9.92857C12.0934 9.91007 12.1146 9.85889 12.0962 9.81424C12.0777 9.76959 12.0265 9.74839 11.9818 9.76689Z" fill="#2C2C6F"/>
</g>
<g id="a_22">
<path id="Vector_49" d="M10.2498 6.26792L10.9165 7.2727L11.1495 7.82626L10.7866 7.3477L10.2498 6.26792Z" fill="#2C2C6F"/>
<path id="Vector_50" d="M10.5179 6.23299C10.5626 6.2145 10.5838 6.16331 10.5653 6.11867C10.5468 6.07402 10.4956 6.05282 10.451 6.07131C10.4063 6.08981 10.3851 6.14099 10.4036 6.18564C10.4221 6.23028 10.4733 6.25148 10.5179 6.23299Z" fill="#2C2C6F"/>
</g>
</g>
<g id="b_12">
<g id="a_23">
<path id="Vector_51" d="M11.7676 9.93176L11.3837 8.78866L11.3019 8.19367L11.5286 8.74984L11.7676 9.93176Z" fill="#2C2C6F"/>
<path id="Vector_52" d="M11.4995 9.89602C11.4516 9.90233 11.4179 9.94628 11.4242 9.9942C11.4305 10.0421 11.4745 10.0758 11.5224 10.0695C11.5703 10.0632 11.604 10.0193 11.5977 9.97135C11.5914 9.92344 11.5474 9.88972 11.4995 9.89602Z" fill="#2C2C6F"/>
</g>
<g id="a_24">
<path id="Vector_53" d="M10.7321 6.06799L11.1161 7.21109L11.1978 7.80609L10.9712 7.24992L10.7321 6.06799Z" fill="#2C2C6F"/>
<path id="Vector_54" d="M11.0002 6.10373C11.0481 6.09742 11.0819 6.05347 11.0755 6.00556C11.0692 5.95765 11.0253 5.92392 10.9774 5.93023C10.9295 5.93654 10.8957 5.98049 10.902 6.0284C10.9084 6.07631 10.9523 6.11004 11.0002 6.10373Z" fill="#2C2C6F"/>
</g>
</g>
</g>
</g>
</g>
</svg>
