<svg width="35" height="34" viewBox="0 0 35 34" fill="none" xmlns="http://www.w3.org/2000/svg">
<g id="Insta 1">
<g id="Layer 2">
<g id="Layer 1">
<path id="Vector" d="M17.1838 34C7.79882 34.0022 0.186036 26.3907 0.183838 17.0019C0.181641 7.6131 7.79851 -0.00282423 17.1967 7.85669e-07C26.572 0.0028258 34.1782 7.61655 34.181 16.9984C34.1823 26.385 26.572 33.9975 17.1838 34ZM17.1675 27.2492C18.1613 27.2492 19.1554 27.2595 20.1495 27.246C21.0642 27.2335 21.9823 27.2284 22.8803 27.0282C25.1924 26.5137 26.6392 25.1087 27.1875 22.7976C27.4129 21.8487 27.4201 20.8781 27.4264 19.9113C27.439 17.9552 27.439 15.9986 27.4264 14.0416C27.4208 13.1112 27.412 12.1774 27.2098 11.2624C26.7258 9.07238 25.4266 7.6379 23.2523 7.02267C22.3734 6.77376 21.4672 6.73107 20.5635 6.72479C18.2939 6.70952 16.024 6.70952 13.754 6.72479C12.9692 6.72919 12.1845 6.76434 11.4148 6.93855C9.28039 7.42226 7.86129 8.68629 7.22974 10.7994C6.96356 11.6909 6.91585 12.6124 6.90894 13.5325C6.89388 15.8287 6.89388 18.1249 6.90894 20.4211C6.91334 21.1942 6.94849 21.9698 7.12208 22.7288C7.64565 25.0202 9.04183 26.4531 11.332 27.0015C12.2702 27.2262 13.2298 27.2309 14.1859 27.2451C15.1796 27.2605 16.1737 27.2492 17.1675 27.2492Z" fill="#ADADAD"/>
<path id="Vector_2" d="M8.69409 16.9858C8.72548 15.5532 8.74745 14.1203 8.78826 12.6877C8.80678 12.0421 8.91382 11.4071 9.17183 10.8088C9.65648 9.68695 10.5216 9.01177 11.7018 8.77039C12.2914 8.65409 12.8901 8.59044 13.491 8.58017C15.002 8.54439 16.514 8.53717 18.0254 8.54093C19.1705 8.54344 20.3168 8.56981 21.4603 8.60591C22.2294 8.63008 22.9815 8.76788 23.6635 9.14643C24.6083 9.67094 25.1504 10.4962 25.3899 11.5361C25.5315 12.1519 25.5698 12.7794 25.5723 13.4062C25.5828 15.7918 25.5828 18.1768 25.5723 20.5614C25.5692 21.2403 25.5312 21.9215 25.3507 22.5831C24.9426 24.0779 23.9548 24.9521 22.4503 25.2327C21.9156 25.3311 21.3732 25.3819 20.8294 25.3846C18.3869 25.4005 15.9445 25.4015 13.5023 25.3874C12.8494 25.3846 12.1949 25.3413 11.559 25.1677C10.0787 24.7628 9.21138 23.7866 8.91444 22.2956C8.71387 21.2912 8.74557 20.2654 8.72611 19.2465C8.7123 18.4931 8.72328 17.7398 8.72328 16.9865L8.69409 16.9858ZM11.8879 16.9686C11.8851 19.8846 14.2324 22.251 17.1352 22.2595C20.0648 22.2677 22.4347 19.916 22.44 16.994C22.4421 16.2983 22.3065 15.609 22.0411 14.966C21.7757 14.3229 21.3856 13.7387 20.8934 13.247C20.4012 12.7554 19.8165 12.366 19.1731 12.1012C18.5298 11.8365 17.8404 11.7017 17.1447 11.7046C14.2462 11.7081 11.892 14.0657 11.8879 16.9686ZM22.6437 12.7311C22.8061 12.7309 22.9669 12.6987 23.1169 12.6364C23.2668 12.5741 23.403 12.4828 23.5177 12.3678C23.6324 12.2528 23.7233 12.1163 23.7852 11.9662C23.8471 11.816 23.8788 11.6552 23.8785 11.4928C23.8785 10.8229 23.3201 10.2686 22.6459 10.2686C22.4825 10.2658 22.3202 10.2956 22.1685 10.3562C22.0167 10.4168 21.8785 10.507 21.762 10.6215C21.6454 10.736 21.5528 10.8726 21.4895 11.0232C21.4263 11.1739 21.3936 11.3356 21.3935 11.499C21.3933 11.6624 21.4257 11.8242 21.4887 11.975C21.5517 12.1258 21.6441 12.2625 21.7604 12.3772C21.8768 12.4919 22.0148 12.5824 22.1664 12.6432C22.3181 12.7041 22.4803 12.7341 22.6437 12.7317V12.7311Z" fill="#ADADAD"/>
<path id="Vector_3" d="M13.7241 16.9787C13.7279 15.0781 15.2807 13.5309 17.1738 13.5416C19.0725 13.5522 20.6034 15.0906 20.5986 16.9837C20.5991 17.4357 20.5103 17.8834 20.3371 18.301C20.164 18.7186 19.91 19.0978 19.5897 19.4169C19.2695 19.7359 18.8893 19.9885 18.4711 20.1601C18.0528 20.3317 17.6048 20.4189 17.1528 20.4167C15.2553 20.4092 13.72 18.8702 13.7241 16.9787Z" fill="#ADADAD"/>
</g>
</g>
</g>
</svg>
