<svg width="35" height="34" viewBox="0 0 35 34" fill="none" xmlns="http://www.w3.org/2000/svg">
<g id="linkedin 1">
<g id="Layer 2">
<g id="Layer 1">
<path id="Vector" d="M16.703 0H17.6356C17.8081 0.0279773 17.9793 0.0666126 18.1525 0.0832658C18.8319 0.159204 19.5214 0.183185 20.1908 0.310415C24.3275 1.09578 27.7454 3.11614 30.3959 6.39481C32.4858 8.97805 33.701 11.9288 34.0416 15.247C34.0856 15.6833 34.1389 16.1196 34.1882 16.5559V17.4885C34.1615 17.6164 34.1255 17.7436 34.1096 17.8728C34.017 18.6509 33.9763 19.4389 33.8304 20.2043C32.9958 24.5221 30.8082 28.0233 27.2844 30.6365C23.3096 33.5801 18.8426 34.5813 13.9799 33.6807C9.95981 32.9359 6.65249 30.9282 4.0546 27.7861C1.89902 25.1796 0.649364 22.1767 0.290988 18.8027C0.0846944 16.9641 0.190999 15.1037 0.605399 13.3005C1.69252 8.65165 4.28375 5.06256 8.32647 2.53128C10.4535 1.2008 12.8617 0.384934 15.3594 0.148546C15.8077 0.103916 16.2554 0.0499595 16.703 0ZM18.2597 26.6011V26.1281C18.2597 23.5462 18.2597 20.9645 18.2597 18.3831C18.2596 18.0845 18.2818 17.7864 18.3264 17.4911C18.3778 17.1254 18.5483 16.7868 18.8116 16.5277C19.0748 16.2686 19.416 16.1034 19.7825 16.0576C20.1538 16.0093 20.5297 16.0093 20.9009 16.0576C21.6184 16.1609 22.1273 16.5652 22.3191 17.2806C22.4056 17.6121 22.4492 17.9533 22.449 18.2958C22.459 20.9217 22.4543 23.5476 22.4543 26.1741V26.5931H26.7469C26.7542 26.5012 26.7635 26.4359 26.7635 26.3713C26.7635 23.457 26.7922 20.542 26.7395 17.629C26.7229 16.6885 26.561 15.7339 26.3399 14.8166C25.9728 13.3045 25.0815 12.1821 23.4942 11.8511C22.6919 11.6938 21.8721 11.645 21.0568 11.7058C19.8651 11.7851 18.7473 12.0995 18.2378 13.4058V11.7012H13.9799V26.6011H18.2597ZM7.58507 26.5884H11.8483V11.6938H7.58507V26.5884ZM11.8743 8.49644C11.8743 7.27676 10.9337 6.35218 9.69869 6.35484C8.49966 6.35484 7.56708 7.29675 7.56708 8.50577C7.56708 9.73077 8.49966 10.6653 9.72667 10.6647C10.9537 10.664 11.8783 9.72544 11.8769 8.49644H11.8743Z" fill="#ADADAD"/>
</g>
</g>
</g>
</svg>
