<svg width="18" height="20" viewBox="0 0 18 20" fill="none" xmlns="http://www.w3.org/2000/svg">
<g id="login 1" clip-path="url(#clip0_578_246)">
<g id="Layer 2">
<g id="Layer 1">
<path id="Vector" d="M18 19.4071C17.9923 19.4218 17.986 19.4372 17.9811 19.4531C17.9474 19.6119 17.8593 19.7536 17.7322 19.8534C17.6051 19.9532 17.4472 20.0047 17.2862 19.9989C17.1251 19.993 16.9713 19.9302 16.8516 19.8215C16.732 19.7127 16.6542 19.565 16.6319 19.4042C16.4687 18.3709 16.0939 17.3831 15.5312 16.5037C14.319 14.6216 12.6219 13.433 10.4343 13.0103C6.31132 12.2124 2.30714 14.8931 1.42022 19.0224C1.39268 19.1516 1.37239 19.2823 1.35428 19.4137C1.32839 19.5759 1.24625 19.7236 1.12247 19.8305C0.998683 19.9374 0.841271 19.9967 0.678216 19.9977C0.338374 19.9977 0.0260682 19.7495 0.00288073 19.4181C-0.00199431 19.2325 0.0192299 19.0472 0.0659217 18.8676C0.637879 16.2014 2.08251 14.1619 4.39981 12.749C4.82841 12.4914 5.27927 12.2734 5.74685 12.0977C5.78091 12.0846 5.81497 12.0693 5.84902 12.0554C3.78534 10.7617 2.63756 8.92052 2.60857 6.44926C2.58828 4.61243 3.27521 3.04718 4.58748 1.77688C7.21781 -0.769574 11.4727 -0.552016 13.84 2.2558C15.132 3.78892 15.616 5.57392 15.2747 7.55165C14.9334 9.52939 13.8371 11.0114 12.1241 12.0503C12.156 12.0642 12.1814 12.0758 12.2075 12.0861C14.7827 13.1169 16.5612 14.9384 17.5428 17.5506C17.7159 18.0149 17.8087 18.5099 17.9391 18.991C17.9587 19.064 17.9811 19.1326 18.0022 19.2034L18 19.4071ZM14.0074 6.43758C14.0081 5.43753 13.7145 4.45972 13.1637 3.62776C12.613 2.7958 11.8297 2.14704 10.913 1.76351C9.99635 1.37997 8.98738 1.27888 8.01368 1.473C7.03998 1.66713 6.14527 2.14776 5.44265 2.85414C4.74002 3.56051 4.26105 4.46092 4.06626 5.44152C3.87148 6.42213 3.96963 7.4389 4.34832 8.36331C4.727 9.28772 5.36922 10.0783 6.19377 10.635C7.01833 11.1917 7.9882 11.4896 8.98078 11.4911C9.64024 11.492 10.2934 11.362 10.903 11.1086C11.5126 10.8551 12.0666 10.483 12.5334 10.0137C13.0002 9.54443 13.3707 8.98704 13.6236 8.37343C13.8765 7.75981 14.0069 7.102 14.0074 6.43758Z" fill="white"/>
</g>
</g>
</g>
<defs>
<clipPath id="clip0_578_246">
<rect width="18" height="20" fill="white"/>
</clipPath>
</defs>
</svg>
