<svg width="55" height="38" viewBox="0 0 55 38" fill="none" xmlns="http://www.w3.org/2000/svg">
<path id="Vector" d="M47.9446 21.8983C46.8874 22.9584 45.9042 23.9444 44.921 24.9418C44.8195 25.0586 44.7568 25.204 44.7415 25.3579C44.6047 27.3527 43.7583 28.2989 41.7834 28.6408C41.7323 28.6552 41.6827 28.6743 41.6352 28.6978C41.3502 31.2028 40.2417 32.2629 37.979 32.166C37.902 33.2347 37.5087 34.1609 36.5683 34.7536C35.6279 35.3464 34.6732 35.3606 33.6302 34.973C33.5951 35.0568 33.5647 35.1424 33.539 35.2295C33.0887 37.3726 30.9742 38.3643 29.0364 37.327C27.9563 36.7371 26.8933 36.1187 25.8418 35.4832C25.7848 35.4325 25.7179 35.3943 25.6453 35.3709C25.5728 35.3475 25.4962 35.3394 25.4203 35.3471C25.3445 35.3549 25.2711 35.3784 25.2048 35.416C25.1385 35.4536 25.0808 35.5047 25.0353 35.5658C24.6935 35.901 24.3349 36.2187 23.9609 36.5176C22.1798 37.9967 19.7147 37.2956 18.9738 35.0927C18.9453 35.0101 18.914 34.9274 18.8712 34.8078C17.8538 35.3008 16.8393 35.3777 15.8447 34.8448C15.3849 34.5955 14.9939 34.2363 14.7065 33.7992C14.4191 33.3622 14.2443 32.8608 14.1976 32.3399C13.7102 32.4575 13.2017 32.4566 12.7147 32.3371C12.2278 32.2176 11.7766 31.983 11.3991 31.6531C11.0298 31.3377 10.7357 30.9437 10.5384 30.4999C10.3412 30.0561 10.2458 29.5737 10.2592 29.0883C7.33532 28.866 6.2866 26.1986 7.5576 24.1325L6.33789 23.1921C6.16691 23.4571 6.02727 23.6936 5.87338 23.9159C5.5713 24.3576 5.20938 24.4659 4.73347 24.2009C3.28578 23.403 1.8495 22.5879 0.40751 21.7786C-0.0228063 21.5221 -0.0570036 21.1459 0.0512879 20.6843C1.37358 14.9429 2.68638 9.19967 3.98968 3.45452C4.15781 2.72213 4.32025 1.98689 4.50264 1.25735C4.68502 0.527804 5.24073 0.296972 5.86198 0.775735C8.86754 3.08785 11.8655 5.40282 14.8559 7.72064C15.2748 8.04266 15.3403 8.42168 15.1409 8.96884C16.6256 8.8748 18.0505 8.82065 19.4668 8.68386C21.2565 8.50718 23.0376 8.2051 24.8301 8.07116C25.4969 8.02272 26.1837 8.31054 26.8648 8.41313C27.1163 8.47536 27.3807 8.45945 27.6229 8.36754C28.9794 7.51261 30.3615 7.45561 31.8405 8.03411C32.8807 8.43878 33.9693 8.71806 35.0266 9.08283C36.6624 9.65279 38.2069 9.39346 39.7401 8.58982C39.4779 8.00277 39.7886 7.65224 40.2388 7.30742C43.1209 5.0922 45.9973 2.86367 48.8679 0.621847C49.6944 -0.00510386 50.2102 0.148784 50.441 1.13481C51.9229 7.5734 53.4029 14.0129 54.881 20.4534C54.9522 20.6641 54.9416 20.8939 54.8514 21.0971C54.7611 21.3003 54.5977 21.4622 54.3937 21.5506C53.0144 22.3143 51.6436 23.1009 50.2615 23.8675C49.6573 24.2009 49.341 24.1125 48.9705 23.534C48.6343 23.0239 48.3122 22.5081 47.9446 21.8983ZM26.5713 34.1523C27.6485 34.7707 28.7172 35.4091 29.8086 36.0047C30.1461 36.2031 30.548 36.2609 30.9277 36.1655C31.3074 36.07 31.6342 35.829 31.8377 35.4946C31.9412 35.3309 32.0113 35.1485 32.0441 34.9577C32.0769 34.7669 32.0717 34.5715 32.0288 34.3827C31.986 34.1939 31.9062 34.0155 31.7942 33.8576C31.6821 33.6997 31.54 33.5655 31.376 33.4627C30.883 33.1064 30.3786 32.773 29.8799 32.4282C28.5433 31.4906 27.1954 30.5644 25.8674 29.6126C25.4314 29.2991 25.3658 28.8802 25.6252 28.5155C25.8845 28.1507 26.3006 28.1108 26.748 28.3758C26.8734 28.4499 26.9959 28.5297 27.1185 28.6123L32.3706 32.2487C32.9747 32.6676 33.5647 33.1036 34.1831 33.4997C34.4108 33.6444 34.6757 33.7195 34.9455 33.716C35.2153 33.7125 35.4781 33.6304 35.702 33.4798C35.9342 33.3453 36.1238 33.148 36.2488 32.9105C36.3739 32.673 36.4293 32.4051 36.4087 32.1375C36.3924 31.8799 36.3122 31.6304 36.1754 31.4115C36.0385 31.1926 35.8494 31.0112 35.625 30.8836C33.3167 29.2516 31.0122 27.614 28.7115 25.9706C28.4835 25.8082 28.2042 25.5773 28.1586 25.338C28.113 25.0986 28.2498 24.6255 28.4436 24.5486C28.6035 24.486 28.7749 24.4581 28.9464 24.467C29.1179 24.4758 29.2856 24.5211 29.4382 24.5999C31.1224 25.7398 32.7753 26.9395 34.4367 28.1193C35.4683 28.8546 36.4857 29.6069 37.5287 30.3251C37.8321 30.5406 38.2017 30.6425 38.5727 30.6128C38.9438 30.5831 39.2925 30.4237 39.5577 30.1626C39.816 29.923 39.9835 29.6014 40.0318 29.2524C40.0801 28.9034 40.0062 28.5484 39.8228 28.2476C39.6317 27.9796 39.3943 27.748 39.1217 27.5636C36.3346 25.5536 33.5533 23.5435 30.7776 21.5335C30.2475 21.1516 30.1278 20.7299 30.4156 20.3337C30.7035 19.9376 31.1224 19.9234 31.6724 20.3052C32.2224 20.6871 32.6983 21.0177 33.2027 21.3825L40.6492 26.7828C41.6666 27.5152 43.0145 26.9937 43.1912 25.7882C43.2881 25.1071 42.9632 24.6027 42.436 24.1781C38.7968 21.2286 35.1548 18.2819 31.5499 15.2896C30.9172 14.7681 30.4099 14.4347 29.6633 15.0189C29.5069 15.1152 29.3369 15.1873 29.1589 15.2326C26.5257 16.2101 23.9381 16.3042 21.4075 14.8622C21.104 14.7137 20.8491 14.4816 20.6729 14.1933C20.4967 13.9049 20.4064 13.5723 20.4127 13.2344C20.419 12.8966 20.5216 12.5675 20.7084 12.2859C20.8952 12.0043 21.1585 11.7819 21.4674 11.6448C22.3223 11.2031 23.1516 10.7528 23.9923 10.3054L25.1806 9.68413C25.1334 9.64696 25.0791 9.61981 25.021 9.60434C24.9628 9.59151 24.9025 9.59151 24.8443 9.60434C21.4299 10.1176 17.9859 10.4098 14.5338 10.4792C14.3907 10.4803 14.2511 10.5235 14.1324 10.6036C14.0138 10.6837 13.9214 10.7971 13.867 10.9295C11.7012 14.4518 9.53534 17.9722 7.36951 21.4908C7.29827 21.6104 7.22702 21.7358 7.14723 21.8783C7.569 22.2003 7.97936 22.4825 8.34983 22.8074C8.63481 23.0496 8.80295 22.9954 9.04518 22.7675C9.54104 22.3029 10.054 21.8527 10.5812 21.4224C10.9645 21.0968 11.4219 20.8703 11.9131 20.7626C12.4043 20.6549 12.9145 20.6693 13.3989 20.8046C13.8832 20.9399 14.327 21.1919 14.6913 21.5386C15.0557 21.8853 15.3294 22.316 15.4885 22.7931C15.5341 22.9213 15.5883 23.0467 15.6424 23.1778C17.5204 22.055 20.3046 23.0667 20.5041 26.0276C22.5588 26.1843 23.6389 27.3157 23.7985 29.3447C26.0783 29.396 27.8594 31.5505 26.5685 34.1637L26.5713 34.1523ZM40.6121 9.96911C40.5523 9.96911 40.4896 9.98906 40.4298 10.0033C40.3101 10.0518 40.1904 10.0974 40.0735 10.1515C39.1296 10.6109 38.0996 10.8666 37.0504 10.902C36.0012 10.9373 34.9563 10.7515 33.9836 10.3567C32.9064 9.94916 31.7892 9.63854 30.6892 9.28802C30.4114 9.18906 30.116 9.14861 29.8218 9.16921C29.5275 9.18981 29.2407 9.271 28.9794 9.40771C26.7394 10.5818 24.5024 11.7645 22.2681 12.9557C21.8293 13.1894 21.8264 13.3404 22.2681 13.5883C23.3875 14.2419 24.6812 14.5344 25.9728 14.4262C27.4402 14.2909 28.8589 13.8294 30.125 13.0754C30.3038 12.9458 30.5217 12.8816 30.7422 12.8936C30.9626 12.9055 31.1723 12.9928 31.3361 13.1409C35.588 16.6176 39.8427 20.0801 44.0404 23.5027L47.0868 20.462L40.6121 9.96911ZM5.77934 2.62809C5.70809 2.87317 5.65965 3.04986 5.61975 3.22084C5.19228 5.0827 4.76577 6.94265 4.3402 8.8007C3.46627 12.6194 2.59424 16.4457 1.72411 20.2796C1.68991 20.4392 1.72411 20.727 1.81815 20.7869C2.83552 21.3939 3.87569 21.9638 4.93295 22.5566L13.5051 8.60977L5.77934 2.62809ZM49.1501 2.34311L41.4129 8.32764L49.9851 22.283C50.9768 21.713 51.9258 21.1773 52.8918 20.6586C52.9588 20.636 53.0203 20.5998 53.0726 20.5523C53.1249 20.5047 53.1668 20.4469 53.1957 20.3824C53.2246 20.318 53.2399 20.2482 53.2405 20.1775C53.2412 20.1069 53.2273 20.0368 53.1996 19.9718C52.5755 17.35 51.9885 14.7197 51.3872 12.0922L49.1501 2.34311ZM13.6419 30.9036C13.9518 30.7905 14.2451 30.6361 14.5139 30.4447C15.8134 29.3476 17.0986 28.2077 18.3554 27.0678C18.5224 26.9365 18.6598 26.7713 18.7585 26.5832C18.8572 26.3951 18.9151 26.1883 18.9282 25.9762C18.9414 25.7642 18.9097 25.5518 18.835 25.3529C18.7603 25.154 18.6445 24.9731 18.495 24.8221C18.3603 24.6592 18.1937 24.5257 18.0054 24.4296C17.8171 24.3336 17.6111 24.2772 17.4002 24.2639C17.1893 24.2505 16.9778 24.2805 16.7789 24.352C16.58 24.4235 16.3979 24.535 16.2437 24.6797C14.9243 25.8196 13.6219 26.9794 12.3253 28.145C12.0826 28.3484 11.9136 28.626 11.8441 28.9349C11.7745 29.2439 11.8084 29.5671 11.9406 29.8548C12.0889 30.1781 12.3296 30.4502 12.6324 30.6368C12.9352 30.8235 13.2864 30.9163 13.6419 30.9036ZM15.6367 32.0891C15.765 32.7787 16.0528 33.2518 16.6056 33.514C16.8628 33.6566 17.1578 33.7162 17.4501 33.6846C17.7425 33.6529 18.0179 33.5316 18.2386 33.3373C19.4212 32.3199 20.5982 31.294 21.7495 30.2424C22.0398 29.9654 22.2104 29.5859 22.2249 29.1849C22.2395 28.7839 22.0968 28.3931 21.8273 28.0958C21.5579 27.7984 21.1829 27.6181 20.7824 27.5932C20.3819 27.5683 19.9876 27.7009 19.6834 27.9626C18.5235 28.9771 17.3637 29.9916 16.2437 31.0575C15.9587 31.3054 15.8305 31.7357 15.631 32.0891H15.6367ZM8.46383 25.8509C8.48642 26.1613 8.58915 26.4604 8.76198 26.7192C8.93481 26.9779 9.17182 27.1874 9.44985 27.3271C9.71946 27.4734 10.0287 27.5298 10.3326 27.4883C10.6365 27.4468 10.9193 27.3095 11.1398 27.0963C11.932 26.4123 12.7157 25.7198 13.4994 25.0245C14.2346 24.3776 14.3372 23.4657 13.7587 22.7817C13.1802 22.0978 12.2341 22.0151 11.4646 22.6763C10.6952 23.3374 9.84027 24.0584 9.07938 24.7993C8.8001 25.0729 8.66331 25.4975 8.46383 25.8509ZM20.279 34.1523C20.2969 34.4526 20.3914 34.7434 20.5535 34.9968C20.7156 35.2502 20.94 35.4579 21.2052 35.6C21.4625 35.7488 21.7599 35.8135 22.0558 35.7848C22.3517 35.7562 22.6312 35.6358 22.8552 35.4404C23.6047 34.8192 24.3371 34.178 25.041 33.5111C25.3072 33.2332 25.4584 32.8648 25.4643 32.48C25.4702 32.0952 25.3304 31.7224 25.0729 31.4364C24.8154 31.1504 24.4592 30.9724 24.0759 30.938C23.6926 30.9037 23.3105 31.0156 23.0062 31.2512C22.2767 31.8668 21.55 32.488 20.8717 33.1549C20.6314 33.46 20.4321 33.7953 20.279 34.1523Z" fill="#282563"/>
</svg>
