<svg width="35" height="34" viewBox="0 0 35 34" fill="none" xmlns="http://www.w3.org/2000/svg">
<g id="whatsapp 2">
<g id="Layer 2">
<g id="Layer 1">
<path id="Vector" d="M17.1701 34C7.63688 33.9706 0.0861156 26.1903 0.189277 16.8006C0.293254 7.50382 7.9325 -0.108515 17.3985 0.00117067C26.6092 0.110041 34.2815 7.62615 34.1828 17.1843C34.087 26.5194 26.5138 33.9894 17.1701 34ZM6.33207 27.9322C6.45725 27.8984 6.52902 27.8821 6.59874 27.8596C8.37573 27.2888 10.1531 26.7237 11.9277 26.1471C12.0213 26.1126 12.1212 26.0989 12.2207 26.107C12.3201 26.115 12.4165 26.1445 12.5034 26.1936C14.7354 27.3447 17.0919 27.6717 19.5437 27.1526C23.2836 26.3608 25.8129 24.0871 27.3048 20.6253C28.0274 18.9482 28.1811 17.1798 27.9352 15.3722C27.7477 13.992 27.3799 12.6656 26.6638 11.4684C24.7711 8.30465 21.9963 6.47139 18.3098 6.11257C15.8449 5.87281 13.5318 6.42083 11.5003 7.83736C8.04056 10.2484 6.4442 13.5895 6.78916 17.8163C6.91149 19.2997 7.3751 20.6832 8.11191 21.9754C8.16056 22.0514 8.1906 22.1379 8.1996 22.2277C8.20859 22.3175 8.1963 22.4082 8.1637 22.4924C7.66787 23.9432 7.18142 25.3976 6.69253 26.8509C6.57591 27.195 6.46214 27.5412 6.33207 27.9322Z" fill="#ADADAD"/>
<path id="Vector_2" d="M9.11576 25.182C9.25807 24.7568 9.38732 24.3665 9.51903 23.9771C9.72535 23.3655 9.92923 22.7539 10.1429 22.1475C10.1713 22.0795 10.1811 22.0052 10.1712 21.9321C10.1613 21.8591 10.1321 21.79 10.0866 21.732C9.23605 20.5088 8.70842 19.1542 8.57794 17.6737C8.29577 14.5107 9.3702 11.8718 11.8159 9.84483C13.6129 8.35653 15.7161 7.72043 18.0513 7.88761C22.1121 8.1763 25.5054 11.3099 26.1248 15.3401C26.8363 20.0015 23.8658 24.3604 19.257 25.3688C16.9458 25.8744 14.7648 25.4911 12.7415 24.2568C12.5694 24.1521 12.4206 24.1304 12.2273 24.1941C11.2675 24.5109 10.3035 24.8138 9.34043 25.1209C9.27886 25.1409 9.21525 25.1551 9.11576 25.182ZM22.9166 19.7129C22.9647 19.5228 22.8485 19.3866 22.6629 19.2892C21.9465 18.9169 21.2317 18.5414 20.5116 18.1764C20.2307 18.0345 20.1186 18.0696 19.909 18.3094C19.6272 18.6315 19.3475 18.9552 19.0633 19.2749C18.8619 19.502 18.7685 19.5167 18.4924 19.3972C16.943 18.7192 15.774 17.6284 14.9523 16.1568C14.7444 15.7846 14.7595 15.7307 15.0502 15.4135C15.2647 15.179 15.4649 14.9307 15.6569 14.6771C15.798 14.4912 15.8033 14.2824 15.7173 14.0602C15.482 13.453 15.2602 12.8406 15.0278 12.2326C14.9702 12.0662 14.8954 11.9061 14.8047 11.7551C14.7476 11.6675 14.6384 11.5741 14.5413 11.5594C14.2742 11.5187 13.9974 11.4856 13.7315 11.5146C13.5314 11.541 13.3419 11.6204 13.1827 11.7445C12.7566 12.0767 12.433 12.5225 12.2493 13.0306C11.8889 14.0165 12.0165 14.9739 12.4765 15.8881C13.1422 17.2218 14.024 18.4362 15.0861 19.4821C15.8698 20.2523 16.746 20.8794 17.7772 21.2794C18.275 21.4741 18.7732 21.6694 19.2721 21.8654C19.849 22.0941 20.4431 22.1288 21.0279 21.9404C22.4468 21.4829 22.8171 20.8978 22.9166 19.7129Z" fill="#ADADAD"/>
</g>
</g>
</g>
</svg>
