<svg width="35" height="34" viewBox="0 0 35 34" fill="none" xmlns="http://www.w3.org/2000/svg">
<g id="youtube 2">
<g id="Layer 2">
<g id="Layer 1">
<path id="Vector" d="M16.0895 0H18.3215C18.4056 0.018627 18.4897 0.0409793 18.5749 0.0532199C19.4551 0.192656 20.3503 0.271954 21.2146 0.478979C25.073 1.40873 28.2023 3.49123 30.6467 6.59927C32.5094 8.97128 33.6398 11.6679 34.0496 14.6605C34.1076 15.0863 34.1561 15.5157 34.2125 15.9431V18.0687C34.1932 18.1166 34.1781 18.1661 34.1672 18.2167C34.1007 18.7787 34.0645 19.3454 33.9671 19.9011C33.4147 23.0591 32.1076 25.8691 29.9453 28.2406C25.7313 32.8622 20.4865 34.7127 14.3231 33.7547C10.1038 33.0985 6.63124 30.9979 3.97875 27.6658C0.312965 23.0607 -0.66096 17.8548 0.891998 12.2007C1.79141 8.93563 3.63708 6.2427 6.20122 4.04791C8.69546 1.91272 11.5729 0.617706 14.8335 0.162853C15.2518 0.10644 15.6685 0.0532199 16.0895 0ZM16.4237 10.917C14.6839 11.0123 12.8824 11.1049 11.082 11.2124C10.2337 11.2629 9.51895 11.6046 9.14322 12.3917C8.93566 12.8271 8.82869 13.3279 8.76482 13.8106C8.58054 15.2511 8.52817 16.7054 8.60836 18.1554C8.65531 19.1251 8.76195 20.0909 8.92768 21.0474C9.08095 21.9176 9.64881 22.5009 10.5243 22.6972C11.0422 22.809 11.5686 22.8763 12.098 22.8984C13.5206 22.9665 14.9442 23.032 16.3684 23.0448C18.7217 23.066 21.0757 23.0586 23.4195 22.8005C24.5829 22.6722 25.2965 22.0708 25.495 20.9165C25.6547 19.9969 25.7297 19.0602 25.7819 18.1272C25.8797 16.5105 25.8037 14.8879 25.5552 13.2874C25.3503 12.0027 24.4828 11.3369 23.5105 11.2565C22.9032 11.2065 22.2976 11.1251 21.6898 11.0969C19.9559 11.0272 18.2231 10.9771 16.4237 10.917Z" fill="#ADADAD"/>
<path id="Vector_2" d="M15.5237 14.4641L19.9282 17.0187L15.5237 19.5413V14.4641Z" fill="#ADADAD"/>
</g>
</g>
</g>
</svg>
