<svg width="133" height="92" viewBox="0 0 133 92" fill="none" xmlns="http://www.w3.org/2000/svg">
<g id="Group 455">
<g id="facebook 1">
<g id="Layer 2">
<g id="Layer 1">
<path id="Vector" d="M16.5197 0H17.6737C17.7118 0.00753933 17.7503 0.0130423 17.7891 0.0164854C18.9771 0.0572945 20.157 0.227973 21.3079 0.525474C24.9108 1.4602 27.9124 3.35767 30.2805 6.22697C32.6186 9.0604 33.9011 12.3266 34.1505 15.9946C34.1624 16.1714 34.176 16.3482 34.1888 16.5246V17.6786C34.183 17.7198 34.174 17.761 34.1723 17.8022C34.1231 19.1662 33.9056 20.5189 33.5248 21.8296C32.5599 25.1432 30.7645 27.9184 28.1386 30.1552C25.8632 32.0922 23.2486 33.3332 20.3167 33.9056C20.1374 33.9407 19.9569 33.9687 19.7747 34V22.0493H22.2476C22.7174 22.0493 23.1876 22.0493 23.6575 22.0493C23.7222 22.0493 23.756 22.0419 23.7667 21.9615C23.8133 21.6203 23.871 21.2811 23.9233 20.9406C24.0057 20.4073 24.0873 19.8739 24.1681 19.3403C24.2428 18.8529 24.3177 18.3652 24.3927 17.8772C24.4315 17.6221 24.4702 17.367 24.511 17.0999H19.7673V17.0175C19.7673 15.9806 19.762 14.9436 19.771 13.9071C19.774 13.644 19.8026 13.3817 19.8563 13.1241C20.0059 12.4049 20.3921 11.8534 21.0635 11.5258C21.5436 11.2913 22.06 11.2278 22.5863 11.2249C23.2519 11.2208 23.9179 11.2249 24.584 11.2249H24.7113V9.52859C24.7113 8.72712 24.7113 7.92552 24.7113 7.12377C24.7113 7.05989 24.7142 7.00549 24.6289 6.99478C24.4249 6.96881 24.2221 6.93007 24.0177 6.90864C23.4275 6.84641 22.8377 6.7817 22.2455 6.73307C21.5395 6.67537 20.8323 6.65064 20.1234 6.71081C19.4145 6.77099 18.7135 6.91688 18.0471 7.18518C16.7913 7.69252 15.8388 8.53905 15.2107 9.74372C14.6774 10.7666 14.4508 11.8679 14.4318 13.0091C14.41 14.3304 14.426 15.6525 14.4256 16.9747V17.1086H10.0928V22.0542H14.4203V33.9934C14.4001 33.9934 14.38 33.992 14.3601 33.9893C13.7592 33.8586 13.1505 33.7564 12.5591 33.592C9.18243 32.6527 6.34611 30.8488 4.07853 28.1773C1.59953 25.259 0.259266 21.8721 0.0309423 18.0516C-0.0752965 16.3164 0.0924378 14.5754 0.527979 12.8924C1.45982 9.28667 3.35688 6.28219 6.2237 3.91241C9.05631 1.57189 12.3233 0.288495 15.9889 0.0383287C16.1657 0.0263767 16.3429 0.0127762 16.5197 0Z" fill="#ADADAD"/>
</g>
</g>
</g>
<g id="x 1">
<g id="Group">
<path id="Vector_2" d="M66.1887 34C75.5776 34 83.1887 26.3888 83.1887 17C83.1887 7.61116 75.5776 0 66.1887 0C56.7999 0 49.1887 7.61116 49.1887 17C49.1887 26.3888 56.7999 34 66.1887 34Z" fill="#ADADAD"/>
<g id="layer1">
<path id="path1009" d="M55.7167 7.15088L63.8425 18.0156L55.6655 26.8492H57.506L64.6651 19.1151L70.4493 26.8492H76.712L68.1288 15.3734L75.74 7.15088H73.8996L67.3066 14.2736L61.9795 7.15088H55.7167ZM58.4232 8.50641H61.3003L74.0052 25.4937H71.1281L58.4232 8.50641Z" fill="#2F3053"/>
</g>
</g>
</g>
<g id="linkedin 1">
<g id="Layer 2_2">
<g id="Layer 1_2">
<path id="Vector_3" d="M114.703 0H115.636C115.808 0.0279773 115.979 0.0666126 116.152 0.0832658C116.832 0.159204 117.521 0.183185 118.191 0.310415C122.327 1.09578 125.745 3.11614 128.396 6.39481C130.486 8.97805 131.701 11.9288 132.042 15.247C132.086 15.6833 132.139 16.1196 132.188 16.5559V17.4885C132.162 17.6164 132.126 17.7436 132.11 17.8728C132.017 18.6509 131.976 19.4389 131.83 20.2043C130.996 24.5221 128.808 28.0233 125.284 30.6365C121.31 33.5801 116.843 34.5813 111.98 33.6807C107.96 32.9359 104.652 30.9282 102.055 27.7861C99.899 25.1796 98.6494 22.1767 98.291 18.8027C98.0847 16.9641 98.191 15.1037 98.6054 13.3005C99.6925 8.65165 102.284 5.06256 106.326 2.53128C108.454 1.2008 110.862 0.384934 113.359 0.148546C113.808 0.103916 114.255 0.0499595 114.703 0ZM116.26 26.6011V26.1281C116.26 23.5462 116.26 20.9645 116.26 18.3831C116.26 18.0845 116.282 17.7864 116.326 17.4911C116.378 17.1254 116.548 16.7868 116.812 16.5277C117.075 16.2686 117.416 16.1034 117.783 16.0576C118.154 16.0093 118.53 16.0093 118.901 16.0576C119.618 16.1609 120.127 16.5652 120.319 17.2806C120.406 17.6121 120.449 17.9533 120.449 18.2958C120.459 20.9217 120.454 23.5476 120.454 26.1741V26.5931H124.747C124.754 26.5012 124.764 26.4359 124.764 26.3713C124.764 23.457 124.792 20.542 124.74 17.629C124.723 16.6885 124.561 15.7339 124.34 14.8166C123.973 13.3045 123.082 12.1821 121.494 11.8511C120.692 11.6938 119.872 11.645 119.057 11.7058C117.865 11.7851 116.747 12.0995 116.238 13.4058V11.7012H111.98V26.6011H116.26ZM105.585 26.5884H109.848V11.6938H105.585V26.5884ZM109.874 8.49644C109.874 7.27676 108.934 6.35218 107.699 6.35484C106.5 6.35484 105.567 7.29675 105.567 8.50577C105.567 9.73077 106.5 10.6653 107.727 10.6647C108.954 10.664 109.878 9.72544 109.877 8.49644H109.874Z" fill="#ADADAD"/>
</g>
</g>
</g>
<g id="whatsapp 2">
<g id="Layer 2_3">
<g id="Layer 1_3">
<path id="Vector_4" d="M16.9819 92C7.44865 91.9706 -0.102117 84.1903 0.00104457 74.8006C0.105022 65.5038 7.74427 57.8915 17.2102 58.0012C26.421 58.11 34.0933 65.6261 33.9946 75.1843C33.8988 84.5194 26.3256 91.9894 16.9819 92ZM6.14384 85.9322C6.26902 85.8984 6.34078 85.8821 6.41051 85.8596C8.1875 85.2888 9.96489 84.7237 11.7394 84.1471C11.833 84.1126 11.933 84.0989 12.0324 84.107C12.1318 84.115 12.2283 84.1445 12.3152 84.1936C14.5472 85.3447 16.9036 85.6717 19.3554 85.1526C23.0953 84.3608 25.6246 82.0871 27.1166 78.6253C27.8391 76.9482 27.9929 75.1798 27.747 73.3722C27.5594 71.992 27.1916 70.6656 26.4756 69.4684C24.5828 66.3046 21.8081 64.4714 18.1216 64.1126C15.6567 63.8728 13.3435 64.4208 11.3121 65.8374C7.85232 68.2484 6.25597 71.5895 6.60093 75.8163C6.72326 77.2997 7.18687 78.6832 7.92368 79.9754C7.97233 80.0514 8.00237 80.1379 8.01136 80.2277C8.02036 80.3175 8.00806 80.4082 7.97547 80.4924C7.47964 81.9432 6.99319 83.3976 6.50429 84.8509C6.38768 85.195 6.27391 85.5412 6.14384 85.9322Z" fill="#ADADAD"/>
<path id="Vector_5" d="M8.92753 83.1818C9.06983 82.7565 9.19909 82.3663 9.3308 81.9769C9.53712 81.3653 9.741 80.7536 9.95466 80.1473C9.98309 80.0793 9.99286 80.0049 9.98297 79.9319C9.97308 79.8589 9.94388 79.7898 9.89839 79.7318C9.04782 78.5085 8.52018 77.154 8.3897 75.6734C8.10754 72.5105 9.18197 69.8715 11.6277 67.8446C13.4246 66.3563 15.5278 65.7202 17.863 65.8874C21.9238 66.1761 25.3172 69.3096 25.9365 73.3399C26.6481 78.0013 23.6776 82.3602 19.0687 83.3685C16.7576 83.8742 14.5765 83.4909 12.5533 82.2566C12.3812 82.1518 12.2324 82.1302 12.0391 82.1938C11.0792 82.5106 10.1153 82.8136 9.1522 83.1206C9.09063 83.1406 9.02702 83.1549 8.92753 83.1818ZM22.7283 77.7126C22.7764 77.5226 22.6602 77.3864 22.4747 77.289C21.7583 76.9167 21.0435 76.5411 20.3234 76.1762C20.0425 76.0343 19.9303 76.0694 19.7207 76.3091C19.439 76.6312 19.1593 76.955 18.8751 77.2747C18.6736 77.5018 18.5803 77.5165 18.3042 77.397C16.7548 76.7189 15.5857 75.6282 14.7641 74.1566C14.5561 73.7843 14.5712 73.7305 14.862 73.4133C15.0764 73.1788 15.2766 72.9305 15.4687 72.6769C15.6098 72.4909 15.6151 72.2822 15.529 72.0599C15.2938 71.4528 15.072 70.8403 14.8395 70.2324C14.782 70.0659 14.7072 69.9059 14.6165 69.7549C14.5594 69.6672 14.4501 69.5739 14.3531 69.5592C14.086 69.5184 13.8091 69.4854 13.5433 69.5143C13.3431 69.5407 13.1536 69.6201 12.9945 69.7443C12.5684 70.0765 12.2448 70.5223 12.0611 71.0304C11.7007 72.0163 11.8283 72.9737 12.2882 73.8879C12.954 75.2216 13.8358 76.4359 14.8978 77.4818C15.6815 78.2521 16.5578 78.8792 17.589 79.2792C18.0867 79.4738 18.585 79.6691 19.0838 79.8651C19.6608 80.0939 20.2549 80.1285 20.8396 79.9402C22.2586 79.4827 22.6288 78.8975 22.7283 77.7126Z" fill="#ADADAD"/>
</g>
</g>
</g>
<g id="Insta 1">
<g id="Layer 2_4">
<g id="Layer 1_4">
<path id="Vector_6" d="M65.9956 92C56.6106 92.0022 48.9978 84.3907 48.9956 75.0019C48.9934 65.6131 56.6103 57.9972 66.0085 58C75.3838 58.0028 82.99 65.6166 82.9928 74.9984C82.994 84.385 75.3838 91.9975 65.9956 92ZM65.9793 85.2492C66.9731 85.2492 67.9672 85.2595 68.9612 85.246C69.8759 85.2335 70.7941 85.2284 71.6921 85.0282C74.0042 84.5137 75.4509 83.1087 75.9993 80.7976C76.2247 79.8487 76.2319 78.8781 76.2382 77.9113C76.2507 75.9552 76.2507 73.9986 76.2382 72.0416C76.2325 71.1112 76.2237 70.1774 76.0216 69.2624C75.5376 67.0724 74.2384 65.6379 72.0641 65.0227C71.1852 64.7738 70.279 64.7311 69.3753 64.7248C67.1056 64.7095 64.8358 64.7095 62.5657 64.7248C61.781 64.7292 60.9963 64.7643 60.2266 64.9386C58.0922 65.4223 56.6731 66.6863 56.0415 68.7994C55.7753 69.6909 55.7276 70.6124 55.7207 71.5325C55.7056 73.8287 55.7056 76.1249 55.7207 78.4211C55.7251 79.1942 55.7603 79.9698 55.9338 80.7288C56.4574 83.0202 57.8536 84.4531 60.1437 85.0015C61.082 85.2262 62.0415 85.2309 62.9976 85.2451C63.9914 85.2605 64.9855 85.2492 65.9793 85.2492Z" fill="#ADADAD"/>
<path id="Vector_7" d="M57.5059 74.9858C57.5372 73.5532 57.5592 72.1203 57.6 70.6877C57.6185 70.0421 57.7256 69.4071 57.9836 68.8088C58.4682 67.6869 59.3333 67.0118 60.5136 66.7704C61.1031 66.6541 61.7019 66.5904 62.3027 66.5802C63.8138 66.5444 65.3258 66.5372 66.8372 66.5409C67.9823 66.5434 69.1286 66.5698 70.2721 66.6059C71.0411 66.6301 71.7932 66.7679 72.4753 67.1464C73.4201 67.6709 73.9622 68.4962 74.2017 69.5361C74.3433 70.1519 74.3816 70.7794 74.3841 71.4062C74.3945 73.7918 74.3945 76.1768 74.3841 78.5614C74.3809 79.2403 74.343 79.9215 74.1625 80.5831C73.7544 82.0779 72.7666 82.9521 71.2621 83.2327C70.7274 83.3311 70.1849 83.3819 69.6412 83.3846C67.1987 83.4005 64.7563 83.4015 62.314 83.3874C61.6611 83.3846 61.0067 83.3413 60.3707 83.1677C58.8904 82.7628 58.0232 81.7866 57.7262 80.2956C57.5256 79.2912 57.5573 78.2654 57.5379 77.2465C57.5241 76.4931 57.5351 75.7398 57.5351 74.9865L57.5059 74.9858ZM60.6997 74.9686C60.6969 77.8846 63.0441 80.251 65.947 80.2595C68.8765 80.2677 71.2464 77.916 71.2518 74.994C71.2539 74.2983 71.1183 73.609 70.8529 72.966C70.5874 72.3229 70.1974 71.7387 69.7051 71.247C69.2129 70.7554 68.6283 70.366 67.9849 70.1012C67.3415 69.8365 66.6521 69.7017 65.9564 69.7046C63.058 69.7081 60.7038 72.0657 60.6997 74.9686ZM71.4555 70.7311C71.6179 70.7309 71.7787 70.6987 71.9286 70.6364C72.0786 70.5741 72.2148 70.4828 72.3295 70.3678C72.4442 70.2528 72.5351 70.1163 72.597 69.9662C72.6589 69.816 72.6906 69.6552 72.6903 69.4928C72.6903 68.8229 72.1319 68.2686 71.4577 68.2686C71.2943 68.2658 71.132 68.2956 70.9802 68.3562C70.8285 68.4168 70.6903 68.507 70.5737 68.6215C70.4572 68.736 70.3646 68.8726 70.3013 69.0232C70.238 69.1739 70.2054 69.3356 70.2052 69.499C70.2051 69.6624 70.2375 69.8242 70.3005 69.975C70.3635 70.1258 70.4558 70.2625 70.5722 70.3772C70.6885 70.4919 70.8266 70.5824 70.9782 70.6432C71.1298 70.7041 71.2921 70.7341 71.4555 70.7317V70.7311Z" fill="#ADADAD"/>
<path id="Vector_8" d="M62.5359 74.9787C62.5397 73.0781 64.0925 71.5309 65.9856 71.5416C67.8843 71.5522 69.4151 73.0906 69.4104 74.9837C69.4109 75.4357 69.322 75.8834 69.1489 76.301C68.9757 76.7186 68.7217 77.0978 68.4015 77.4169C68.0812 77.7359 67.701 77.9885 67.2828 78.1601C66.8646 78.3317 66.4166 78.4189 65.9645 78.4167C64.0671 78.4092 62.5318 76.8702 62.5359 74.9787Z" fill="#ADADAD"/>
</g>
</g>
</g>
<g id="youtube 2">
<g id="Layer 2_5">
<g id="Layer 1_5">
<path id="Vector_9" d="M113.901 58H116.133C116.217 58.0186 116.301 58.041 116.387 58.0532C117.267 58.1927 118.162 58.272 119.026 58.479C122.885 59.4087 126.014 61.4912 128.458 64.5993C130.321 66.9713 131.452 69.6679 131.861 72.6605C131.919 73.0863 131.968 73.5157 132.024 73.9431V76.0687C132.005 76.1166 131.99 76.1661 131.979 76.2167C131.912 76.7787 131.876 77.3454 131.779 77.9011C131.226 81.0591 129.919 83.8691 127.757 86.2406C123.543 90.8622 118.298 92.7127 112.135 91.7547C107.916 91.0985 104.443 88.9979 101.791 85.6658C98.1247 81.0607 97.1508 75.8548 98.7038 70.2007C99.6032 66.9356 101.449 64.2427 104.013 62.0479C106.507 59.9127 109.385 58.6177 112.645 58.1629C113.064 58.1064 113.48 58.0532 113.901 58ZM114.235 68.917C112.496 69.0123 110.694 69.1049 108.894 69.2124C108.045 69.2629 107.331 69.6046 106.955 70.3917C106.747 70.8271 106.64 71.3279 106.577 71.8106C106.392 73.2511 106.34 74.7054 106.42 76.1554C106.467 77.1251 106.574 78.0909 106.739 79.0474C106.893 79.9176 107.461 80.5009 108.336 80.6972C108.854 80.809 109.38 80.8763 109.91 80.8984C111.332 80.9665 112.756 81.032 114.18 81.0448C116.534 81.066 118.887 81.0586 121.231 80.8005C122.395 80.6722 123.108 80.0708 123.307 78.9165C123.466 77.9969 123.542 77.0602 123.594 76.1272C123.691 74.5105 123.615 72.8879 123.367 71.2874C123.162 70.0027 122.295 69.3369 121.322 69.2565C120.715 69.2065 120.109 69.1251 119.502 69.0969C117.768 69.0272 116.035 68.9771 114.235 68.917Z" fill="#ADADAD"/>
<path id="Vector_10" d="M113.335 72.4644L117.74 75.0189L113.335 77.5415V72.4644Z" fill="#ADADAD"/>
</g>
</g>
</g>
</g>
</svg>
