<svg width="56" height="38" viewBox="0 0 56 38" fill="none" xmlns="http://www.w3.org/2000/svg">
<path id="Vector" d="M48.2205 22.0313C47.1572 23.0975 46.1684 24.0891 45.1796 25.0923C45.0775 25.2097 45.0144 25.3559 44.999 25.5107C44.8614 27.517 44.0102 28.4686 42.024 28.8125C41.9726 28.827 41.9227 28.8461 41.8749 28.8698C41.5883 31.3892 40.4734 32.4553 38.1977 32.3579C38.1203 33.4327 37.7248 34.3642 36.7789 34.9603C35.8331 35.5565 34.873 35.5708 33.824 35.181C33.7887 35.2653 33.7581 35.3514 33.7323 35.439C33.2794 37.5943 31.1527 38.5917 29.2038 37.5485C28.1175 36.9552 27.0485 36.3332 25.9909 35.6941C25.9335 35.6431 25.8663 35.6047 25.7933 35.5811C25.7204 35.5576 25.6433 35.5495 25.567 35.5573C25.4908 35.5651 25.4169 35.5887 25.3503 35.6265C25.2836 35.6644 25.2255 35.7157 25.1797 35.7772C24.836 36.1143 24.4753 36.4338 24.0992 36.7345C22.3079 38.222 19.8287 37.5169 19.0835 35.3014C19.0548 35.2183 19.0233 35.1352 18.9803 35.0148C17.9571 35.5106 16.9368 35.588 15.9365 35.0521C15.474 34.8013 15.0808 34.44 14.7917 34.0005C14.5027 33.5609 14.3269 33.0567 14.2799 32.5327C13.7897 32.6511 13.2783 32.6501 12.7885 32.5299C12.2988 32.4097 11.845 32.1738 11.4653 31.842C11.0939 31.5248 10.7981 31.1285 10.5998 30.6822C10.4014 30.2358 10.3054 29.7507 10.3189 29.2625C7.37825 29.0389 6.32352 26.3562 7.60181 24.2783L6.37511 23.3325C6.20314 23.599 6.0627 23.8369 5.90793 24.0605C5.60412 24.5047 5.24012 24.6136 4.76148 24.3471C3.30549 23.5446 1.86097 22.7249 0.410707 21.9109C-0.0220778 21.6529 -0.0564712 21.2746 0.0524415 20.8103C1.38232 15.036 2.70265 9.25981 4.01342 3.48171C4.18253 2.74512 4.34589 2.00566 4.52933 1.27193C4.71276 0.538201 5.27165 0.306045 5.89647 0.787554C8.91927 3.11294 11.9344 5.44118 14.942 7.7723C15.3633 8.09617 15.4292 8.47736 15.2286 9.02766C16.7218 8.93308 18.1549 8.87862 19.5793 8.74105C21.3793 8.56335 23.1706 8.25954 24.9734 8.12483C25.6441 8.07611 26.3348 8.36558 27.0198 8.46876C27.2727 8.53135 27.5386 8.51535 27.7822 8.42291C29.1465 7.56307 30.5365 7.50575 32.024 8.08757C33.0702 8.49456 34.165 8.77544 35.2284 9.1423C36.8735 9.71553 38.427 9.45471 39.9689 8.64646C39.7053 8.05604 40.0177 7.70351 40.4705 7.35671C43.3691 5.12878 46.262 2.88747 49.1491 0.632783C49.9803 0.00223583 50.4991 0.157007 50.7312 1.14869C52.2216 7.62421 53.7101 14.1007 55.1967 20.5781C55.2683 20.79 55.2577 21.0211 55.1669 21.2255C55.0761 21.4299 54.9118 21.5927 54.7065 21.6816C53.3193 22.4497 51.9407 23.2408 50.5507 24.0117C49.9431 24.3471 49.6249 24.2582 49.2523 23.6764C48.9141 23.1634 48.5902 22.6446 48.2205 22.0313ZM26.7246 34.3556C27.808 34.9775 28.8828 35.6195 29.9805 36.2186C30.3199 36.4182 30.7241 36.4763 31.106 36.3803C31.4878 36.2843 31.8166 36.0419 32.0212 35.7055C32.1253 35.541 32.1958 35.3575 32.2288 35.1656C32.2618 34.9737 32.2566 34.7772 32.2134 34.5873C32.1703 34.3975 32.0901 34.218 31.9774 34.0592C31.8647 33.9004 31.7218 33.7654 31.5569 33.662C31.061 33.3037 30.5537 32.9684 30.0522 32.6216C28.7079 31.6786 27.3523 30.7471 26.0167 29.7899C25.5781 29.4746 25.5122 29.0533 25.773 28.6864C26.0338 28.3195 26.4523 28.2794 26.9023 28.546C27.0284 28.6205 27.1516 28.7007 27.2749 28.7838L32.5571 32.441C33.1648 32.8623 33.758 33.3009 34.38 33.6992C34.609 33.8447 34.8755 33.9203 35.1468 33.9168C35.4181 33.9132 35.6825 33.8307 35.9076 33.6792C36.1412 33.5439 36.3319 33.3455 36.4576 33.1067C36.5834 32.8678 36.6391 32.5984 36.6184 32.3292C36.602 32.0702 36.5213 31.8192 36.3837 31.5991C36.2461 31.3789 36.0559 31.1965 35.8303 31.0681C33.5087 29.4268 31.191 27.7797 28.877 26.127C28.6478 25.9636 28.3669 25.7314 28.321 25.4907C28.2752 25.2499 28.4127 24.7741 28.6076 24.6968C28.7684 24.6338 28.9408 24.6058 29.1133 24.6147C29.2858 24.6236 29.4544 24.6692 29.6079 24.7483C31.3018 25.8948 32.9641 27.1014 34.6351 28.288C35.6726 29.0275 36.6958 29.7841 37.7448 30.5064C38.05 30.7232 38.4217 30.8256 38.7949 30.7957C39.168 30.7659 39.5187 30.6056 39.7855 30.343C40.0453 30.102 40.2137 29.7785 40.2623 29.4275C40.3108 29.0765 40.2366 28.7195 40.0521 28.417C39.8599 28.1475 39.6211 27.9146 39.347 27.7291C36.5439 25.7075 33.7466 23.686 30.955 21.6644C30.4219 21.2803 30.3015 20.8561 30.591 20.4578C30.8805 20.0594 31.3018 20.045 31.8549 20.4291C32.4081 20.8132 32.8867 21.1456 33.3941 21.5125L40.8832 26.9438C41.9064 27.6804 43.2621 27.1559 43.4398 25.9435C43.5373 25.2585 43.2105 24.7512 42.6803 24.3242C39.0203 21.3577 35.3573 18.3941 31.7317 15.3847C31.0954 14.8602 30.5853 14.5249 29.8343 15.1124C29.6771 15.2093 29.506 15.2818 29.327 15.3274C26.6787 16.3105 24.0763 16.4051 21.5312 14.9548C21.2259 14.8054 20.9696 14.572 20.7924 14.282C20.6151 13.9921 20.5243 13.6575 20.5307 13.3177C20.537 12.9779 20.6402 12.647 20.828 12.3638C21.0159 12.0806 21.2807 11.8569 21.5914 11.7189C22.4512 11.2747 23.2852 10.8219 24.1307 10.3719L25.3259 9.74706C25.2784 9.70967 25.2238 9.68236 25.1654 9.6668C25.1069 9.6539 25.0462 9.6539 24.9877 9.6668C21.5537 10.183 18.09 10.4769 14.6181 10.5467C14.4741 10.5477 14.3337 10.5913 14.2143 10.6718C14.095 10.7524 14.0022 10.8664 13.9474 10.9996C11.7692 14.5421 9.5909 18.0827 7.41265 21.6214C7.34099 21.7418 7.26934 21.8679 7.18909 22.0112C7.61327 22.3351 8.026 22.6188 8.39859 22.9456C8.6852 23.1892 8.85431 23.1347 9.09793 22.9054C9.59663 22.4382 10.1125 21.9854 10.6428 21.5526C11.0283 21.2252 11.4882 20.9974 11.9823 20.889C12.4764 20.7807 12.9894 20.7952 13.4766 20.9313C13.9637 21.0674 14.4101 21.3209 14.7765 21.6695C15.1429 22.0182 15.4182 22.4514 15.5782 22.9312C15.6241 23.0602 15.6785 23.1863 15.733 23.3181C17.6218 22.1889 20.422 23.2064 20.6226 26.1843C22.6891 26.3419 23.7753 27.4798 23.9358 29.5204C26.2287 29.572 28.0201 31.7388 26.7217 34.3671L26.7246 34.3556ZM40.846 10.0337C40.7858 10.0337 40.7227 10.0537 40.6625 10.0681C40.5422 10.1168 40.4218 10.1626 40.3043 10.2171C39.3549 10.6792 38.319 10.9363 37.2638 10.9719C36.2086 11.0075 35.1577 10.8206 34.1794 10.4235C33.096 10.0136 31.9725 9.7012 30.8661 9.34866C30.5867 9.24914 30.2896 9.20846 29.9937 9.22918C29.6978 9.24989 29.4093 9.33155 29.1465 9.46904C26.8937 10.6499 24.6438 11.8393 22.3967 13.0374C21.9554 13.2724 21.9525 13.4243 22.3967 13.6736C23.5226 14.3309 24.8236 14.6252 26.1227 14.5163C27.5985 14.3802 29.0253 13.9161 30.2986 13.1577C30.4785 13.0274 30.6976 12.9629 30.9194 12.9749C31.1411 12.9869 31.352 13.0747 31.5167 13.2237C35.793 16.7203 40.0721 20.2027 44.2939 23.6449L47.3578 20.5867L40.846 10.0337ZM5.81335 2.65053C5.7417 2.89702 5.69297 3.07472 5.65285 3.24669C5.22293 5.11922 4.79396 6.98984 4.36596 8.85856C3.48701 12.6992 2.60998 16.5474 1.73486 20.4033C1.70046 20.5638 1.73486 20.8533 1.82944 20.9135C2.85264 21.524 3.89878 22.0972 4.96211 22.6933L13.5834 8.66653L5.81335 2.65053ZM49.4329 2.36392L41.6514 8.38278L50.2727 22.4182C51.2701 21.845 52.2245 21.3061 53.1961 20.7845C53.2634 20.7617 53.3253 20.7253 53.3779 20.6775C53.4305 20.6297 53.4727 20.5716 53.5017 20.5067C53.5308 20.4419 53.5461 20.3717 53.5468 20.3007C53.5475 20.2296 53.5335 20.1592 53.5056 20.0938C52.878 17.4569 52.2875 14.8115 51.6828 12.1689L49.4329 2.36392ZM13.721 31.0882C14.0327 30.9744 14.3277 30.8192 14.598 30.6268C15.905 29.5233 17.1976 28.3769 18.4616 27.2304C18.6295 27.0983 18.7677 26.9323 18.867 26.7431C18.9662 26.5539 19.0244 26.3459 19.0377 26.1326C19.0509 25.9194 19.019 25.7057 18.9439 25.5057C18.8688 25.3057 18.7523 25.1238 18.602 24.9719C18.4665 24.8081 18.2989 24.6737 18.1096 24.5772C17.9202 24.4806 17.713 24.4238 17.5009 24.4104C17.2887 24.397 17.0761 24.4272 16.876 24.4991C16.676 24.571 16.4928 24.6832 16.3378 24.8286C15.0107 25.975 13.7009 27.1416 12.3968 28.3138C12.1528 28.5184 11.9828 28.7976 11.9129 29.1083C11.8429 29.419 11.877 29.744 12.0099 30.0335C12.1591 30.3586 12.4012 30.6322 12.7057 30.82C13.0102 31.0077 13.3635 31.101 13.721 31.0882ZM15.7273 32.2805C15.8562 32.9741 16.1457 33.4499 16.7018 33.7136C16.9604 33.857 17.257 33.917 17.5511 33.8852C17.8451 33.8533 18.1221 33.7313 18.344 33.5359C19.5335 32.5127 20.7172 31.4809 21.8751 30.4233C22.1671 30.1446 22.3386 29.763 22.3533 29.3597C22.3679 28.9564 22.2244 28.5633 21.9534 28.2643C21.6824 27.9653 21.3053 27.7839 20.9025 27.7589C20.4997 27.7339 20.1031 27.8672 19.7972 28.1304C18.6307 29.1507 17.4641 30.171 16.3378 31.243C16.0511 31.4923 15.9222 31.9251 15.7215 32.2805H15.7273ZM8.51324 26.0066C8.53596 26.3187 8.63928 26.6196 8.8131 26.8798C8.98692 27.14 9.2253 27.3507 9.50492 27.4912C9.77608 27.6383 10.0871 27.6951 10.3927 27.6534C10.6984 27.6116 10.9828 27.4735 11.2045 27.2591C12.0013 26.5712 12.7895 25.8747 13.5777 25.1754C14.3171 24.5248 14.4203 23.6076 13.8385 22.9198C13.2567 22.2319 12.3051 22.1488 11.5313 22.8137C10.7574 23.4787 9.89758 24.2038 9.13232 24.949C8.85144 25.2241 8.71387 25.6512 8.51324 26.0066ZM20.3962 34.3556C20.4142 34.6576 20.5092 34.95 20.6723 35.2049C20.8353 35.4598 21.061 35.6687 21.3277 35.8116C21.5865 35.9613 21.8856 36.0263 22.1832 35.9975C22.4807 35.9687 22.7619 35.8476 22.9872 35.6511C23.7409 35.0263 24.4775 34.3814 25.1855 33.7107C25.4532 33.4312 25.6053 33.0607 25.6112 32.6737C25.6172 32.2867 25.4766 31.9118 25.2176 31.6241C24.9586 31.3365 24.6004 31.1574 24.2149 31.1229C23.8294 31.0883 23.4451 31.2009 23.1391 31.4379C22.4053 32.057 21.6745 32.6818 20.9923 33.3524C20.7506 33.6593 20.5501 33.9966 20.3962 34.3556Z" fill="white"/>
</svg>
