<svg width="250" height="42" viewBox="0 0 250 42" fill="none" xmlns="http://www.w3.org/2000/svg">
<g id="Group 411">
<path id="Vector" d="M41.3322 20.9514C41.3319 17.0122 40.2027 13.1556 38.0786 9.83827C35.9544 6.52092 32.9241 3.88173 29.3465 2.23318C25.7688 0.584627 21.7938 -0.00424004 17.8919 0.536309C13.99 1.07686 10.3247 2.72418 7.32996 5.28322C4.33524 7.84227 2.13654 11.2059 0.994175 14.9757C-0.148191 18.7456 -0.186373 22.7639 0.884149 26.5548C1.95467 30.3457 4.08906 33.7505 7.03461 36.366C9.98015 38.9815 13.6135 40.6981 17.5044 41.3127V26.9094H12.2706V20.9514H17.5044V16.3962C17.5044 11.2307 20.5791 8.37922 25.2891 8.37922C26.8349 8.40066 28.3771 8.53463 29.9034 8.78008V13.8545H27.3025C24.7425 13.8545 23.9453 15.4397 23.9453 17.0704V20.9377H29.662L28.751 26.8958H23.9453V41.2991C28.7904 40.5306 33.2027 38.0597 36.3895 34.3301C39.5763 30.6006 41.3288 25.857 41.3322 20.9514Z" fill="#425F9C"/>
<path id="Vector_2" d="M28.7465 26.9094L29.6575 20.9513H23.9454V17.084C23.9454 15.4533 24.7425 13.8681 27.3025 13.8681H29.9035V8.79368C28.3772 8.54823 26.835 8.41426 25.2892 8.39282C20.5792 8.39282 17.5045 11.2443 17.5045 16.4098V20.965H12.2706V26.923H17.5045V41.3263C19.6385 41.6603 21.8114 41.6603 23.9454 41.3263V26.9094H28.7465Z" fill="white"/>
<g id="4.6/5">
<path d="M53.7847 26.4261V24.5917L61.8776 11.7868H63.2084V14.6284H62.3092L56.1946 24.3039V24.4478H67.0931V26.4261H53.7847ZM62.4531 30.2028V25.8685V25.0143V11.7868H64.5753V30.2028H62.4531Z" fill="black"/>
<path d="M71.18 30.3466C70.7364 30.3466 70.3557 30.1878 70.038 29.8701C69.7203 29.5523 69.5614 29.1717 69.5614 28.7281C69.5614 28.2844 69.7203 27.9038 70.038 27.586C70.3557 27.2683 70.7364 27.1095 71.18 27.1095C71.6236 27.1095 72.0043 27.2683 72.322 27.586C72.6397 27.9038 72.7986 28.2844 72.7986 28.7281C72.7986 29.0218 72.7236 29.2916 72.5738 29.5373C72.4299 29.7831 72.2351 29.981 71.9893 30.1308C71.7495 30.2747 71.4797 30.3466 71.18 30.3466Z" fill="black"/>
<path d="M82.0425 30.4545C81.2872 30.4426 80.5318 30.2987 79.7765 30.0229C79.0211 29.7472 78.3318 29.2826 77.7083 28.6291C77.0848 27.9697 76.5843 27.0795 76.2066 25.9585C75.8289 24.8315 75.6401 23.4167 75.6401 21.7142C75.6401 20.0836 75.793 18.6389 76.0987 17.38C76.4044 16.1151 76.848 15.051 77.4295 14.1877C78.011 13.3185 78.7124 12.6591 79.5337 12.2095C80.361 11.7599 81.2932 11.5351 82.3303 11.5351C83.3614 11.5351 84.2786 11.7419 85.0819 12.1555C85.8912 12.5632 86.5506 13.1327 87.0601 13.864C87.5697 14.5954 87.8994 15.4376 88.0493 16.3908H85.8552C85.6514 15.5635 85.2557 14.8771 84.6682 14.3316C84.0807 13.7861 83.3014 13.5133 82.3303 13.5133C80.9035 13.5133 79.7795 14.1338 78.9582 15.3747C78.1429 16.6156 77.7323 18.3571 77.7263 20.5991H77.8702C78.2059 20.0896 78.6045 19.655 79.0661 19.2953C79.5337 18.9296 80.0492 18.6478 80.6128 18.45C81.1763 18.2522 81.7727 18.1533 82.4022 18.1533C83.4573 18.1533 84.4224 18.417 85.2977 18.9446C86.1729 19.4661 86.8743 20.1885 87.4018 21.1117C87.9294 22.0289 88.1931 23.081 88.1931 24.2679C88.1931 25.4069 87.9384 26.45 87.4288 27.3972C86.9193 28.3384 86.2029 29.0877 85.2797 29.6453C84.3625 30.1968 83.2834 30.4665 82.0425 30.4545ZM82.0425 28.4763C82.7979 28.4763 83.4753 28.2874 84.0747 27.9098C84.6802 27.5321 85.1568 27.0255 85.5045 26.3901C85.8582 25.7546 86.035 25.0473 86.035 24.2679C86.035 23.5066 85.8642 22.8142 85.5225 22.1908C85.1868 21.5613 84.7222 21.0607 84.1287 20.6891C83.5412 20.3174 82.8698 20.1316 82.1144 20.1316C81.5449 20.1316 81.0144 20.2455 80.5228 20.4733C80.0313 20.6951 79.5996 21.0008 79.228 21.3905C78.8623 21.7801 78.5745 22.2267 78.3647 22.7303C78.1549 23.2279 78.05 23.7524 78.05 24.3039C78.05 25.0353 78.2208 25.7187 78.5625 26.3541C78.9102 26.9896 79.3838 27.5021 79.9833 27.8918C80.5888 28.2814 81.2752 28.4763 82.0425 28.4763Z" fill="black"/>
<path d="M98.2756 10.9236L92.3408 32.9723H90.3985L96.3333 10.9236H98.2756Z" fill="black"/>
<path d="M106.51 30.4545C105.455 30.4545 104.505 30.2447 103.66 29.8251C102.814 29.4055 102.137 28.83 101.627 28.0986C101.118 27.3672 100.839 26.534 100.791 25.5988H102.949C103.033 26.4321 103.411 27.1215 104.082 27.667C104.76 28.2065 105.569 28.4763 106.51 28.4763C107.266 28.4763 107.937 28.2994 108.524 27.9457C109.118 27.592 109.582 27.1065 109.918 26.489C110.26 25.8655 110.431 25.1612 110.431 24.3758C110.431 23.5725 110.254 22.8562 109.9 22.2267C109.553 21.5913 109.073 21.0907 108.461 20.725C107.85 20.3594 107.152 20.1735 106.366 20.1675C105.803 20.1615 105.224 20.2485 104.631 20.4283C104.037 20.6021 103.549 20.8269 103.165 21.1027L101.079 20.8509L102.194 11.7868H111.762V13.7651H104.064L103.417 19.1964H103.525C103.902 18.8966 104.376 18.6478 104.946 18.45C105.515 18.2522 106.109 18.1533 106.726 18.1533C107.853 18.1533 108.857 18.423 109.738 18.9626C110.626 19.4961 111.321 20.2275 111.825 21.1567C112.334 22.0858 112.589 23.1469 112.589 24.3399C112.589 25.5149 112.325 26.5639 111.798 27.4871C111.276 28.4043 110.557 29.1297 109.639 29.6632C108.722 30.1908 107.679 30.4545 106.51 30.4545Z" fill="black"/>
</g>
<path id="Vector_3" d="M138.279 30.1164C138.366 30.7359 137.983 31.0274 137.423 30.7359L132.763 28.3854C132.44 28.2467 132.092 28.1751 131.74 28.1751C131.389 28.1751 131.041 28.2467 130.718 28.3854L126.039 30.6949C125.475 30.9682 125.092 30.6949 125.188 30.0662L125.98 24.9144C126.014 24.5644 125.977 24.2112 125.871 23.876C125.764 23.5409 125.591 23.2309 125.361 22.9648L121.717 19.2296C121.261 18.7741 121.43 18.3186 122.049 18.2275L127.196 17.3848C127.539 17.3091 127.863 17.1642 128.148 16.959C128.434 16.7538 128.674 16.4926 128.854 16.1914L131.291 11.5679C131.583 11.0122 132.057 11.0122 132.344 11.5679L134.735 16.205C134.914 16.507 135.153 16.7695 135.436 16.977C135.72 17.1844 136.042 17.3324 136.384 17.4121L141.527 18.2958C142.142 18.4051 142.288 18.8561 141.846 19.3025L138.174 23.0104C137.941 23.2732 137.764 23.5809 137.655 23.9146C137.545 24.2484 137.505 24.601 137.537 24.9509L138.279 30.1164Z" fill="#425F9C"/>
<g id="Vector_4" style="mix-blend-mode:multiply" opacity="0.5">
<path d="M131.815 11.4082C131.911 11.4082 132.02 11.513 132.111 11.6906L134.503 16.3232C134.697 16.6608 134.96 16.9544 135.273 17.1857C135.587 17.4169 135.945 17.5808 136.325 17.667L141.477 18.5689C141.673 18.6053 141.805 18.6782 141.837 18.7693C141.868 18.8604 141.8 19.0016 141.659 19.1428L137.987 22.8507C137.727 23.1422 137.529 23.4844 137.407 23.856C137.284 24.2276 137.24 24.6204 137.277 25.0098L138.024 30.1708C138.057 30.3005 138.037 30.4381 137.969 30.5534C137.95 30.571 137.928 30.5846 137.904 30.5932C137.88 30.6019 137.854 30.6054 137.828 30.6035C137.726 30.5985 137.626 30.5704 137.537 30.5215L132.877 28.1756C132.517 28.0189 132.13 27.9379 131.738 27.9379C131.346 27.9379 130.958 28.0189 130.599 28.1756L125.921 30.4805C125.833 30.5298 125.735 30.5579 125.634 30.5625C125.607 30.5647 125.58 30.561 125.555 30.5515C125.53 30.5421 125.507 30.5272 125.488 30.5078C125.422 30.3919 125.404 30.2544 125.438 30.1252L126.235 24.946C126.275 24.5572 126.233 24.1644 126.114 23.7922C125.995 23.4199 125.801 23.0762 125.543 22.7824L121.899 19.0472C121.758 18.9014 121.694 18.7648 121.726 18.6737C121.758 18.5826 121.89 18.5051 122.086 18.4732L127.233 17.6351C127.611 17.5505 127.968 17.3892 128.281 17.1612C128.595 16.9332 128.858 16.6434 129.055 16.3095L131.483 11.6906C131.578 11.5176 131.688 11.4128 131.788 11.4128M131.788 11.1577C131.67 11.1713 131.559 11.2172 131.465 11.2904C131.372 11.3636 131.301 11.4611 131.26 11.5722L128.827 16.1865C128.646 16.4878 128.406 16.749 128.121 16.9542C127.836 17.1594 127.512 17.3043 127.169 17.38L122.022 18.2227C121.402 18.3229 121.252 18.7739 121.689 19.2248L125.333 22.96C125.563 23.2261 125.737 23.5361 125.843 23.8712C125.95 24.2064 125.987 24.5596 125.953 24.9096L125.16 30.0615C125.092 30.517 125.283 30.7948 125.616 30.7948C125.756 30.7911 125.893 30.7553 126.017 30.69L130.695 28.3806C131.018 28.2424 131.366 28.1711 131.717 28.1711C132.069 28.1711 132.417 28.2424 132.74 28.3806L137.4 30.7311C137.525 30.7961 137.664 30.8319 137.805 30.8358C138.129 30.8358 138.32 30.5671 138.261 30.1116L137.532 24.946C137.5 24.5962 137.54 24.2436 137.65 23.9098C137.76 23.5761 137.937 23.2684 138.17 23.0056L141.841 19.2977C142.297 18.8422 142.137 18.3867 141.522 18.291L136.38 17.4073C136.038 17.3276 135.715 17.1796 135.432 16.9722C135.148 16.7647 134.91 16.5022 134.731 16.2002L132.339 11.5631C132.198 11.2807 132.007 11.144 131.815 11.144L131.788 11.1577Z" fill="#425F9C"/>
</g>
<path id="Vector_5" d="M165.236 30.1163C165.323 30.7358 164.94 31.0273 164.38 30.7358L159.72 28.3853C159.397 28.2466 159.049 28.1751 158.697 28.1751C158.346 28.1751 157.998 28.2466 157.675 28.3853L152.997 30.6948C152.432 30.9681 152.049 30.6948 152.145 30.0662L152.937 24.9143C152.972 24.564 152.935 24.2103 152.827 23.875C152.72 23.5397 152.545 23.2299 152.313 22.9647L148.669 19.2296C148.214 18.774 148.382 18.3185 148.997 18.2274L154.149 17.3847C154.492 17.309 154.816 17.1641 155.101 16.9589C155.386 16.7537 155.626 16.4925 155.807 16.1913L158.235 11.5769C158.531 11.0212 159.005 11.0212 159.292 11.5769L161.683 16.2141C161.862 16.5154 162.1 16.7775 162.383 16.9849C162.665 17.1923 162.987 17.3407 163.328 17.4212L168.47 18.3049C169.09 18.4142 169.236 18.8651 168.794 19.3115L165.122 23.0194C164.889 23.282 164.711 23.5896 164.601 23.9233C164.49 24.257 164.449 24.6097 164.48 24.9599L165.236 30.1163Z" fill="#425F9C"/>
<g id="Vector_6" style="mix-blend-mode:multiply" opacity="0.5">
<path d="M158.768 11.4082C158.868 11.4082 158.978 11.513 159.069 11.6906L161.46 16.3232C161.654 16.6613 161.916 16.9553 162.23 17.1867C162.543 17.418 162.902 17.5816 163.282 17.667L168.434 18.5689C168.63 18.6053 168.762 18.6782 168.789 18.7693C168.817 18.8604 168.753 19.0016 168.616 19.1428L164.945 22.8507C164.683 23.1416 164.485 23.4838 164.362 23.8555C164.24 24.2272 164.196 24.6203 164.234 25.0098L164.999 30.1525C165.03 30.2824 165.011 30.4191 164.945 30.5352C164.904 30.5702 164.852 30.5882 164.799 30.5853C164.698 30.5802 164.6 30.5522 164.512 30.5033L159.852 28.1574C159.492 27.9916 159.1 27.9091 158.704 27.916C158.317 27.9084 157.932 27.9878 157.579 28.1483L152.901 30.4532C152.813 30.5015 152.715 30.5295 152.614 30.5352C152.587 30.5389 152.56 30.5358 152.534 30.5262C152.509 30.5167 152.486 30.501 152.468 30.4805C152.4 30.3652 152.38 30.2276 152.414 30.0979L153.192 24.946C153.231 24.5569 153.189 24.1639 153.069 23.7916C152.949 23.4194 152.754 23.0758 152.496 22.7824L148.851 19.0472C148.715 18.9014 148.651 18.7648 148.678 18.6737C148.706 18.5826 148.847 18.5051 149.038 18.4732L154.19 17.6351C154.572 17.5534 154.934 17.3934 155.251 17.1653C155.569 16.9372 155.835 16.6458 156.035 16.3095L158.463 11.6906C158.554 11.5176 158.668 11.4128 158.763 11.4128M158.763 11.1577C158.646 11.1713 158.534 11.2172 158.441 11.2904C158.347 11.3636 158.276 11.4611 158.235 11.5722L155.807 16.1865C155.626 16.4878 155.386 16.749 155.101 16.9542C154.816 17.1594 154.492 17.3043 154.149 17.38L148.997 18.2227C148.382 18.3229 148.232 18.7739 148.669 19.2248L152.313 22.96C152.545 23.2252 152.72 23.5349 152.827 23.8702C152.935 24.2055 152.972 24.5593 152.937 24.9096L152.145 30.0615C152.072 30.517 152.263 30.7948 152.6 30.7948C152.74 30.7911 152.877 30.7553 153.001 30.69L157.679 28.3806C157.997 28.2385 158.342 28.1685 158.691 28.1756C159.047 28.1697 159.4 28.2428 159.725 28.3897L164.384 30.7402C164.508 30.8054 164.645 30.8413 164.785 30.8449C165.113 30.8449 165.305 30.5762 165.241 30.1207L164.485 24.946C164.454 24.5959 164.495 24.2431 164.605 23.9094C164.716 23.5757 164.893 23.2681 165.127 23.0056L168.798 19.2977C169.254 18.8422 169.094 18.3867 168.475 18.291L163.332 17.4073C162.991 17.3268 162.67 17.1785 162.387 16.9711C162.105 16.7637 161.867 16.5015 161.688 16.2002L159.296 11.5631C159.151 11.2807 158.959 11.144 158.768 11.144L158.763 11.1577Z" fill="#425F9C"/>
</g>
<path id="Vector_7" d="M192.189 30.1163C192.28 30.7358 191.893 31.0273 191.333 30.7358L186.673 28.3853C186.35 28.2467 186.003 28.1752 185.652 28.1752C185.301 28.1752 184.954 28.2467 184.632 28.3853L179.949 30.6948C179.389 30.9681 179.006 30.6948 179.102 30.0662L179.895 24.9143C179.928 24.564 179.89 24.2106 179.783 23.8755C179.676 23.5403 179.501 23.2305 179.271 22.9647L175.626 19.2296C175.171 18.774 175.335 18.3185 175.954 18.2274L181.106 17.3847C181.449 17.3083 181.773 17.1631 182.058 16.9579C182.343 16.7528 182.583 16.492 182.764 16.1913L185.192 11.5769C185.484 11.0212 185.957 11.0212 186.249 11.5769L188.636 16.2141C188.816 16.5157 189.054 16.778 189.338 16.9854C189.621 17.1928 189.943 17.341 190.285 17.4212L195.428 18.3049C196.047 18.4142 196.193 18.8651 195.751 19.3115L192.075 23.0194C191.843 23.2828 191.667 23.5906 191.557 23.9242C191.447 24.2578 191.407 24.6101 191.437 24.9599L192.189 30.1163Z" fill="#425F9C"/>
<g id="Vector_8" style="mix-blend-mode:multiply" opacity="0.5">
<path d="M185.725 11.4082C185.821 11.4082 185.934 11.513 186.026 11.6906L188.412 16.3232C188.607 16.6604 188.87 16.9538 189.183 17.185C189.497 17.4162 189.855 17.5803 190.234 17.667L195.382 18.5507C195.573 18.5871 195.71 18.66 195.737 18.7511C195.764 18.8422 195.701 18.9834 195.564 19.1246L191.888 22.8325C191.628 23.1246 191.431 23.4669 191.309 23.8383C191.186 24.2097 191.142 24.6022 191.177 24.9916L191.929 30.1525C191.945 30.2171 191.948 30.2841 191.938 30.3498C191.928 30.4155 191.905 30.4785 191.87 30.5352C191.851 30.5533 191.829 30.5672 191.805 30.5759C191.78 30.5845 191.754 30.5877 191.729 30.5853C191.626 30.5803 191.527 30.5522 191.437 30.5033L186.782 28.1574C186.422 27.9916 186.03 27.9091 185.634 27.916C185.246 27.9084 184.862 27.9878 184.509 28.1483L179.831 30.4532C179.741 30.5021 179.641 30.5302 179.539 30.5352C179.512 30.5374 179.485 30.5337 179.46 30.5242C179.435 30.5148 179.412 30.4998 179.393 30.4805C179.327 30.3646 179.309 30.227 179.343 30.0979L180.145 24.946C180.185 24.5571 180.145 24.1641 180.025 23.7916C179.906 23.4192 179.711 23.0756 179.453 22.7824L175.808 19.0472C175.672 18.9014 175.603 18.7648 175.635 18.6737C175.667 18.5826 175.799 18.5051 175.995 18.4732L181.147 17.6351C181.526 17.5515 181.883 17.3907 182.196 17.1626C182.51 16.9345 182.773 16.6441 182.969 16.3095L185.402 11.6906C185.493 11.5176 185.606 11.4128 185.702 11.4128M185.702 11.1577C185.584 11.1713 185.473 11.2172 185.379 11.2904C185.286 11.3636 185.215 11.4611 185.174 11.5722L182.764 16.182C182.583 16.4827 182.342 16.7435 182.057 16.9487C181.772 17.1538 181.449 17.299 181.106 17.3754L175.954 18.2181C175.335 18.3184 175.189 18.7693 175.626 19.2203L179.27 22.9555C179.501 23.2212 179.675 23.531 179.783 23.8662C179.89 24.2013 179.928 24.5548 179.894 24.9051L179.12 30.0569C179.047 30.5124 179.238 30.7903 179.576 30.7903C179.715 30.7866 179.853 30.7507 179.976 30.6855L184.659 28.3761C184.981 28.2377 185.329 28.1664 185.679 28.1664C186.03 28.1664 186.377 28.2377 186.7 28.3761L191.36 30.7265C191.485 30.7915 191.624 30.8273 191.765 30.8313C192.093 30.8313 192.28 30.5625 192.221 30.107L191.442 24.946C191.411 24.5963 191.452 24.2439 191.561 23.9103C191.671 23.5768 191.847 23.2689 192.079 23.0056L195.755 19.2977C196.211 18.8422 196.051 18.3867 195.432 18.291L190.289 17.4073C189.947 17.3271 189.625 17.1789 189.342 16.9715C189.059 16.7642 188.82 16.5018 188.64 16.2002L186.253 11.5631C186.108 11.2807 185.916 11.144 185.725 11.144L185.702 11.1577Z" fill="#425F9C"/>
</g>
<path id="Vector_9" d="M219.146 30.1164C219.237 30.7359 218.85 31.0274 218.289 30.7359L213.63 28.3854C213.307 28.2467 212.959 28.1751 212.607 28.1751C212.255 28.1751 211.907 28.2467 211.584 28.3854L206.906 30.6858C206.341 30.9591 205.959 30.6858 206.054 30.0571L206.847 24.9053C206.881 24.5553 206.844 24.2021 206.737 23.8669C206.631 23.5318 206.457 23.2218 206.228 22.9557L202.583 19.2205C202.128 18.765 202.296 18.3095 202.916 18.2184L208.063 17.3757C208.406 17.3 208.73 17.1551 209.015 16.9499C209.3 16.7447 209.541 16.4835 209.721 16.1823L212.154 11.5679C212.445 11.0122 212.919 11.0122 213.206 11.5679L215.597 16.205C215.777 16.507 216.015 16.7695 216.299 16.977C216.582 17.1844 216.904 17.3324 217.246 17.4121L222.394 18.3004C223.013 18.4097 223.154 18.8607 222.713 19.3071L219.041 23.0149C218.808 23.2777 218.631 23.5855 218.521 23.9192C218.412 24.2529 218.372 24.6056 218.403 24.9554L219.146 30.1164Z" fill="#425F9C"/>
<g id="Vector_10" style="mix-blend-mode:multiply" opacity="0.5">
<path d="M212.682 11.4082C212.778 11.4082 212.887 11.513 212.978 11.6906L215.37 16.3232C215.565 16.6608 215.827 16.9544 216.14 17.1857C216.454 17.4169 216.812 17.5808 217.192 17.667L222.344 18.5689C222.54 18.6053 222.672 18.6782 222.704 18.7693C222.736 18.8604 222.667 19.0016 222.526 19.1428L218.855 22.8507C218.594 23.1422 218.396 23.4844 218.274 23.856C218.151 24.2276 218.107 24.6204 218.144 25.0098L218.891 30.1708C218.924 30.3005 218.905 30.4381 218.836 30.5534C218.818 30.5715 218.796 30.5854 218.771 30.5941C218.747 30.6027 218.721 30.606 218.695 30.6035C218.593 30.5985 218.493 30.5704 218.404 30.5215L213.739 28.1574C213.38 27.9912 212.987 27.9086 212.591 27.916C212.203 27.9027 211.817 27.9774 211.462 28.1346L206.779 30.4395C206.691 30.4888 206.593 30.5169 206.492 30.5215C206.465 30.5237 206.438 30.52 206.413 30.5105C206.388 30.5011 206.365 30.4862 206.346 30.4669C206.28 30.3509 206.262 30.2134 206.296 30.0842L207.102 24.946C207.143 24.5571 207.102 24.1641 206.983 23.7916C206.864 23.4192 206.669 23.0756 206.41 22.7824L202.766 19.0472C202.625 18.9014 202.561 18.7648 202.593 18.6737C202.625 18.5826 202.757 18.5051 202.953 18.4732L208.1 17.6351C208.482 17.5539 208.844 17.3942 209.162 17.166C209.479 16.9378 209.746 16.6462 209.945 16.3095L212.373 11.6861C212.468 11.513 212.578 11.4082 212.678 11.4082M212.678 11.1531C212.56 11.1668 212.448 11.2127 212.355 11.2858C212.262 11.359 212.191 11.4565 212.149 11.5677L209.717 16.182C209.536 16.4832 209.296 16.7444 209.011 16.9496C208.726 17.1548 208.402 17.2997 208.059 17.3754L202.912 18.2181C202.292 18.3184 202.142 18.7693 202.579 19.2203L206.223 22.9555C206.453 23.2215 206.627 23.5316 206.733 23.8667C206.84 24.2018 206.877 24.5551 206.843 24.9051L206.05 30.0569C205.982 30.5124 206.169 30.7903 206.506 30.7903C206.646 30.7866 206.783 30.7507 206.907 30.6855L211.585 28.3761C211.908 28.2378 212.256 28.1666 212.607 28.1666C212.959 28.1666 213.307 28.2378 213.63 28.3761L218.294 30.7356C218.42 30.8006 218.558 30.8364 218.7 30.8404C219.023 30.8404 219.214 30.5716 219.155 30.1161L218.399 24.946C218.367 24.5962 218.408 24.2436 218.517 23.9098C218.627 23.5761 218.804 23.2684 219.037 23.0056L222.708 19.2977C223.164 18.8422 223.009 18.3867 222.389 18.291L217.247 17.4073C216.905 17.3276 216.582 17.1796 216.299 16.9722C216.016 16.7647 215.777 16.5022 215.598 16.2002L213.206 11.5631C213.065 11.2807 212.874 11.144 212.682 11.144L212.678 11.1531Z" fill="#425F9C"/>
</g>
<path id="Vector_11" d="M246.08 30.1163C246.172 30.7358 245.789 31.0273 245.224 30.7358L240.564 28.3853C240.242 28.2467 239.895 28.1752 239.544 28.1752C239.193 28.1752 238.846 28.2467 238.524 28.3853L233.841 30.6948C233.281 30.9681 232.898 30.6948 232.994 30.0662L233.786 24.9143C233.82 24.564 233.782 24.2106 233.674 23.8755C233.567 23.5403 233.393 23.2305 233.162 22.9647L229.518 19.2296C229.063 18.774 229.227 18.3185 229.846 18.2274L234.998 17.3847C235.341 17.309 235.665 17.1641 235.95 16.9589C236.235 16.7537 236.475 16.4925 236.656 16.1913L239.084 11.5769C239.38 11.0212 239.854 11.0212 240.141 11.5769L242.532 16.2141C242.71 16.5159 242.948 16.7784 243.231 16.9859C243.513 17.1933 243.835 17.3414 244.176 17.4212L249.319 18.3049C249.939 18.4142 250.084 18.8651 249.643 19.3115L245.971 23.0194C245.744 23.2827 245.572 23.589 245.466 23.92C245.36 24.251 245.321 24.5999 245.352 24.9462L246.08 30.1163Z" fill="#425F9C"/>
<g id="Vector_12" style="mix-blend-mode:multiply" opacity="0.5">
<path d="M239.635 11.4084C239.73 11.4084 239.844 11.5132 239.935 11.6908L242.327 16.3234C242.521 16.6615 242.783 16.9555 243.097 17.1868C243.41 17.4182 243.769 17.5817 244.149 17.6671L249.301 18.5691C249.497 18.6055 249.629 18.6784 249.656 18.7695C249.683 18.8606 249.624 19.0018 249.483 19.143L245.812 22.8509C245.55 23.1417 245.351 23.4839 245.229 23.8556C245.107 24.2274 245.063 24.6205 245.101 25.01L245.848 30.1709C245.879 30.3008 245.859 30.4375 245.793 30.5536C245.753 30.5886 245.701 30.6066 245.648 30.6037C245.547 30.5991 245.449 30.571 245.361 30.5217L240.701 28.1758C240.341 28.01 239.949 27.9275 239.553 27.9344C239.165 27.9268 238.781 28.0062 238.428 28.1667L233.75 30.4716C233.661 30.5199 233.563 30.5479 233.463 30.5536C233.436 30.5573 233.408 30.5542 233.383 30.5446C233.357 30.5351 233.335 30.5194 233.317 30.4989C233.251 30.3828 233.231 30.2462 233.262 30.1163L234.055 24.9462C234.095 24.5573 234.055 24.1642 233.935 23.7918C233.816 23.4194 233.621 23.0758 233.362 22.7825L229.718 19.0473C229.582 18.9016 229.518 18.7649 229.545 18.6738C229.573 18.5827 229.714 18.5053 229.91 18.4734L235.057 17.6353C235.439 17.5535 235.801 17.3936 236.118 17.1655C236.435 16.9373 236.702 16.646 236.902 16.3097L239.33 11.6908C239.421 11.5177 239.535 11.413 239.63 11.413M239.63 11.1579C239.513 11.1715 239.401 11.2174 239.308 11.2906C239.214 11.3637 239.143 11.4613 239.102 11.5724L236.674 16.1867C236.493 16.4879 236.253 16.7492 235.968 16.9544C235.683 17.1596 235.359 17.3045 235.016 17.3802L229.864 18.2229C229.245 18.3231 229.099 18.774 229.536 19.225L233.18 22.9602C233.411 23.2259 233.585 23.5357 233.693 23.8709C233.8 24.206 233.838 24.5595 233.804 24.9098L233.012 30.0616C232.939 30.5171 233.13 30.795 233.467 30.795C233.606 30.7906 233.741 30.7548 233.863 30.6902L238.546 28.3808C238.869 28.2424 239.216 28.1711 239.567 28.1711C239.917 28.1711 240.264 28.2424 240.587 28.3808L245.247 30.7312C245.372 30.7962 245.511 30.832 245.652 30.836C245.98 30.836 246.171 30.5672 246.108 30.1117L245.352 24.9462C245.322 24.5961 245.363 24.2437 245.474 23.9101C245.584 23.5766 245.761 23.2689 245.994 23.0057L249.665 19.2979C250.121 18.8424 249.961 18.3869 249.342 18.2912L244.199 17.4075C243.858 17.3277 243.536 17.1797 243.253 16.9722C242.971 16.7647 242.733 16.5022 242.555 16.2004L240.159 11.5724C240.013 11.29 239.822 11.1533 239.63 11.1533V11.1579Z" fill="#425F9C"/>
</g>
<path id="Vector_13" d="M249.665 19.2751C250.121 18.8196 249.961 18.3641 249.342 18.273L244.199 17.362C243.857 17.284 243.535 17.1366 243.252 16.9289C242.969 16.7213 242.732 16.4579 242.555 16.1549L240.159 11.5405C240.119 11.4377 240.05 11.3489 239.96 11.2849C239.87 11.221 239.763 11.1847 239.653 11.1807V28.1576C239.967 28.1608 240.278 28.2291 240.564 28.358L245.224 30.7039C245.789 30.9863 246.172 30.7039 246.08 30.089L245.352 24.9462C245.323 24.5962 245.365 24.2439 245.475 23.9105C245.585 23.5771 245.762 23.2693 245.994 23.0057L249.665 19.2751Z" fill="#B3B3B3"/>
</g>
</svg>
