<svg width="231" height="65" viewBox="0 0 231 65" fill="none" xmlns="http://www.w3.org/2000/svg">
<g id="Group 409">
<path id="Vector" d="M101.016 62.0171C100.912 61.9328 100.83 61.8245 100.777 61.7015C100.724 61.5785 100.702 61.4445 100.712 61.311C100.718 61.1365 100.77 60.9666 100.863 60.8189C100.956 60.6712 101.087 60.551 101.242 60.4707C101.022 60.3071 100.843 60.094 100.721 59.8487C100.598 59.6034 100.535 59.3327 100.536 59.0585C100.536 57.9499 101.496 57.2226 102.718 57.2226C103.222 57.2057 103.718 57.3545 104.13 57.6463C104.535 57.3405 105.036 57.1902 105.542 57.2226V58.1405C105.234 58.1247 104.925 58.1508 104.624 58.2182C104.752 58.4798 104.817 58.7674 104.815 59.0585C104.8 59.3196 104.733 59.5751 104.617 59.8099C104.502 60.0447 104.341 60.2541 104.144 60.4258C103.946 60.5975 103.717 60.728 103.468 60.8097C103.22 60.8914 102.957 60.9226 102.697 60.9014C102.438 60.9028 102.18 60.8623 101.934 60.7814C101.878 60.8012 101.829 60.8373 101.794 60.8852C101.759 60.933 101.739 60.9903 101.736 61.0497C101.736 61.2827 102.047 61.3957 103.149 61.431C104.638 61.4734 105.443 61.89 105.443 62.8432C105.443 63.7965 104.638 64.2978 102.88 64.2978C101.27 64.2978 100.352 63.8742 100.352 62.9562C100.369 62.7472 100.444 62.5472 100.569 62.3787C100.694 62.2102 100.863 62.0801 101.058 62.003M101.941 62.4196C101.838 62.466 101.75 62.5414 101.689 62.6367C101.627 62.7319 101.595 62.8429 101.595 62.9562C101.595 63.3022 101.941 63.4929 102.817 63.4929C103.692 63.4929 104.158 63.3375 104.158 63.0339C104.158 62.7303 103.89 62.6102 102.93 62.5749C102.594 62.5703 102.262 62.518 101.941 62.4196ZM103.586 59.0938C103.598 58.9734 103.583 58.852 103.543 58.7379C103.503 58.6238 103.439 58.5196 103.355 58.4325C103.272 58.3453 103.17 58.2773 103.058 58.233C102.945 58.1887 102.824 58.1692 102.704 58.1759C102.584 58.1748 102.466 58.198 102.356 58.2442C102.246 58.2904 102.147 58.3586 102.064 58.4445C101.982 58.5305 101.918 58.6324 101.876 58.744C101.834 58.8557 101.815 58.9747 101.821 59.0938C101.821 59.3279 101.914 59.5524 102.08 59.7179C102.245 59.8834 102.47 59.9764 102.704 59.9764C102.938 59.9764 103.162 59.8834 103.328 59.7179C103.493 59.5524 103.586 59.3279 103.586 59.0938Z" fill="#93122B"/>
<path id="Vector_2" d="M106.411 61.0214C106.888 61.3012 107.426 61.4589 107.979 61.4804C108.437 61.4804 108.748 61.325 108.748 61.0214C108.748 60.1811 106.03 60.7107 106.03 58.8395C106.03 57.8086 106.948 57.272 108.021 57.272C108.666 57.2844 109.302 57.4261 109.892 57.6886L109.398 58.6489C108.957 58.4338 108.476 58.3158 107.986 58.3029C107.562 58.3029 107.279 58.4582 107.279 58.7619C107.279 59.6021 109.998 58.9949 109.998 60.8802C109.998 61.9111 109.115 62.4831 107.929 62.4831C107.189 62.4852 106.461 62.3006 105.811 61.9464L106.411 61.0214Z" fill="#93122B"/>
<path id="Vector_3" d="M113.642 59.3762V58.9525C113.642 58.5712 113.416 58.3382 112.936 58.3382C112.369 58.3856 111.819 58.5567 111.326 58.8395L110.831 57.8439C111.486 57.497 112.21 57.3015 112.95 57.272C114.404 57.272 114.941 57.9781 114.941 58.9949V61.1132C114.941 61.3815 115.089 61.4945 115.358 61.4945V62.4478C114.404 62.4478 114.023 62.2995 113.755 61.8405C113.565 62.0698 113.324 62.2527 113.053 62.375C112.781 62.4974 112.485 62.5561 112.187 62.5466C111.999 62.5664 111.808 62.5464 111.628 62.4881C111.448 62.4297 111.282 62.3343 111.141 62.2079C111 62.0815 110.887 61.9269 110.809 61.7542C110.732 61.5815 110.691 61.3944 110.69 61.205C110.69 60.1388 111.728 59.5598 113.599 59.4115M112.646 61.5934C112.826 61.5924 113.003 61.5543 113.167 61.4814C113.331 61.4085 113.478 61.3023 113.599 61.1697V60.2164C112.837 60.2517 112.067 60.4424 112.067 61.092C112.072 61.1632 112.09 61.2328 112.122 61.2967C112.153 61.3606 112.198 61.4175 112.251 61.4642C112.305 61.5109 112.368 61.5463 112.436 61.5685C112.504 61.5907 112.575 61.5991 112.646 61.5934Z" fill="#93122B"/>
<path id="Vector_4" d="M118.224 55.8528H119.834L122.207 62.3984H120.674L120.251 61.1698H117.765L117.341 62.3984H115.816L118.224 55.8528ZM118.146 60.0894H119.905L119.029 57.4062L118.146 60.0894Z" fill="#004E87"/>
<path id="Vector_5" d="M122.637 59.8352C122.637 58.1476 123.435 57.272 124.586 57.272C124.864 57.2835 125.137 57.3522 125.387 57.4737C125.637 57.5952 125.86 57.7669 126.041 57.9781V55.3584H127.453V62.4195H126.231L126.154 61.8476C125.965 62.0702 125.731 62.2489 125.466 62.3709C125.201 62.4929 124.913 62.5553 124.621 62.5537C123.47 62.5113 122.673 61.5934 122.673 59.8352M126.076 60.9791V58.8607C125.952 58.7033 125.796 58.5739 125.618 58.4814C125.441 58.3889 125.245 58.3353 125.045 58.3241C124.388 58.3241 124.049 58.8607 124.049 59.8563C124.049 60.852 124.353 61.5016 125.045 61.5016C125.243 61.5003 125.439 61.4547 125.617 61.3679C125.796 61.2812 125.953 61.1555 126.076 61.0002" fill="#004E87"/>
<path id="Vector_6" d="M128.103 57.385H129.487L130.553 60.9014L131.626 57.385H132.925L131.245 62.3984H129.79L128.103 57.385Z" fill="#004E87"/>
<path id="Vector_7" d="M136.258 59.3762V58.9525C136.258 58.5712 136.025 58.3382 135.552 58.3382C134.988 58.3848 134.44 58.556 133.949 58.8395L133.448 57.8439C134.103 57.4981 134.827 57.3027 135.566 57.272C137.014 57.272 137.551 57.9781 137.551 58.9949V61.1132C137.551 61.3815 137.706 61.4945 137.974 61.4945V62.4478C137.014 62.4478 136.633 62.2995 136.364 61.8405C136.175 62.0711 135.935 62.2548 135.663 62.3773C135.391 62.4997 135.095 62.5577 134.797 62.5466C134.609 62.5653 134.419 62.5445 134.24 62.4857C134.061 62.4269 133.896 62.3313 133.755 62.205C133.615 62.0787 133.503 61.9246 133.426 61.7524C133.348 61.5802 133.308 61.3937 133.307 61.205C133.307 60.1388 134.38 59.5598 136.216 59.4115M135.256 61.5934C135.436 61.5926 135.615 61.5545 135.78 61.4816C135.945 61.4087 136.094 61.3025 136.216 61.1697V60.2164C135.446 60.2517 134.684 60.4424 134.684 61.092C134.687 61.1629 134.705 61.2323 134.736 61.2961C134.767 61.36 134.81 61.417 134.864 61.4638C134.917 61.5105 134.979 61.5461 135.047 61.5684C135.114 61.5906 135.185 61.5991 135.256 61.5934Z" fill="#004E87"/>
<path id="Vector_8" d="M138.899 57.3849H140.198L140.276 57.9568C140.67 57.5285 141.219 57.2745 141.801 57.2507C142.917 57.2507 143.411 57.9568 143.411 59.0866V62.4124H141.999V59.0442C141.999 58.5853 141.801 58.2816 141.342 58.2816C141.133 58.292 140.929 58.3487 140.744 58.4477C140.56 58.5466 140.4 58.6852 140.276 58.8536V62.3842H138.864L138.899 57.3849Z" fill="#004E87"/>
<path id="Vector_9" d="M144.866 58.3241H144.061V57.3709H144.866V56.1069H146.278V57.3709H147.69V58.3241H146.278V60.8167C146.278 61.198 146.433 61.3887 146.737 61.3887C146.993 61.397 147.243 61.3144 147.443 61.1556L147.937 62.003C147.52 62.3231 147.009 62.4968 146.483 62.4973C145.452 62.4973 144.915 62.003 144.915 60.852L144.866 58.3241Z" fill="#004E87"/>
<path id="Vector_10" d="M151.257 59.3762V58.9525C151.257 58.5712 151.023 58.3382 150.55 58.3382C149.986 58.3848 149.438 58.556 148.948 58.8395L148.446 57.8439C149.101 57.4981 149.825 57.3027 150.565 57.272C152.019 57.272 152.556 57.9781 152.556 58.9949V61.1132C152.556 61.3815 152.704 61.4945 152.972 61.4945V62.4478C152.019 62.4478 151.631 62.2995 151.369 61.8405C151.178 62.0704 150.937 62.2535 150.664 62.3759C150.391 62.4982 150.094 62.5567 149.795 62.5466C149.607 62.5653 149.417 62.5445 149.238 62.4857C149.059 62.4269 148.894 62.3313 148.753 62.205C148.613 62.0787 148.501 61.9246 148.424 61.7524C148.346 61.5802 148.306 61.3937 148.305 61.205C148.305 60.1388 149.336 59.5598 151.214 59.4115M150.254 61.5934C150.434 61.5926 150.613 61.5545 150.778 61.4816C150.943 61.4087 151.092 61.3025 151.214 61.1697V60.2164C150.444 60.2517 149.682 60.4424 149.682 61.092C149.685 61.1629 149.703 61.2323 149.734 61.2961C149.765 61.36 149.808 61.417 149.862 61.4638C149.915 61.5105 149.977 61.5461 150.045 61.5684C150.112 61.5906 150.183 61.5991 150.254 61.5934Z" fill="#004E87"/>
<path id="Vector_11" d="M154.165 62.0171C154.06 61.9332 153.977 61.8251 153.923 61.7022C153.869 61.5792 153.846 61.445 153.855 61.311C153.862 61.1359 153.915 60.9659 154.009 60.8182C154.103 60.6706 154.235 60.5507 154.391 60.4707C154.171 60.3071 153.993 60.094 153.87 59.8487C153.747 59.6034 153.684 59.3327 153.685 59.0585C153.685 57.9499 154.645 57.2226 155.867 57.2226C156.371 57.2067 156.867 57.3554 157.279 57.6463C157.684 57.3405 158.185 57.1902 158.691 57.2226V58.1405C158.383 58.1244 158.074 58.1505 157.773 58.2182C157.898 58.481 157.963 58.7678 157.964 59.0585C157.949 59.3196 157.882 59.5751 157.767 59.8099C157.651 60.0447 157.49 60.2541 157.293 60.4258C157.096 60.5975 156.866 60.728 156.617 60.8097C156.369 60.8914 156.107 60.9226 155.846 60.9014C155.585 60.9022 155.325 60.8617 155.076 60.7814C155.021 60.8023 154.974 60.8389 154.94 60.8867C154.906 60.9344 154.887 60.9912 154.886 61.0497C154.886 61.2827 155.196 61.3957 156.298 61.431C157.795 61.4734 158.593 61.89 158.593 62.8432C158.593 63.7965 157.795 64.2978 156.029 64.2978C154.427 64.2978 153.509 63.8742 153.509 62.9562C153.525 62.7472 153.601 62.5472 153.725 62.3787C153.85 62.2102 154.02 62.0801 154.215 62.003M155.09 62.4196C154.988 62.467 154.902 62.5429 154.842 62.6381C154.782 62.7332 154.75 62.8437 154.751 62.9562C154.751 63.3022 155.09 63.4929 155.973 63.4929C156.856 63.4929 157.314 63.3375 157.314 63.0339C157.314 62.7303 157.046 62.6102 156.086 62.5749C155.749 62.5667 155.414 62.5145 155.09 62.4196ZM156.736 59.0938C156.749 58.9766 156.737 58.8581 156.7 58.746C156.664 58.6339 156.604 58.5309 156.524 58.4439C156.444 58.357 156.347 58.2881 156.239 58.2418C156.13 58.1956 156.013 58.1731 155.895 58.1759C155.777 58.1757 155.659 58.1997 155.55 58.2463C155.441 58.2929 155.343 58.3612 155.261 58.4471C155.179 58.5329 155.115 58.6345 155.074 58.7457C155.032 58.8569 155.014 58.9753 155.02 59.0938C155.009 59.213 155.023 59.3331 155.061 59.4466C155.099 59.56 155.161 59.6643 155.241 59.7526C155.322 59.841 155.42 59.9116 155.53 59.9599C155.64 60.0082 155.758 60.0332 155.878 60.0332C155.997 60.0332 156.116 60.0082 156.225 59.9599C156.335 59.9116 156.433 59.841 156.514 59.7526C156.594 59.6643 156.656 59.56 156.694 59.4466C156.732 59.3331 156.746 59.213 156.736 59.0938Z" fill="#004E87"/>
<path id="Vector_12" d="M161.474 57.2721C161.778 57.2516 162.084 57.2973 162.369 57.406C162.655 57.5147 162.913 57.6838 163.127 57.9018C163.341 58.1198 163.506 58.3814 163.609 58.6688C163.712 58.9563 163.752 59.2626 163.726 59.567C163.745 59.7713 163.745 59.9769 163.726 60.1813H160.4C160.471 61.0215 160.859 61.4381 161.622 61.4381C162.123 61.436 162.612 61.2915 163.034 61.0215L163.613 61.8971C163.008 62.3257 162.285 62.5552 161.544 62.5538C160.844 62.5538 160.172 62.2756 159.677 61.7803C159.182 61.2851 158.903 60.6133 158.903 59.9129C158.903 59.2125 159.182 58.5408 159.677 58.0456C160.172 57.5503 160.844 57.2721 161.544 57.2721M160.471 59.3904H162.497C162.497 58.7408 162.271 58.2818 161.58 58.2818C161.289 58.2923 161.013 58.4125 160.807 58.6182C160.602 58.8238 160.481 59.0998 160.471 59.3904Z" fill="#004E87"/>
<path id="Vector_13" d="M165.943 60.9792H164.531V62.3915H165.943V60.9792Z" fill="#004E87"/>
<path id="Vector_14" d="M167.249 62.0171C167.145 61.9328 167.063 61.8245 167.01 61.7015C166.957 61.5785 166.935 61.4445 166.945 61.311C166.951 61.1365 167.003 60.9666 167.096 60.8189C167.189 60.6712 167.32 60.551 167.475 60.4707C167.254 60.3074 167.076 60.0945 166.953 59.8491C166.83 59.6037 166.767 59.3328 166.769 59.0585C166.769 57.9499 167.687 57.2226 168.944 57.2226C169.448 57.2057 169.944 57.3545 170.356 57.6463C170.761 57.3405 171.262 57.1902 171.768 57.2226V58.1405C171.46 58.1247 171.151 58.1508 170.85 58.2182C170.978 58.4798 171.043 58.7674 171.041 59.0585C171.026 59.3196 170.958 59.5751 170.843 59.8099C170.728 60.0447 170.567 60.2541 170.37 60.4258C170.172 60.5975 169.942 60.728 169.694 60.8097C169.445 60.8914 169.183 60.9226 168.922 60.9014C168.663 60.9028 168.406 60.8623 168.16 60.7814C168.104 60.8012 168.055 60.8373 168.02 60.8852C167.984 60.933 167.964 60.9903 167.962 61.0497C167.962 61.2827 168.273 61.3957 169.374 61.431C170.864 61.4734 171.669 61.89 171.669 62.8432C171.669 63.7965 170.864 64.2978 169.106 64.2978C167.496 64.2978 166.578 63.8742 166.578 62.9562C166.602 62.7493 166.679 62.5523 166.803 62.385C166.927 62.2177 167.093 62.0859 167.284 62.003M168.202 62.4196C168.099 62.466 168.011 62.5414 167.95 62.6367C167.888 62.7319 167.856 62.8429 167.856 62.9562C167.856 63.3022 168.202 63.4929 169.085 63.4929C169.967 63.4929 170.419 63.3375 170.419 63.0339C170.419 62.7303 170.151 62.6102 169.198 62.5749C168.86 62.5701 168.525 62.5178 168.202 62.4196ZM169.847 59.0938C169.861 58.9766 169.848 58.8581 169.812 58.746C169.775 58.6339 169.715 58.5309 169.636 58.4439C169.556 58.357 169.459 58.2881 169.351 58.2418C169.242 58.1956 169.125 58.1731 169.007 58.1759C168.888 58.1748 168.77 58.198 168.66 58.2442C168.55 58.2904 168.451 58.3586 168.368 58.4445C168.285 58.5305 168.221 58.6324 168.179 58.744C168.137 58.8557 168.119 58.9747 168.125 59.0938C168.113 59.2141 168.128 59.3355 168.168 59.4497C168.208 59.5638 168.272 59.668 168.355 59.7551C168.439 59.8423 168.541 59.9103 168.653 59.9546C168.766 59.9989 168.886 60.0184 169.007 60.0117C169.125 60.0145 169.242 59.992 169.351 59.9457C169.459 59.8995 169.556 59.8306 169.636 59.7436C169.715 59.6567 169.775 59.5537 169.812 59.4416C169.848 59.3295 169.861 59.2109 169.847 59.0938Z" fill="#93122B"/>
<path id="Vector_15" d="M174.593 57.2721C174.931 57.2631 175.266 57.3236 175.58 57.4497C175.893 57.5757 176.176 57.7648 176.413 58.0051C176.65 58.2455 176.836 58.5319 176.957 58.8467C177.079 59.1616 177.135 59.498 177.121 59.8353C177.114 60.3337 176.96 60.8189 176.678 61.23C176.396 61.641 175.999 61.9595 175.537 62.1454C175.074 62.3313 174.567 62.3764 174.079 62.2749C173.591 62.1734 173.144 61.9299 172.794 61.575C172.444 61.2201 172.206 60.7697 172.112 60.2803C172.017 59.7909 172.069 59.2845 172.261 58.8246C172.454 58.3648 172.778 57.972 173.193 57.6958C173.608 57.4196 174.095 57.2722 174.593 57.2721ZM174.593 61.5088C175.299 61.5088 175.709 60.8591 175.709 59.8635C175.709 58.8679 175.243 58.3313 174.593 58.3313C173.944 58.3313 173.449 58.9456 173.449 59.8635C173.449 60.7815 173.866 61.5088 174.593 61.5088Z" fill="#93122B"/>
<path id="Vector_16" d="M177.467 57.385H178.843L179.917 60.9014L180.983 57.385H182.289L180.602 62.3984H179.147L177.467 57.385Z" fill="#93122B"/>
<path id="Vector_17" d="M63.2887 0.408936H0.917969V62.815H63.2887V0.408936Z" fill="#004E87"/>
<path id="Vector_18" d="M51.2002 42.6907L49.8233 39.2873L48.291 42.6907H44.9229L49.7032 32.1697L54.4907 42.6907H51.2002Z" fill="white"/>
<path id="Vector_19" d="M47.0625 44.9857L45.3043 48.9682L49.5551 46.7863L51.9276 48.6222L43.6238 52.6753H40.3333L44.69 42.8462L47.0625 44.9857Z" fill="white"/>
<path id="Vector_20" d="M58.8119 52.6753H55.253L52.0403 45.0281L54.3351 42.7686L58.8119 52.6753Z" fill="white"/>
<path id="Vector_21" d="M37.7702 32.8195C37.7702 32.8195 37.2688 35.764 37.3465 35.9194C35.5106 35.0014 32.8698 34.4295 31.1469 35.4251C30.7098 35.7426 30.3953 36.201 30.2564 36.7231C30.1175 37.2452 30.1626 37.7992 30.3842 38.2919C33.251 41.427 38.2997 40.6997 38.568 46.7087C38.5758 47.5199 38.4133 48.3236 38.091 49.068C37.7687 49.8124 37.2938 50.4808 36.6969 51.0302C34.0207 53.1485 30.1512 52.9861 27.0514 51.8775L27.362 48.6223C29.1556 49.5826 32.4884 50.4582 34.4232 48.6576C34.7375 48.2881 34.9644 47.8522 35.0867 47.3827C35.209 46.9132 35.2235 46.4221 35.1293 45.9461C34.0207 42.7333 25.2438 42.8463 26.9031 36.1877C27.134 35.3629 27.5598 34.6058 28.1448 33.9802C28.7298 33.3547 29.4568 32.8791 30.2642 32.5936C32.4885 31.5203 35.5883 32.1346 37.7702 32.8195Z" fill="white"/>
<path id="Vector_22" d="M21.699 33.2433L21.5789 36.5338C19.1358 34.9663 14.8497 34.4155 12.0535 36.0325C9.56797 37.4871 8.76303 39.6689 8.72772 42.2745C8.62683 43.6742 8.93901 45.0726 9.62562 46.2965C10.3122 47.5203 11.343 48.5157 12.5901 49.1591C14.3907 50.1123 18.6344 49.6534 18.6344 49.6534V44.64H14.998V41.5472H22.0591V52.0683C18.1967 53.2122 13.0703 53.2898 9.70216 50.995C6.06569 48.5095 5.41602 45.4873 5.41602 42.2745C5.41602 37.9884 7.97923 33.434 13.035 32.4737C15.945 31.913 18.954 32.1796 21.7201 33.2433" fill="white"/>
<path id="Vector_23" d="M69.6366 2.78144C69.8239 2.78144 70.0035 2.70706 70.1359 2.57464C70.2683 2.44221 70.3427 2.2626 70.3427 2.07533C70.3412 1.95774 70.3039 1.84341 70.2358 1.74755C70.1677 1.65169 70.072 1.57882 69.9615 1.53868C69.7549 1.4584 69.5314 1.43169 69.3118 1.46102H68.5068V3.83354H68.8882V2.83794H69.1211C69.4248 2.83794 69.5378 2.95091 69.8273 3.48755L70.0533 3.86886H70.5123L70.2086 3.40989C69.9403 2.95092 69.8273 2.83793 69.6296 2.76026M69.3259 2.45663H68.867V1.75052H69.2906C69.7496 1.75052 69.8979 1.82819 69.8979 2.09651C69.8979 2.36483 69.7072 2.47782 69.3259 2.47782" fill="#004A81"/>
<path id="Vector_24" d="M69.4462 0.423096C69.0063 0.423096 68.5762 0.553555 68.2104 0.797959C67.8446 1.04236 67.5596 1.38974 67.3912 1.79616C67.2229 2.20259 67.1788 2.64981 67.2647 3.08127C67.3505 3.51273 67.5623 3.90906 67.8734 4.22012C68.1845 4.53119 68.5807 4.74303 69.0122 4.82886C69.4437 4.91468 69.8909 4.87063 70.2974 4.70228C70.7038 4.53393 71.0512 4.24886 71.2956 3.88308C71.54 3.5173 71.6704 3.08726 71.6704 2.64734C71.6704 2.05743 71.436 1.49169 71.0189 1.07456C70.6018 0.657431 70.0361 0.423096 69.4462 0.423096ZM69.4462 4.48323C69.0811 4.48463 68.7238 4.37755 68.4196 4.17558C68.1155 3.97361 67.8782 3.68586 67.7378 3.34882C67.5974 3.01178 67.5604 2.64063 67.6313 2.28248C67.7021 1.92432 67.8778 1.5953 68.1359 1.33713C68.3941 1.07897 68.7232 0.903301 69.0813 0.832415C69.4395 0.76153 69.8106 0.798633 70.1476 0.938996C70.4847 1.07936 70.7725 1.31665 70.9744 1.6208C71.1764 1.92495 71.2835 2.28224 71.2821 2.64734C71.2748 3.13198 71.079 3.59472 70.7363 3.93745C70.3935 4.28018 69.9308 4.47595 69.4462 4.48323Z" fill="#004A81"/>
<path id="Vector_25" d="M84.5218 32.283H89.5776L93.0587 52.3365H88.6172L88.0806 48.5871H80.7017L78.8588 52.3365H74.0007L84.5218 32.283ZM82.3046 45.2542H87.544L86.3647 37.141H86.3223L82.3046 45.2542Z" fill="#93122B"/>
<path id="Vector_26" d="M93.7434 46.4051C93.7434 40.9328 96.9986 36.682 101.285 36.682C102.04 36.6627 102.792 36.7952 103.496 37.0718C104.199 37.3483 104.84 37.7632 105.38 38.2919L106.715 30.7153H110.888L107.061 52.3365H103.615L103.693 50.2181C103.137 50.9727 102.41 51.5845 101.571 52.0031C100.733 52.4217 99.8069 52.6352 98.8698 52.626C96.1583 52.626 93.7434 50.4441 93.7434 46.391M103.883 46.737L104.921 40.8763C104.153 40.1648 103.144 39.769 102.097 39.7677C99.6889 39.7677 97.966 42.5921 97.966 45.9673C97.966 48.4952 98.9969 49.4485 100.296 49.4485C101.595 49.4485 102.902 48.3822 103.827 46.737" fill="#93122B"/>
<path id="Vector_27" d="M111.078 36.9502H114.905L116.204 47.7819H116.282L121.331 36.9502H125.539L117.814 52.3363H113.338L111.078 36.9502Z" fill="#93122B"/>
<path id="Vector_28" d="M124.127 46.4405C124.127 40.9328 127.418 36.6467 131.739 36.6467C132.54 36.6254 133.335 36.7823 134.068 37.1059C134.801 37.4295 135.452 37.9118 135.976 38.5179L136.477 36.9927H140.227L138.271 48.0504C138.229 48.2835 138.205 48.5196 138.2 48.7565C138.2 49.3708 138.582 49.6038 139.267 49.6038L138.772 52.506C136.435 52.626 134.754 52.1247 134.253 50.3876C133.688 51.138 132.953 51.7441 132.109 52.1565C131.264 52.5688 130.334 52.7756 129.395 52.7601C126.571 52.6825 124.156 50.5783 124.156 46.4828M135.326 40.9751C134.557 40.2655 133.549 39.87 132.502 39.8665C130.129 39.8665 128.329 42.6557 128.329 46.1015C128.329 48.5517 129.36 49.5473 130.666 49.5473C131.972 49.5473 133.3 48.4741 134.26 46.8288L135.326 40.9751Z" fill="#93122B"/>
<path id="Vector_29" d="M151.87 42.6909C151.951 42.2097 152 41.7238 152.019 41.2363C152.046 41.0476 152.03 40.8551 151.971 40.6738C151.912 40.4924 151.812 40.3271 151.679 40.1905C151.545 40.054 151.383 39.9499 151.203 39.8864C151.023 39.8228 150.831 39.8015 150.642 39.8241C149.23 39.8241 147.888 41.0103 146.589 42.9239L144.943 52.3717H140.707L143.383 36.9926H146.864V39.3651C147.49 38.5536 148.289 37.8918 149.202 37.4277C150.116 36.9636 151.121 36.7088 152.146 36.6819C154.744 36.6819 156.241 38.3271 156.241 40.629C156.214 41.4748 156.124 42.3173 155.973 43.1499L154.328 52.3717H150.155L151.87 42.6909Z" fill="#93122B"/>
<path id="Vector_30" d="M159.786 39.9653H157.378L157.915 36.9785H160.288L160.994 33.1514H165.167L164.461 36.9785H168.599L168.097 39.9653H163.931L162.667 47.0264C162.596 47.4181 162.556 47.8148 162.547 48.2127C162.547 49.0177 162.893 49.3637 163.663 49.3637C164.43 49.2981 165.164 49.0193 165.781 48.5587L167.08 51.3478C165.68 52.2546 164.046 52.7332 162.378 52.7248C159.928 52.7248 158.247 51.2772 158.247 49.0177C158.276 48.2075 158.364 47.4005 158.508 46.6028L159.786 39.9653Z" fill="#93122B"/>
<path id="Vector_31" d="M168.627 46.4405C168.627 40.9328 171.917 36.6467 176.239 36.6467C177.039 36.6254 177.835 36.7823 178.567 37.1059C179.3 37.4295 179.952 37.9118 180.475 38.5179L180.977 36.9927H184.726L182.777 48.0504C182.729 48.2828 182.703 48.5192 182.7 48.7565C182.7 49.3708 183.081 49.6038 183.766 49.6038L183.271 52.506C180.934 52.626 179.254 52.1247 178.759 50.3876C178.192 51.1378 177.456 51.7435 176.611 52.1558C175.765 52.568 174.835 52.7751 173.894 52.7601C171.07 52.6825 168.655 50.5783 168.655 46.4828M179.826 40.9751C179.056 40.2655 178.048 39.87 177.001 39.8665C174.629 39.8665 172.828 42.6557 172.828 46.1015C172.828 48.5517 173.859 49.5473 175.165 49.5473C176.472 49.5473 177.806 48.4741 178.759 46.8288L179.826 40.9751Z" fill="#93122B"/>
<path id="Vector_32" d="M194.95 50.1898C194.395 50.8407 193.702 51.36 192.922 51.7105C192.142 52.061 191.293 52.2338 190.438 52.2164C187.988 52.2164 185.425 50.4581 185.425 46.1367C185.425 40.7421 188.75 36.6819 193.036 36.6819C193.814 36.6611 194.587 36.8037 195.306 37.1005C196.025 37.3973 196.673 37.8416 197.21 38.4048L197.669 36.9926H201.453L198.819 51.9127C198.113 56.0859 195.91 58.3807 190.742 58.3807C188.562 58.3661 186.445 57.6561 184.697 56.3542L186.568 53.5297C187.842 54.4542 189.36 54.9845 190.932 55.0549C193.001 55.0549 194.223 54.1793 194.646 51.6938L194.95 50.1898ZM196.595 40.855C195.831 40.1408 194.817 39.7554 193.771 39.7817C191.434 39.7817 189.633 42.5003 189.633 45.9037C189.633 48.241 190.706 49.2366 191.935 49.2366C193.347 49.2366 194.533 48.1633 195.607 46.518L196.595 40.855Z" fill="#93122B"/>
<path id="Vector_33" d="M210.796 36.6113C214.235 36.6113 216.445 38.5178 216.445 40.968C216.445 43.9902 212.956 45.6354 207.795 45.6354H205.726V45.8261C205.726 48.2763 206.799 49.3143 208.868 49.3143C210.334 49.2378 211.756 48.7882 212.999 48.008L214.531 50.8324C212.703 52.0725 210.54 52.7253 208.331 52.7036C204.271 52.7036 201.44 50.1404 201.44 45.9744C201.419 44.7421 201.646 43.5182 202.108 42.3757C202.57 41.2332 203.258 40.1954 204.13 39.3243C205.001 38.4531 206.04 37.7665 207.182 37.3052C208.325 36.844 209.549 36.6176 210.782 36.6396M206.185 43.1005H207.795C211.276 43.1005 212.385 42.1472 212.385 41.1163C212.385 40.3114 211.678 39.6617 210.436 39.6617C208.635 39.6617 206.955 40.9963 206.199 43.1005" fill="#93122B"/>
<path id="Vector_34" d="M218.174 48.5871H222.46L221.81 52.3365H217.524L218.174 48.5871ZM220.434 36.1525L221.14 32.283H225.376L224.67 36.1525L221.803 46.1369H219.685L220.434 36.1525Z" fill="#93122B"/>
<path id="Vector_35" d="M228.47 34.6554C228.657 34.6554 228.837 34.581 228.969 34.4486C229.101 34.3162 229.176 34.1366 229.176 33.9493C229.175 33.8306 229.137 33.7152 229.067 33.619C228.998 33.5229 228.9 33.4508 228.787 33.4127C228.581 33.3309 228.357 33.3041 228.138 33.335H227.34V35.7287H227.721V34.7331H227.947C228.258 34.7331 228.371 34.8461 228.653 35.3827L228.886 35.764H229.345L229.035 35.305C228.766 34.8884 228.618 34.7331 228.463 34.6554M228.159 34.3871H227.7V33.681H228.117C228.576 33.681 228.731 33.7587 228.731 34.027C228.731 34.2953 228.54 34.4083 228.159 34.4083" fill="#93122B"/>
<path id="Vector_36" d="M228.279 32.283C227.838 32.2816 227.408 32.4108 227.041 32.6544C226.674 32.8979 226.388 33.2448 226.219 33.6511C226.049 34.0575 226.004 34.5049 226.089 34.9368C226.174 35.3687 226.386 35.7657 226.696 36.0775C227.007 36.3893 227.403 36.6018 227.835 36.6882C228.267 36.7746 228.714 36.731 229.121 36.5628C229.528 36.3947 229.876 36.1096 230.121 35.7437C230.365 35.3778 230.496 34.9474 230.496 34.5072C230.496 33.9185 230.263 33.3539 229.847 32.9369C229.431 32.52 228.867 32.2848 228.279 32.283ZM228.279 36.3784C227.916 36.3784 227.561 36.2707 227.259 36.069C226.957 35.8673 226.721 35.5806 226.583 35.2451C226.444 34.9096 226.407 34.5405 226.478 34.1844C226.549 33.8282 226.724 33.5011 226.981 33.2444C227.237 32.9876 227.564 32.8128 227.921 32.7419C228.277 32.6711 228.646 32.7074 228.981 32.8464C229.317 32.9853 229.603 33.2207 229.805 33.5226C230.007 33.8245 230.115 34.1794 230.115 34.5425C230.109 35.0277 229.914 35.4915 229.571 35.8346C229.228 36.1777 228.764 36.3729 228.279 36.3784Z" fill="#93122B"/>
</g>
</svg>
