<svg width="115" height="107" viewBox="0 0 115 107" fill="none" xmlns="http://www.w3.org/2000/svg">
<g id="Group 408">
<path id="Vector" d="M48.1265 92.8425C39.4718 91.5352 30.6622 87.2761 22.9458 80.5118C24.778 77.4042 26.8946 74.4734 29.2683 71.7568C33.336 81.1313 39.8362 88.5926 48.1265 92.8425Z" fill="#FF8136"/>
<path id="Vector_2" d="M24.4532 47.7239C19.3879 49.3364 10.8197 53.1901 5.9412 56.8342C2.1149 47.897 0.516096 38.7503 1.03082 30.3188C9.01595 27.2304 18.1262 26.1008 27.537 27.0391C25.4031 33.7233 24.3617 40.708 24.4532 47.7239Z" fill="#FF8136"/>
<path id="Vector_3" d="M24.6904 53.0989C25.067 57.6145 25.9392 62.075 27.2914 66.3998C24.2075 69.5791 21.4726 73.0791 19.1332 76.8402C15.7943 73.36 10.4785 66.1721 8.20093 61.5395C12.5465 57.9956 20.4542 54.5656 24.6904 53.0989Z" fill="#FF8136"/>
<path id="Vector_4" d="M38.6471 77.51C33.4634 70.4723 30.2293 61.2254 29.5642 50.981C33.0549 50.0801 36.6216 49.5053 40.2186 49.2637C36.4652 58.7611 35.7774 68.6412 38.6471 77.51Z" fill="#0075BF"/>
<path id="Vector_5" d="M53.8018 28.8658C49.0827 26.4288 40.2913 23.0945 34.2649 22.2153C37.8725 13.2098 43.202 5.59824 49.5382 0C57.3639 3.46189 64.6111 9.11024 70.5965 16.4258C64.3655 19.6419 58.6943 23.8426 53.8018 28.8658Z" fill="#0075BF"/>
<path id="Vector_6" d="M50.1622 32.8378C47.2386 36.2967 44.7043 40.0667 42.6052 44.0798C38.1771 44.1528 33.7691 44.6933 29.4546 45.6923C29.5457 40.873 30.8621 32.027 32.5293 27.1348C38.123 27.7042 46.1355 30.87 50.1622 32.8378Z" fill="#0075BF"/>
<path id="Vector_7" d="M42.7695 59.959C44.0814 51.3043 48.3313 42.4901 55.1002 34.7783C58.2091 36.6086 61.1401 38.7253 63.8551 41.1008C54.4807 45.1685 47.0195 51.6687 42.7695 59.959Z" fill="#B8D637"/>
<path id="Vector_8" d="M87.8878 36.286C86.2708 31.2207 82.4217 22.648 78.7776 17.774C87.7011 13.9477 96.8523 12.3443 105.284 12.859C108.368 20.8396 109.502 29.9544 108.568 39.3652C101.885 37.2334 94.902 36.1937 87.8878 36.286Z" fill="#B8D637"/>
<path id="Vector_9" d="M82.5082 36.5183C77.9932 36.8938 73.5337 37.7692 69.2118 39.1284C66.0357 36.0422 62.5353 33.3084 58.7715 30.9748C62.2516 27.6268 69.435 22.32 74.0767 20.0425C77.6206 24.379 81.046 32.2821 82.5082 36.5183Z" fill="#B8D637"/>
<path id="Vector_10" d="M61.719 92.642L55.565 83.2767V92.642H53.5425V79.3274H55.3964L61.5504 88.6791V79.3274H63.5683V92.642H61.719Z" fill="black"/>
<path id="Vector_11" d="M76.7687 92.642V83.7413L73.7213 90.2323H72.2227L69.0842 83.7413V92.642H67.0618V79.3274H69.0842L72.9697 87.6132L76.7869 79.3274H78.8049V92.642H76.7687Z" fill="black"/>
<path id="Vector_12" d="M85.7788 92.7557C83.7791 92.7557 82.3397 92.3002 81.0688 90.9975L82.4126 89.6719C82.8575 90.1139 83.3916 90.4558 83.9791 90.675C84.5667 90.8941 85.1942 90.9854 85.8199 90.9428C87.5554 90.9428 88.5529 90.1958 88.5529 88.9021C88.5665 88.6503 88.5269 88.3985 88.4366 88.163C88.3464 87.9276 88.2075 87.7138 88.0291 87.5356C87.6214 87.1878 87.107 86.9901 86.5714 86.9753L84.9999 86.7521C84.0693 86.6641 83.1882 86.292 82.4764 85.6862C82.1426 85.3561 81.883 84.9587 81.7149 84.5204C81.5468 84.0821 81.4741 83.613 81.5016 83.1444C81.5016 80.8259 83.187 79.2361 85.9519 79.2361C86.708 79.1928 87.465 79.3047 88.1763 79.5647C88.8876 79.8248 89.5382 80.2276 90.088 80.7484L88.7943 82.0193C88.4057 81.6616 87.9487 81.3863 87.4507 81.2102C86.9528 81.034 86.4244 80.9606 85.8973 80.9944C84.3257 80.9944 83.4648 81.9054 83.4648 83.067C83.4537 83.2972 83.4933 83.5271 83.5806 83.7403C83.668 83.9536 83.801 84.1452 83.9705 84.3014C84.4032 84.6423 84.922 84.8567 85.4691 84.9209L86.9814 85.1441C88.2158 85.3309 88.9082 85.6315 89.4685 86.1371C89.8377 86.486 90.1261 86.9114 90.3134 87.3836C90.5007 87.8557 90.5823 88.3631 90.5526 88.8702C90.5754 91.2981 88.5666 92.7557 85.7788 92.7557Z" fill="black"/>
<path id="Vector_13" d="M101.394 91.3894C100.932 91.8153 100.39 92.1452 99.8 92.3602C99.2097 92.5753 98.5825 92.6711 97.9549 92.6421H93.2769V79.3275H97.9549C98.5824 79.2995 99.2092 79.3958 99.7994 79.6108C100.39 79.8257 100.932 80.1552 101.394 80.5801C102.833 82.0241 102.761 83.9691 102.761 85.8914C102.761 87.8137 102.833 89.95 101.394 91.3894ZM100.028 82.0423C99.739 81.7313 99.385 81.4883 98.9912 81.3308C98.5973 81.1732 98.1734 81.1051 97.75 81.1313H95.2993V90.8292H97.75C98.1734 90.8554 98.5973 90.7873 98.9912 90.6297C99.385 90.4722 99.739 90.2291 100.028 89.9181C100.72 89.1529 100.738 87.7135 100.738 85.8777C100.738 84.042 100.702 82.8076 100.009 82.0423H100.028Z" fill="black"/>
<path id="Vector_14" d="M110.03 92.7559C109.382 92.7658 108.739 92.6451 108.139 92.4009C107.539 92.1568 106.994 91.7941 106.537 91.3347C105.225 90.0274 105.243 88.547 105.243 85.987C105.243 83.427 105.243 81.9466 106.537 80.6393C106.994 80.1799 107.539 79.8172 108.139 79.5731C108.739 79.3289 109.382 79.2082 110.03 79.2181C112.481 79.2181 114.317 80.6575 114.781 83.3177H112.727C112.408 81.9512 111.511 81.0401 110.03 81.0401C109.665 81.0329 109.303 81.1007 108.965 81.2394C108.627 81.3781 108.322 81.5847 108.067 81.8464C107.416 82.5524 107.265 83.3223 107.265 85.9961C107.265 88.67 107.416 89.4352 108.067 90.1458C108.322 90.4075 108.627 90.6142 108.965 90.7528C109.303 90.8915 109.665 90.9594 110.03 90.9521C111.511 90.9521 112.426 90.0183 112.763 88.6745H114.8C114.335 91.3165 112.44 92.7559 110.03 92.7559Z" fill="black"/>
<path id="Vector_15" d="M115 73.301H94.7524V75.1003H115V73.301Z" fill="#FF8136"/>
<path id="Vector_16" d="M97.4538 103.219H53.5835V105.018H97.4538V103.219Z" fill="#B8D637"/>
<path id="Vector_17" d="M64.6069 96.4729H53.5835V98.2722H64.6069V96.4729Z" fill="#0075BF"/>
<path id="Vector_18" d="M115 96.4729H81.9297V98.2722H115V96.4729Z" fill="#0075BF"/>
<path id="Vector_19" d="M56.9449 75.8245C56.8764 76.3198 56.6323 76.7741 56.2571 77.1045C55.8882 77.4082 55.4228 77.5698 54.9452 77.56C54.665 77.5646 54.3866 77.5151 54.1252 77.4143C53.8883 77.3187 53.6741 77.1743 53.4966 76.9906C53.3684 76.8673 53.2608 76.7243 53.1778 76.567C53.0976 76.415 53.0393 76.2525 53.0047 76.0842C52.9653 75.8861 52.9439 75.6848 52.9409 75.4829C52.9409 75.2597 52.9409 75.0046 52.9409 74.7085C52.9409 74.4124 52.9409 74.1573 52.9409 73.9341C52.9439 73.7322 52.9653 73.5309 53.0047 73.3329C53.0393 73.1646 53.0976 73.002 53.1778 72.85C53.2608 72.6927 53.3684 72.5497 53.4966 72.4264C53.6754 72.2442 53.8892 72.1001 54.1252 72.0028C54.3866 71.9019 54.665 71.8524 54.9452 71.857C55.4231 71.8456 55.889 72.0074 56.2571 72.3125C56.6339 72.6417 56.8784 73.0966 56.9449 73.5925H56.0794C56.0259 73.3263 55.8942 73.0821 55.7013 72.891C55.4939 72.7064 55.2226 72.6099 54.9452 72.6223C54.7904 72.6179 54.6364 72.6466 54.4935 72.7063C54.3505 72.766 54.2219 72.8553 54.1161 72.9685C54.044 73.0393 53.9853 73.1226 53.943 73.2144C53.8956 73.319 53.8619 73.4292 53.8428 73.5424C53.8131 73.6926 53.7948 73.8449 53.7882 73.9979C53.7882 74.1892 53.7882 74.4215 53.7882 74.6994C53.7882 74.9773 53.7882 75.2096 53.7882 75.4009C53.7942 75.5615 53.8125 75.7214 53.8428 75.8792C53.8619 75.9909 53.8956 76.0996 53.943 76.2026C53.9853 76.2944 54.044 76.3778 54.1161 76.4486C54.2212 76.5627 54.3496 76.6527 54.4927 76.7124C54.6358 76.7722 54.7902 76.8003 54.9452 76.7948C55.2226 76.8071 55.4939 76.7107 55.7013 76.526C55.9015 76.3385 56.0385 76.0934 56.0931 75.8245H56.9449Z" fill="black"/>
<path id="Vector_20" d="M58.4392 77.5007V71.8979H62.0241V72.6587H59.291V74.2985H61.6232V75.0547H59.291V76.74H62.0241V77.5007H58.4392Z" fill="black"/>
<path id="Vector_21" d="M66.6427 77.5007L65.4629 75.1412H64.4016V77.5007H63.5498V71.8979H65.7225C65.9676 71.8945 66.2113 71.9346 66.4423 72.0163C66.6459 72.0917 66.8319 72.208 66.9889 72.358C67.1458 72.5031 67.2674 72.6823 67.3442 72.8818C67.4277 73.0903 67.4695 73.3132 67.4672 73.5377C67.4858 73.8932 67.3704 74.2427 67.1438 74.5171C66.9365 74.7625 66.6604 74.9402 66.3512 75.0273L67.6403 77.5053L66.6427 77.5007ZM66.6154 73.5423C66.6214 73.421 66.6009 73.2999 66.5553 73.1874C66.5096 73.0749 66.44 72.9737 66.3512 72.8909C66.1574 72.7299 65.9105 72.6471 65.6588 72.6586H64.4016V74.4169H65.6588C65.9097 74.4279 66.1559 74.3469 66.3512 74.1891C66.4399 74.1072 66.5095 74.0069 66.5552 73.8951C66.6008 73.7833 66.6214 73.6629 66.6154 73.5423Z" fill="black"/>
<path id="Vector_22" d="M70.8518 72.6587V77.5007H70V72.6587H68.4558V71.8979H72.3914V72.6587H70.8518Z" fill="black"/>
<path id="Vector_23" d="M73.7217 77.5007V71.8979H74.5735V77.5007H73.7217Z" fill="black"/>
<path id="Vector_24" d="M77.2517 72.6587V74.3714H79.5839V75.1321H77.2517V77.5007H76.3999V71.8979H79.9848V72.6587H77.2517Z" fill="black"/>
<path id="Vector_25" d="M81.3696 77.5007V71.8979H82.2214V77.5007H81.3696Z" fill="black"/>
<path id="Vector_26" d="M84.0479 77.5007V71.8979H87.6282V72.6587H84.8951V74.2985H87.2273V75.0547H84.8951V76.74H87.6282V77.5007H84.0479Z" fill="black"/>
<path id="Vector_27" d="M93.1401 74.704C93.1401 74.9318 93.1401 75.1595 93.1401 75.3417C93.1345 75.5295 93.1163 75.7167 93.0854 75.902C93.0586 76.0667 93.0159 76.2284 92.9579 76.3848C92.8997 76.5339 92.8199 76.6736 92.721 76.7994C92.54 77.031 92.3055 77.2154 92.0377 77.3369C91.7496 77.4573 91.4389 77.5148 91.1267 77.5054H89.1589V71.9026H91.1267C91.4389 71.8932 91.7496 71.9507 92.0377 72.0711C92.3049 72.1936 92.5391 72.3779 92.721 72.6086C92.8199 72.7344 92.8997 72.8741 92.9579 73.0232C93.0159 73.1796 93.0586 73.3413 93.0854 73.506C93.1163 73.6913 93.1345 73.8785 93.1401 74.0663C93.1401 74.2485 93.1401 74.4762 93.1401 74.704ZM92.2929 74.704C92.2961 74.3602 92.2794 74.0164 92.2428 73.6745C92.2264 73.4427 92.1389 73.2216 91.9922 73.0414C91.8779 72.9099 91.7322 72.8096 91.5686 72.7499C91.3969 72.6853 91.2144 72.6544 91.0311 72.6587H90.0062V76.7584H91.0311C91.2143 76.7604 91.3963 76.7295 91.5686 76.6673C91.7316 76.6042 91.8769 76.5026 91.9922 76.3712C92.138 76.1922 92.2254 75.9728 92.2428 75.7426C92.2794 75.3976 92.2961 75.0509 92.2929 74.704Z" fill="black"/>
<path id="Vector_28" d="M98.5835 106.362V105.624L100.802 102.928C100.896 102.813 100.975 102.686 101.034 102.549C101.085 102.425 101.11 102.292 101.107 102.158C101.117 101.927 101.039 101.7 100.888 101.525C100.808 101.442 100.71 101.377 100.603 101.336C100.495 101.294 100.38 101.276 100.264 101.283C100.158 101.283 100.052 101.298 99.95 101.329C99.8515 101.363 99.7603 101.415 99.6813 101.484C99.5964 101.56 99.5308 101.655 99.49 101.761C99.4376 101.892 99.4128 102.031 99.4171 102.171H98.5881C98.5868 101.943 98.6302 101.718 98.7156 101.506C98.793 101.312 98.911 101.137 99.0618 100.992C99.216 100.848 99.3972 100.737 99.5948 100.664C99.8089 100.584 100.036 100.544 100.264 100.545C100.497 100.541 100.729 100.58 100.948 100.659C101.144 100.728 101.322 100.838 101.471 100.982C101.62 101.127 101.736 101.301 101.813 101.493C101.898 101.707 101.94 101.936 101.936 102.167C101.943 102.392 101.895 102.616 101.795 102.818C101.683 103.029 101.549 103.228 101.394 103.41L99.572 105.624H101.922V106.362H98.5835Z" fill="black"/>
<path id="Vector_29" d="M106.213 104.768C106.216 105.005 106.171 105.241 106.081 105.46C105.999 105.654 105.878 105.83 105.726 105.975C105.574 106.121 105.392 106.233 105.193 106.303C104.984 106.38 104.764 106.419 104.541 106.417C104.322 106.419 104.104 106.38 103.899 106.303C103.7 106.232 103.519 106.121 103.366 105.975C103.214 105.83 103.093 105.654 103.011 105.46C102.919 105.241 102.873 105.005 102.874 104.768V102.208C102.869 101.971 102.912 101.735 103.002 101.515C103.085 101.318 103.209 101.14 103.366 100.993C103.523 100.847 103.709 100.736 103.913 100.668C104.118 100.591 104.336 100.552 104.555 100.554C104.777 100.552 104.998 100.591 105.206 100.668C105.406 100.738 105.588 100.85 105.739 100.996C105.893 101.142 106.014 101.319 106.095 101.515C106.185 101.735 106.23 101.97 106.227 102.208L106.213 104.768ZM105.384 102.231C105.395 101.986 105.315 101.746 105.161 101.556C105.082 101.473 104.986 101.406 104.881 101.361C104.775 101.315 104.661 101.292 104.546 101.292C104.431 101.292 104.317 101.315 104.211 101.361C104.105 101.406 104.01 101.473 103.931 101.556C103.776 101.746 103.697 101.986 103.708 102.231V104.74C103.697 104.986 103.776 105.228 103.931 105.419C104.011 105.502 104.106 105.567 104.212 105.612C104.318 105.656 104.431 105.68 104.546 105.68C104.661 105.68 104.774 105.656 104.88 105.612C104.985 105.567 105.081 105.502 105.161 105.419C105.316 105.228 105.395 104.986 105.384 104.74V102.231Z" fill="black"/>
<path id="Vector_30" d="M107.215 106.362V105.624L109.434 102.927C109.53 102.813 109.609 102.686 109.671 102.549C109.72 102.425 109.744 102.292 109.743 102.158C109.754 101.926 109.675 101.7 109.525 101.524C109.444 101.442 109.347 101.378 109.239 101.336C109.131 101.294 109.016 101.276 108.901 101.283C108.793 101.282 108.685 101.297 108.582 101.329C108.476 101.365 108.38 101.425 108.301 101.504C108.222 101.583 108.163 101.678 108.126 101.784C108.074 101.914 108.049 102.054 108.053 102.194H107.229C107.226 101.966 107.268 101.74 107.352 101.529C107.431 101.334 107.551 101.159 107.703 101.014C107.854 100.87 108.034 100.758 108.231 100.686C108.447 100.606 108.675 100.566 108.905 100.568C109.137 100.564 109.366 100.603 109.584 100.682C109.781 100.75 109.962 100.86 110.112 101.005C110.261 101.148 110.376 101.323 110.449 101.515C110.534 101.73 110.576 101.959 110.572 102.189C110.578 102.414 110.531 102.637 110.436 102.841C110.322 103.052 110.186 103.251 110.03 103.433L108.208 105.647H110.559V106.385L107.215 106.362Z" fill="black"/>
<path id="Vector_31" d="M114.895 104.741C114.899 104.991 114.85 105.24 114.749 105.469C114.664 105.671 114.535 105.852 114.371 105.998C114.208 106.139 114.017 106.246 113.811 106.312C113.59 106.382 113.36 106.418 113.128 106.417C112.904 106.417 112.682 106.387 112.467 106.326C112.265 106.266 112.076 106.167 111.912 106.034C111.745 105.895 111.611 105.721 111.52 105.524C111.413 105.296 111.359 105.047 111.36 104.795H112.189C112.19 104.934 112.221 105.071 112.281 105.196C112.335 105.297 112.406 105.387 112.49 105.465C112.575 105.538 112.674 105.592 112.782 105.624C112.894 105.655 113.011 105.671 113.128 105.67C113.376 105.677 113.617 105.589 113.802 105.424C113.894 105.332 113.965 105.221 114.01 105.099C114.056 104.978 114.075 104.848 114.066 104.718C114.081 104.465 113.996 104.216 113.829 104.025C113.734 103.934 113.619 103.864 113.495 103.82C113.37 103.776 113.237 103.759 113.105 103.77H112.964V103.046H113.105C113.226 103.057 113.347 103.042 113.462 103.001C113.576 102.96 113.679 102.895 113.765 102.809C113.916 102.632 113.992 102.404 113.98 102.171C113.981 102.002 113.933 101.836 113.843 101.693C113.752 101.549 113.621 101.436 113.467 101.365C113.313 101.294 113.142 101.269 112.974 101.294C112.807 101.318 112.65 101.39 112.522 101.502C112.36 101.663 112.267 101.88 112.262 102.108H111.433C111.443 101.881 111.495 101.659 111.588 101.452C111.674 101.264 111.798 101.097 111.953 100.96C112.106 100.821 112.286 100.715 112.481 100.646C112.688 100.571 112.907 100.534 113.128 100.536C113.358 100.535 113.586 100.575 113.802 100.655C113.999 100.728 114.179 100.841 114.33 100.987C114.481 101.131 114.599 101.305 114.677 101.497C114.764 101.703 114.808 101.925 114.804 102.149C114.815 102.417 114.748 102.682 114.613 102.914C114.485 103.114 114.301 103.272 114.084 103.369C114.326 103.473 114.532 103.646 114.677 103.866C114.835 104.129 114.911 104.434 114.895 104.741Z" fill="black"/>
<path id="Vector_32" d="M70.0134 100.212V95.9535L68.4784 99.3288H67.9682L66.4103 95.9535V100.212H65.8091V94.6143H66.4331L68.2552 98.5909L70.0317 94.6143H70.6329V100.212H70.0134Z" fill="black"/>
<path id="Vector_33" d="M74.6324 100.212H72.4504V94.6143H74.5595C75.5388 94.6143 76.213 95.1745 76.213 96.1129C76.219 96.3773 76.1429 96.637 75.9953 96.8565C75.8476 97.0759 75.6357 97.2442 75.3885 97.3382C75.6618 97.4347 75.8973 97.6155 76.0611 97.8546C76.2248 98.0937 76.3083 98.3787 76.2995 98.6683C76.2813 99.6841 75.6072 100.212 74.6324 100.212ZM74.5139 95.1426H73.0472V97.0877H74.5139C75.138 97.0877 75.6163 96.7779 75.6163 96.1083C75.6163 95.4387 75.1197 95.1518 74.4957 95.1518L74.5139 95.1426ZM74.5777 97.6206H73.0472V99.675H74.5777C74.7183 99.6844 74.8594 99.6648 74.9922 99.6174C75.1249 99.57 75.2465 99.4959 75.3494 99.3996C75.4524 99.3033 75.5344 99.1868 75.5905 99.0575C75.6466 98.9282 75.6756 98.7888 75.6756 98.6478C75.6756 98.5069 75.6466 98.3674 75.5905 98.2381C75.5344 98.1088 75.4524 97.9924 75.3494 97.8961C75.2465 97.7998 75.1249 97.7256 74.9922 97.6783C74.8594 97.6309 74.7183 97.6113 74.5777 97.6206Z" fill="black"/>
<path id="Vector_34" d="M77.8894 100.212V94.6143H81.3695V95.1518H78.4861V97.1287H80.9459V97.6616H78.4861V99.6841H81.3695V100.212H77.8894Z" fill="black"/>
</g>
</svg>
