<svg width="152" height="84" viewBox="0 0 152 84" fill="none" xmlns="http://www.w3.org/2000/svg">
<g id="Asset 1 2">
<g id="Layer 2">
<g id="Layer 1">
<path id="Vector" fill-rule="evenodd" clip-rule="evenodd" d="M63.143 17.9205C63.143 17.344 63.3141 16.7805 63.6345 16.3013C63.955 15.8221 64.4104 15.4488 64.9432 15.2286C65.4759 15.0084 66.062 14.9513 66.6273 15.0644C67.1925 15.1775 67.7115 15.4558 68.1185 15.864C68.5255 16.2723 68.8022 16.7921 68.9136 17.3577C69.025 17.9233 68.966 18.5092 68.7442 19.0413C68.5224 19.5734 68.1477 20.0277 67.6675 20.3467C67.1874 20.6656 66.6233 20.835 66.0469 20.8332C65.6648 20.8332 65.2865 20.7578 64.9336 20.6113C64.5807 20.4648 64.2602 20.2502 63.9904 19.9796C63.7206 19.709 63.5069 19.3878 63.3615 19.0345C63.2161 18.6811 63.1419 18.3026 63.143 17.9205Z" fill="#0A667C"/>
<path id="Vector_2" fill-rule="evenodd" clip-rule="evenodd" d="M63.143 24.6607C63.143 24.0842 63.3141 23.5207 63.6345 23.0415C63.955 22.5623 64.4104 22.189 64.9431 21.9688C65.4759 21.7486 66.062 21.6914 66.6273 21.8045C67.1925 21.9177 67.7115 22.196 68.1185 22.6042C68.5255 23.0124 68.8022 23.5323 68.9136 24.0979C69.025 24.6635 68.966 25.2494 68.7442 25.7815C68.5224 26.3136 68.1477 26.7678 67.6675 27.0868C67.1873 27.4058 66.6233 27.5752 66.0469 27.5734C65.6644 27.5746 65.2856 27.5 64.9322 27.3539C64.5787 27.2078 64.2577 26.9932 63.9877 26.7224C63.7177 26.4515 63.5041 26.1299 63.3591 25.776C63.2141 25.4222 63.1407 25.0431 63.143 24.6607Z" fill="#0A667C"/>
<path id="Vector_3" fill-rule="evenodd" clip-rule="evenodd" d="M56.0477 17.805C56.0494 17.2311 56.2212 16.6705 56.5414 16.1941C56.8615 15.7178 57.3156 15.347 57.8464 15.1285C58.3772 14.9101 58.9608 14.8539 59.5235 14.9669C60.0862 15.08 60.6028 15.3572 61.008 15.7637C61.4132 16.1702 61.6889 16.6876 61.8002 17.2506C61.9115 17.8137 61.8535 18.3971 61.6335 18.9272C61.4134 19.4573 61.0412 19.9103 60.5639 20.229C60.0866 20.5477 59.5255 20.7178 58.9515 20.7178C58.5691 20.7189 58.1902 20.6443 57.8368 20.4983C57.4834 20.3522 57.1624 20.1376 56.8924 19.8667C56.6224 19.5959 56.4087 19.2743 56.2637 18.9204C56.1188 18.5665 56.0453 18.1874 56.0477 17.805Z" fill="#0A667C"/>
<path id="Vector_4" fill-rule="evenodd" clip-rule="evenodd" d="M56.9623 24.2611C56.9641 23.7661 57.1125 23.2828 57.3887 22.8722C57.6649 22.4615 58.0566 22.142 58.5144 21.9538C58.9721 21.7656 59.4754 21.7173 59.9606 21.8149C60.4458 21.9125 60.8911 22.1517 61.2405 22.5023C61.5898 22.8529 61.8274 23.2991 61.9233 23.7846C62.0193 24.2702 61.9691 24.7732 61.7793 25.2303C61.5896 25.6874 61.2686 26.078 60.8569 26.3527C60.4453 26.6275 59.9615 26.7742 59.4666 26.7742C59.137 26.7742 58.8106 26.7091 58.5062 26.5827C58.2018 26.4563 57.9253 26.271 57.6927 26.0376C57.46 25.8041 57.2757 25.527 57.1504 25.2221C57.0251 24.9173 56.9612 24.5907 56.9623 24.2611Z" fill="#0A667C"/>
<path id="Vector_5" fill-rule="evenodd" clip-rule="evenodd" d="M60.4701 28.9676C60.4701 28.662 60.5607 28.3632 60.7305 28.1091C60.9003 27.855 61.1416 27.657 61.4239 27.54C61.7063 27.4231 62.017 27.3925 62.3167 27.4521C62.6164 27.5117 62.8917 27.6589 63.1078 27.875C63.3239 28.0911 63.4711 28.3664 63.5307 28.6662C63.5903 28.9659 63.5597 29.2766 63.4428 29.5589C63.3258 29.8413 63.1278 30.0826 62.8737 30.2524C62.6196 30.4222 62.3208 30.5128 62.0152 30.5128C61.6054 30.5128 61.2124 30.35 60.9226 30.0602C60.6329 29.7704 60.4701 29.3774 60.4701 28.9676Z" fill="#0A667C"/>
<path id="Vector_6" fill-rule="evenodd" clip-rule="evenodd" d="M65.0256 30.797C65.0256 30.3364 65.1623 29.8862 65.4184 29.5034C65.6744 29.1206 66.0383 28.8224 66.464 28.6466C66.8896 28.4708 67.3579 28.4252 67.8095 28.5157C68.261 28.6062 68.6756 28.8287 69.0006 29.1549C69.3256 29.4812 69.5465 29.8966 69.6353 30.3485C69.7241 30.8004 69.6767 31.2685 69.4993 31.6935C69.3218 32.1185 69.0222 32.4812 68.6384 32.7358C68.2546 32.9904 67.8039 33.1254 67.3434 33.1236C66.7279 33.1213 66.1384 32.8751 65.704 32.439C65.2695 32.0029 65.0256 31.4125 65.0256 30.797Z" fill="#0A667C"/>
<path id="Vector_7" fill-rule="evenodd" clip-rule="evenodd" d="M70.0252 33.2479C70.0252 32.7877 70.1617 32.3379 70.4173 31.9553C70.673 31.5727 71.0364 31.2745 71.4615 31.0984C71.8866 30.9223 72.3544 30.8762 72.8058 30.966C73.2571 31.0557 73.6717 31.2773 73.997 31.6027C74.3224 31.9281 74.544 32.3427 74.6338 32.794C74.7236 33.2453 74.6775 33.7131 74.5014 34.1383C74.3253 34.5634 74.0271 34.9268 73.6445 35.1824C73.2619 35.4381 72.812 35.5745 72.3519 35.5745C72.046 35.5757 71.7429 35.5163 71.4601 35.3998C71.1773 35.2833 70.9203 35.112 70.7041 34.8957C70.4878 34.6794 70.3164 34.4225 70.1999 34.1397C70.0834 33.8568 70.0241 33.5538 70.0252 33.2479Z" fill="#0A667C"/>
<path id="Vector_8" fill-rule="evenodd" clip-rule="evenodd" d="M60.1237 5.93208C60.1255 5.66374 60.2066 5.40194 60.357 5.17967C60.5074 4.95741 60.7202 4.78464 60.9686 4.68317C61.217 4.58169 61.4899 4.55605 61.7529 4.60947C62.0158 4.6629 62.2571 4.793 62.4462 4.98336C62.6354 5.17373 62.7639 5.41583 62.8156 5.67915C62.8673 5.94246 62.8399 6.21519 62.7368 6.46294C62.6337 6.71069 62.4596 6.92237 62.2363 7.07127C62.0131 7.22018 61.7507 7.29964 61.4824 7.29965C61.3032 7.29965 61.1258 7.26422 60.9604 7.19538C60.795 7.12655 60.6448 7.02567 60.5185 6.89857C60.3922 6.77146 60.2923 6.62063 60.2246 6.45476C60.1568 6.28889 60.1225 6.11125 60.1237 5.93208Z" fill="#0A667C"/>
<path id="Vector_9" fill-rule="evenodd" clip-rule="evenodd" d="M57.4596 11.4201C57.4579 10.9592 57.5931 10.5081 57.848 10.1242C58.103 9.74018 58.4663 9.4406 58.8918 9.2634C59.3173 9.0862 59.7858 9.03938 60.238 9.12887C60.6901 9.21836 61.1055 9.44013 61.4315 9.76605C61.7574 10.092 61.9791 10.5074 62.0686 10.9595C62.1581 11.4117 62.1113 11.8802 61.9341 12.3057C61.7569 12.7312 61.4573 13.0945 61.0733 13.3495C60.6894 13.6044 60.2383 13.7396 59.7774 13.7379C59.1627 13.7379 58.5732 13.4937 58.1385 13.059C57.7038 12.6243 57.4596 12.0348 57.4596 11.4201Z" fill="#0A667C"/>
<path id="Vector_10" fill-rule="evenodd" clip-rule="evenodd" d="M63.4538 11.0205C63.4538 10.4936 63.6101 9.9785 63.9028 9.54039C64.1955 9.10228 64.6116 8.76082 65.0984 8.55918C65.5852 8.35754 66.1209 8.30478 66.6377 8.40758C67.1544 8.51037 67.6291 8.7641 68.0017 9.13668C68.3743 9.50926 68.628 9.98396 68.7308 10.5007C68.8336 11.0175 68.7809 11.5532 68.5792 12.04C68.3776 12.5268 68.0361 12.9429 67.598 13.2356C67.1599 13.5283 66.6448 13.6846 66.1179 13.6846C65.4114 13.6846 64.7337 13.4039 64.2341 12.9043C63.7345 12.4047 63.4538 11.727 63.4538 11.0205Z" fill="#0A667C"/>
<path id="Vector_11" fill-rule="evenodd" clip-rule="evenodd" d="M66.6241 1.07452C66.6241 0.861998 66.6871 0.654251 66.8052 0.477548C66.9233 0.300845 67.0911 0.163121 67.2874 0.0817932C67.4838 0.000465572 67.6998 -0.0208135 67.9083 0.020647C68.1167 0.0621075 68.3082 0.164445 68.4584 0.314719C68.6087 0.464993 68.711 0.656454 68.7525 0.86489C68.794 1.07333 68.7727 1.28938 68.6914 1.48572C68.61 1.68206 68.4723 1.84988 68.2956 1.96795C68.1189 2.08602 67.9112 2.14904 67.6986 2.14904C67.4137 2.14904 67.1403 2.03583 66.9388 1.83432C66.7373 1.63281 66.6241 1.3595 66.6241 1.07452Z" fill="#0A667C"/>
<path id="Vector_12" fill-rule="evenodd" clip-rule="evenodd" d="M64.1998 5.09732C64.198 4.65221 64.3285 4.21661 64.5747 3.84578C64.8209 3.47495 65.1717 3.18561 65.5826 3.01446C65.9935 2.84331 66.446 2.79807 66.8826 2.88448C67.3192 2.97088 67.7204 3.18504 68.0351 3.49979C68.3499 3.81453 68.564 4.21567 68.6504 4.65232C68.7368 5.08896 68.6916 5.54143 68.5205 5.95233C68.3493 6.36322 68.06 6.71402 67.6891 6.96022C67.3183 7.20641 66.8827 7.33691 66.4376 7.33516C65.8441 7.33516 65.2749 7.09938 64.8552 6.67971C64.4355 6.26003 64.1998 5.69083 64.1998 5.09732Z" fill="#0A667C"/>
<path id="Vector_13" fill-rule="evenodd" clip-rule="evenodd" d="M82.1202 17.9205C82.1202 17.3444 82.2911 16.7813 82.6111 16.3023C82.9312 15.8233 83.3861 15.4499 83.9183 15.2295C84.4506 15.009 85.0362 14.9513 85.6012 15.0637C86.1662 15.1761 86.6852 15.4535 87.0926 15.8609C87.5 16.2682 87.7774 16.7872 87.8898 17.3522C88.0021 17.9173 87.9445 18.5029 87.724 19.0352C87.5035 19.5674 87.1302 20.0223 86.6512 20.3424C86.1722 20.6624 85.6091 20.8332 85.033 20.8332C84.2605 20.8332 83.5196 20.5264 82.9734 19.9801C82.4271 19.4339 82.1202 18.693 82.1202 17.9205Z" fill="#0A667C"/>
<path id="Vector_14" fill-rule="evenodd" clip-rule="evenodd" d="M82.1203 24.6606C82.1203 24.0845 82.2911 23.5214 82.6111 23.0424C82.9312 22.5634 83.3861 22.19 83.9183 21.9696C84.4506 21.7491 85.0362 21.6914 85.6012 21.8038C86.1663 21.9162 86.6853 22.1936 87.0926 22.601C87.5 23.0083 87.7774 23.5273 87.8898 24.0924C88.0022 24.6574 87.9445 25.243 87.724 25.7753C87.5036 26.3075 87.1302 26.7624 86.6512 27.0825C86.1722 27.4025 85.6091 27.5733 85.033 27.5733C84.6502 27.5745 84.2709 27.5 83.917 27.354C83.563 27.2081 83.2415 26.9935 82.9708 26.7228C82.7001 26.4521 82.4855 26.1306 82.3396 25.7766C82.1936 25.4227 82.1191 25.0434 82.1203 24.6606Z" fill="#0A667C"/>
<path id="Vector_15" fill-rule="evenodd" clip-rule="evenodd" d="M89.2245 17.805C89.2262 17.2311 89.398 16.6705 89.7182 16.1941C90.0383 15.7178 90.4925 15.347 91.0232 15.1285C91.554 14.9101 92.1376 14.8539 92.7003 14.9669C93.263 15.08 93.7796 15.3572 94.1848 15.7637C94.59 16.1702 94.8657 16.6876 94.977 17.2506C95.0884 17.8137 95.0303 18.3971 94.8103 18.9272C94.5903 19.4573 94.2181 19.9103 93.7407 20.229C93.2634 20.5477 92.7023 20.7178 92.1283 20.7178C91.7459 20.7189 91.3671 20.6443 91.0136 20.4983C90.6602 20.3522 90.3392 20.1376 90.0692 19.8667C89.7992 19.5959 89.5856 19.2743 89.4406 18.9204C89.2956 18.5665 89.2221 18.1874 89.2245 17.805Z" fill="#0A667C"/>
<path id="Vector_16" fill-rule="evenodd" clip-rule="evenodd" d="M89.1002 24.261C89.1002 23.7639 89.2476 23.2781 89.5237 22.8648C89.7998 22.4515 90.1923 22.1294 90.6516 21.9392C91.1108 21.749 91.6161 21.6992 92.1036 21.7962C92.5911 21.8931 93.0389 22.1325 93.3903 22.4839C93.7418 22.8354 93.9812 23.2832 94.0781 23.7707C94.1751 24.2582 94.1253 24.7635 93.9351 25.2227C93.7449 25.6819 93.4228 26.0744 93.0095 26.3506C92.5962 26.6267 92.1103 26.7741 91.6133 26.7741C90.9468 26.7741 90.3075 26.5093 89.8362 26.038C89.3649 25.5667 89.1002 24.9275 89.1002 24.261Z" fill="#0A667C"/>
<path id="Vector_17" fill-rule="evenodd" clip-rule="evenodd" d="M87.5283 28.9676C87.5284 28.6616 87.6192 28.3625 87.7894 28.1082C87.9596 27.8539 88.2014 27.6559 88.4843 27.5392C88.7671 27.4225 89.0783 27.3924 89.3782 27.4528C89.6782 27.5131 89.9535 27.6612 90.1693 27.8781C90.385 28.0951 90.5315 28.3713 90.5901 28.6716C90.6487 28.9719 90.6168 29.2829 90.4985 29.5651C90.3802 29.8472 90.1808 30.088 89.9255 30.2567C89.6702 30.4254 89.3706 30.5145 89.0646 30.5127C88.8621 30.5128 88.6616 30.4727 88.4747 30.395C88.2877 30.3172 88.1179 30.2032 87.9752 30.0596C87.8324 29.916 87.7194 29.7456 87.6427 29.5582C87.566 29.3708 87.5272 29.1701 87.5283 28.9676Z" fill="#0A667C"/>
<path id="Vector_18" fill-rule="evenodd" clip-rule="evenodd" d="M81.4098 30.7969C81.4098 30.3368 81.5463 29.8869 81.8019 29.5043C82.0576 29.1217 82.421 28.8235 82.8461 28.6474C83.2712 28.4713 83.739 28.4252 84.1904 28.515C84.6417 28.6048 85.0563 28.8263 85.3816 29.1517C85.707 29.4771 85.9286 29.8917 86.0184 30.343C86.1082 30.7943 86.0621 31.2621 85.886 31.6873C85.7099 32.1124 85.4117 32.4758 85.0291 32.7314C84.6465 32.9871 84.1966 33.1236 83.7365 33.1236C83.1194 33.1236 82.5276 32.8784 82.0913 32.4421C81.6549 32.0058 81.4098 31.414 81.4098 30.7969Z" fill="#0A667C"/>
<path id="Vector_19" fill-rule="evenodd" clip-rule="evenodd" d="M76.3925 33.2479C76.3925 32.7877 76.5289 32.3379 76.7846 31.9553C77.0402 31.5727 77.4036 31.2745 77.8287 31.0984C78.2539 30.9223 78.7217 30.8762 79.173 30.966C79.6243 31.0557 80.0389 31.2773 80.3643 31.6027C80.6897 31.9281 80.9113 32.3427 81.001 32.794C81.0908 33.2453 81.0447 33.7131 80.8686 34.1383C80.6925 34.5634 80.3943 34.9268 80.0117 35.1824C79.6291 35.4381 79.1793 35.5745 78.7191 35.5745C78.102 35.5745 77.5102 35.3294 77.0739 34.8931C76.6376 34.4568 76.3925 33.865 76.3925 33.2479Z" fill="#0A667C"/>
<path id="Vector_20" fill-rule="evenodd" clip-rule="evenodd" d="M88.2299 5.93208C88.2299 5.6616 88.3101 5.3972 88.4604 5.1723C88.6106 4.94741 88.8242 4.77212 89.0741 4.66861C89.324 4.56511 89.599 4.53802 89.8643 4.59079C90.1295 4.64356 90.3732 4.77381 90.5645 4.96507C90.7557 5.15632 90.886 5.4 90.9387 5.66528C90.9915 5.93057 90.9644 6.20554 90.8609 6.45543C90.7574 6.70532 90.5821 6.9189 90.3572 7.06917C90.1323 7.21944 89.8679 7.29965 89.5975 7.29965C89.2348 7.29965 88.8869 7.15557 88.6304 6.8991C88.374 6.64263 88.2299 6.29478 88.2299 5.93208Z" fill="#0A667C"/>
<path id="Vector_21" fill-rule="evenodd" clip-rule="evenodd" d="M88.9758 11.4201C88.9741 10.9592 89.1093 10.5081 89.3643 10.1242C89.6192 9.74018 89.9825 9.4406 90.408 9.2634C90.8335 9.0862 91.3021 9.03938 91.7542 9.12887C92.2064 9.21836 92.6217 9.44013 92.9477 9.76605C93.2736 10.092 93.4953 10.5074 93.5848 10.9595C93.6743 11.4117 93.6275 11.8802 93.4503 12.3057C93.2731 12.7312 92.9735 13.0945 92.5895 13.3495C92.2056 13.6044 91.7545 13.7396 91.2936 13.7379C90.6789 13.7379 90.0894 13.4937 89.6547 13.059C89.22 12.6243 88.9758 12.0348 88.9758 11.4201Z" fill="#0A667C"/>
<path id="Vector_22" fill-rule="evenodd" clip-rule="evenodd" d="M82.2446 11.0205C82.2446 10.4936 82.4008 9.9785 82.6935 9.54039C82.9863 9.10228 83.4024 8.76082 83.8892 8.55918C84.376 8.35754 84.9116 8.30478 85.4284 8.40758C85.9452 8.51037 86.4199 8.7641 86.7925 9.13668C87.165 9.50926 87.4188 9.98396 87.5216 10.5007C87.6244 11.0175 87.5716 11.5532 87.37 12.04C87.1683 12.5268 86.8269 12.9429 86.3888 13.2356C85.9506 13.5283 85.4356 13.6846 84.9087 13.6846C84.2021 13.6846 83.5245 13.4039 83.0249 12.9043C82.5253 12.4047 82.2446 11.727 82.2446 11.0205Z" fill="#0A667C"/>
<path id="Vector_23" fill-rule="evenodd" clip-rule="evenodd" d="M82.2801 1.07452C82.2801 0.861998 82.3431 0.654251 82.4612 0.477548C82.5793 0.300845 82.7471 0.163121 82.9434 0.0817932C83.1398 0.000465572 83.3558 -0.0208135 83.5642 0.020647C83.7727 0.0621075 83.9641 0.164445 84.1144 0.314719C84.2647 0.464993 84.367 0.656454 84.4085 0.86489C84.4499 1.07333 84.4287 1.28938 84.3473 1.48572C84.266 1.68206 84.1283 1.84988 83.9516 1.96795C83.7749 2.08602 83.5671 2.14904 83.3546 2.14904C83.0696 2.14904 82.7963 2.03583 82.5948 1.83432C82.3933 1.63281 82.2801 1.3595 82.2801 1.07452Z" fill="#0A667C"/>
<path id="Vector_24" fill-rule="evenodd" clip-rule="evenodd" d="M82.3955 5.09734C82.3938 4.6526 82.524 4.21735 82.7698 3.84672C83.0156 3.47608 83.3659 3.18673 83.7763 3.01532C84.1867 2.84391 84.6387 2.79814 85.0751 2.88383C85.5115 2.96951 85.9126 3.18279 86.2277 3.49664C86.5428 3.8105 86.7577 4.2108 86.8451 4.64687C86.9325 5.08293 86.8886 5.53512 86.7188 5.94617C86.549 6.35722 86.261 6.70864 85.8914 6.95591C85.5217 7.20318 85.087 7.33517 84.6422 7.33517C84.3476 7.33634 84.0557 7.27932 83.7831 7.16738C83.5106 7.05545 83.2629 6.89079 83.0541 6.68287C82.8454 6.47495 82.6797 6.22786 82.5667 5.95577C82.4537 5.68369 82.3955 5.39196 82.3955 5.09734Z" fill="#0A667C"/>
<path id="Vector_25" fill-rule="evenodd" clip-rule="evenodd" d="M110.253 80.2957L113.006 79.8873C112.996 79.5508 112.866 79.2291 112.64 78.9799C112.413 78.7308 112.105 78.5708 111.772 78.5286C110.884 78.5286 110.368 79.3456 110.253 80.3046V80.2957ZM113.805 80.2957L110.253 80.7753C110.342 82.3027 111.141 82.8533 112.029 82.8533C112.354 82.8488 112.672 82.7586 112.952 82.5918C113.231 82.4249 113.461 82.1874 113.619 81.9031C113.779 81.6367 113.814 81.5834 113.947 81.5834C114.08 81.5834 114.178 81.5834 114.178 81.8498C114.097 82.3919 113.824 82.8866 113.408 83.2437C112.992 83.6008 112.462 83.7964 111.914 83.7946C111.474 83.8081 111.04 83.6968 110.661 83.4736C110.282 83.2504 109.975 82.9245 109.774 82.5336C109.522 81.9989 109.391 81.4151 109.391 80.8241C109.391 80.2331 109.522 79.6494 109.774 79.1147C109.985 78.7384 110.296 78.4271 110.671 78.2142C111.047 78.0014 111.473 77.8952 111.905 77.907C112.473 77.8925 113.023 78.1026 113.437 78.4917C113.851 78.8807 114.095 79.4173 114.116 79.9849C114.116 80.2958 113.921 80.3135 113.787 80.3402L113.805 80.2957Z" fill="#6EADB5"/>
<path id="Vector_26" fill-rule="evenodd" clip-rule="evenodd" d="M126.886 82.4093V80.5356C125.625 80.9085 124.577 81.1661 124.577 82.0008C124.567 82.1594 124.59 82.3183 124.646 82.4672C124.701 82.6161 124.788 82.7515 124.899 82.8647C125.011 82.9779 125.145 83.0663 125.293 83.124C125.441 83.1817 125.599 83.2075 125.758 83.1996C126.646 83.1996 126.886 82.7024 126.886 82.4093ZM127.898 79.6386V82.5159C127.898 83.0043 127.827 83.2796 127.41 83.4927C126.816 83.6985 126.191 83.7977 125.563 83.7857C125.252 83.7857 123.547 83.617 123.547 82.1429C123.547 80.8908 125.057 80.5356 126.904 80.0205V79.6386C126.916 79.4895 126.897 79.3394 126.848 79.198C126.799 79.0566 126.721 78.927 126.619 78.8175C126.517 78.7079 126.393 78.6209 126.256 78.562C126.118 78.5031 125.97 78.4736 125.82 78.4753C125.603 78.4691 125.39 78.5356 125.214 78.6643C125.039 78.793 124.912 78.9765 124.852 79.1857C124.772 79.39 124.675 79.6475 124.328 79.6475C124.269 79.6487 124.209 79.6378 124.154 79.6155C124.098 79.5932 124.048 79.5599 124.005 79.5176C123.963 79.4753 123.93 79.4249 123.907 79.3694C123.885 79.3139 123.874 79.2544 123.875 79.1946C123.875 78.5375 124.763 77.8981 125.971 77.8981C126.22 77.8602 126.474 77.8787 126.715 77.9523C126.955 78.0259 127.176 78.1527 127.361 78.3232C127.546 78.4937 127.691 78.7037 127.784 78.9375C127.877 79.1714 127.916 79.4231 127.898 79.6742V79.6386Z" fill="#6EADB5"/>
<path id="Vector_27" fill-rule="evenodd" clip-rule="evenodd" d="M118.929 82.2583V78.866C118.62 78.6022 118.225 78.4601 117.819 78.4664C116.762 78.4664 115.999 79.4433 115.999 80.7575C115.999 82.2672 116.798 83.1108 117.899 83.1108C119 83.1108 118.911 82.5691 118.929 82.2228V82.2583ZM119.959 76.4506V82.507C119.981 82.721 119.924 82.9355 119.799 83.1108C119.2 83.5978 118.438 83.839 117.668 83.7857C117.303 83.8097 116.937 83.7536 116.595 83.6213C116.254 83.489 115.946 83.2838 115.692 83.0199C115.438 82.756 115.245 82.4398 115.126 82.0935C115.007 81.7472 114.966 81.3792 115.004 81.0151C114.971 80.6349 115.014 80.252 115.131 79.8887C115.248 79.5253 115.436 79.1888 115.683 78.8988C115.931 78.6087 116.235 78.3708 116.575 78.199C116.916 78.0272 117.287 77.9249 117.668 77.8981C118.115 77.8923 118.554 78.019 118.929 78.2622V76.4861C118.929 76.3085 118.929 76.2463 119.142 76.2463H119.728C119.906 76.2463 119.977 76.2463 119.959 76.4595V76.4506Z" fill="#6EADB5"/>
<path id="Vector_28" fill-rule="evenodd" clip-rule="evenodd" d="M51.1901 82.2583V78.866C50.8811 78.6021 50.4864 78.4601 50.0801 78.4664C49.0233 78.4664 48.304 79.4432 48.304 80.7575C48.304 82.2672 49.1032 83.1108 50.2044 83.1108C51.3056 83.1108 51.2167 82.5691 51.2345 82.2228L51.1901 82.2583ZM52.2202 76.5216V82.5069C52.2418 82.7209 52.185 82.9355 52.0604 83.1108C51.4612 83.5978 50.6994 83.839 49.9291 83.7857C49.5638 83.8097 49.1976 83.7536 48.8563 83.6213C48.5149 83.489 48.2066 83.2837 47.9528 83.0198C47.6991 82.7559 47.506 82.4398 47.3872 82.0935C47.2684 81.7472 47.2267 81.3791 47.265 81.015C47.2335 80.6351 47.2775 80.2527 47.3946 79.8898C47.5118 79.527 47.6996 79.191 47.9473 78.9012C48.195 78.6114 48.4977 78.3735 48.8378 78.2013C49.178 78.0291 49.5489 77.9261 49.9291 77.898C50.3762 77.8923 50.8149 78.0189 51.1901 78.2621V76.5394C51.1901 76.3706 51.1901 76.3085 51.4032 76.3085H51.9982C52.1669 76.3085 52.238 76.3085 52.2202 76.5216Z" fill="#6EADB5"/>
<path id="Vector_29" fill-rule="evenodd" clip-rule="evenodd" d="M28.6075 76.4861C28.6075 76.344 28.6075 76.3085 28.4832 76.2907H27.8971C27.7461 76.2907 27.7106 76.344 27.7106 76.495V81.2548C27.7552 81.6463 27.6643 82.0412 27.4531 82.3738C27.285 82.5867 27.0682 82.756 26.8208 82.8673C26.5735 82.9786 26.303 83.0286 26.0322 83.0131C24.3627 83.0131 24.3449 81.5568 24.3449 81.0417V76.4772C24.3449 76.2907 24.3449 76.2819 24.1318 76.2819H23.4036C23.2438 76.2819 23.1994 76.2819 23.1994 76.4772V81.2193C23.1664 81.7327 23.2739 82.2454 23.5102 82.7023C23.7661 83.0978 24.1288 83.4128 24.5563 83.6108C24.9837 83.8088 25.4585 83.8817 25.9256 83.8212C26.3748 83.8669 26.8281 83.7932 27.2397 83.6077C27.6514 83.4221 28.0068 83.1313 28.27 82.7645C28.5259 82.3499 28.644 81.865 28.6075 81.3792V76.4861Z" fill="#6EADB5"/>
<path id="Vector_30" fill-rule="evenodd" clip-rule="evenodd" d="M34.655 79.6919C34.655 79.0525 34.655 77.9159 32.4527 77.9159C31.7736 77.9088 31.1001 78.0387 30.4724 78.2977C30.3135 78.3524 30.1795 78.4622 30.0948 78.6072C30.0101 78.7522 29.9802 78.9229 30.0106 79.0881V83.4749C30.0106 83.6614 30.0727 83.6881 30.2326 83.6792H30.792C30.9519 83.6792 31.0407 83.6792 31.0407 83.4661V79.4344C31.0407 79.1591 31.0407 78.4664 32.2839 78.4664C33.5272 78.4664 33.6249 79.2834 33.6249 79.7896V83.4749C33.6249 83.6703 33.6959 83.6881 33.8824 83.6881H34.5129C34.6372 83.6881 34.655 83.5726 34.655 83.4749V79.6919Z" fill="#6EADB5"/>
<path id="Vector_31" fill-rule="evenodd" clip-rule="evenodd" d="M37.1859 78.2356C37.1859 78.0668 37.1415 78.0313 36.955 78.0313H36.36C36.1646 78.0313 36.1646 78.0935 36.1646 78.2356V83.4749C36.1646 83.6259 36.1646 83.6703 36.3334 83.6703H36.955C37.1326 83.6703 37.1859 83.6703 37.1859 83.4749V78.2356Z" fill="#6EADB5"/>
<path id="Vector_32" fill-rule="evenodd" clip-rule="evenodd" d="M67.2369 78.2356C67.2369 78.0757 67.1658 78.0313 66.9793 78.0313H66.3488C66.2245 78.0313 66.2067 78.1379 66.2067 78.2533V81.9653C66.2067 82.4892 66.2067 83.1286 65.0257 83.1286C63.8446 83.1286 63.7469 82.3471 63.738 81.8321V78.2356C63.738 78.0579 63.667 78.0313 63.5071 78.0313H62.9033C62.7345 78.0313 62.699 78.0846 62.699 78.2267V82.0718C62.6731 82.3139 62.7083 82.5586 62.8014 82.7835C62.8945 83.0085 63.0425 83.2065 63.2318 83.3595C63.711 83.6858 64.2883 83.8364 64.8658 83.7857C65.5145 83.8066 66.1591 83.6758 66.7484 83.4039C67.1925 83.1552 67.2191 82.8533 67.2369 82.3116V78.2356Z" fill="#6EADB5"/>
<path id="Vector_33" fill-rule="evenodd" clip-rule="evenodd" d="M70.416 80.2691C69.9986 80.0915 69.4481 79.8517 69.4481 79.2479C69.45 79.1362 69.475 79.0261 69.5216 78.9246C69.5682 78.823 69.6353 78.7323 69.7188 78.658C69.8022 78.5837 69.9002 78.5276 70.0064 78.4931C70.1127 78.4586 70.2249 78.4465 70.3361 78.4575C70.5249 78.4589 70.7093 78.515 70.8669 78.6191C71.0245 78.7231 71.1486 78.8706 71.2241 79.0436C71.3307 79.2212 71.4284 79.4077 71.7303 79.4077C71.8318 79.4079 71.9296 79.3695 72.0038 79.3002C72.0781 79.231 72.1231 79.1361 72.1299 79.0348C72.1299 78.6884 71.6504 77.9336 70.3538 77.9336C69.0573 77.9336 68.5245 78.6707 68.5245 79.4432C68.5245 80.4467 69.3149 80.8019 70.3006 81.2193C70.8067 81.4413 71.4017 81.7077 71.4017 82.3649C71.4034 82.4791 71.3811 82.5925 71.3362 82.6976C71.2913 82.8027 71.2249 82.8973 71.1412 82.9751C71.0575 83.0529 70.9584 83.1124 70.8503 83.1495C70.7422 83.1866 70.6276 83.2007 70.5137 83.1907C70.2999 83.2063 70.0863 83.157 69.901 83.0492C69.7156 82.9415 69.567 82.7804 69.4747 82.5869L69.2882 82.3737C69.2404 82.2922 69.1733 82.2236 69.0928 82.1741C69.0122 82.1245 68.9208 82.0955 68.8264 82.0896C68.7657 82.0941 68.7065 82.1105 68.6522 82.138C68.5979 82.1654 68.5495 82.2034 68.5099 82.2496C68.4703 82.2958 68.4402 82.3494 68.4214 82.4073C68.4025 82.4652 68.3953 82.5262 68.4002 82.5869C68.4002 82.8977 68.8442 83.8124 70.3894 83.8124C70.8899 83.8394 71.3837 83.6884 71.7836 83.3861C71.9547 83.2369 72.0916 83.0526 72.1851 82.8457C72.2785 82.6388 72.3264 82.4143 72.3253 82.1873C72.3253 81.166 71.5172 80.7931 70.9222 80.5089L70.4249 80.2958L70.416 80.2691Z" fill="#6EADB5"/>
<path id="Vector_34" fill-rule="evenodd" clip-rule="evenodd" d="M74.6164 78.2356C74.6164 78.0668 74.5631 78.0313 74.3855 78.0313H73.7284C73.533 78.0313 73.533 78.0935 73.533 78.2356V83.4749C73.533 83.6259 73.533 83.6703 73.7106 83.6703H74.3322C74.5009 83.6703 74.5631 83.6703 74.5631 83.4749V78.2356H74.6164Z" fill="#6EADB5"/>
<path id="Vector_35" fill-rule="evenodd" clip-rule="evenodd" d="M80.7083 79.6919C80.7083 79.0525 80.7083 77.9159 78.5148 77.9159C77.8328 77.9081 77.1563 78.0379 76.5257 78.2977C76.1349 78.4842 76.0728 78.6796 76.0728 79.0881V83.4749C76.0728 83.6614 76.126 83.6881 76.2859 83.6792H76.8542C77.0141 83.6792 77.094 83.6792 77.094 83.4661V79.4344C77.094 79.1591 77.094 78.4664 78.3372 78.4664C79.5805 78.4664 79.687 79.2834 79.687 79.7896V83.4749C79.687 83.6703 79.7581 83.6881 79.9357 83.6881H80.5751C80.6994 83.6881 80.7083 83.5726 80.7083 83.4749V79.6919Z" fill="#6EADB5"/>
<path id="Vector_36" fill-rule="evenodd" clip-rule="evenodd" d="M89.5886 80.2691C89.1712 80.0915 88.6206 79.8517 88.6206 79.2479C88.6225 79.1362 88.6476 79.0261 88.6942 78.9246C88.7408 78.823 88.8079 78.7323 88.8914 78.658C88.9748 78.5837 89.0727 78.5276 89.179 78.4931C89.2852 78.4586 89.3975 78.4465 89.5087 78.4575C89.6975 78.4589 89.8819 78.515 90.0395 78.6191C90.1971 78.7231 90.3212 78.8706 90.3967 79.0436C90.5032 79.2212 90.6098 79.4077 90.9029 79.4077C90.9583 79.4114 91.0139 79.4036 91.0661 79.3846C91.1183 79.3656 91.166 79.336 91.2061 79.2975C91.2462 79.2591 91.2779 79.2127 91.2991 79.1613C91.3202 79.11 91.3305 79.0548 91.3291 78.9992C91.3291 78.6529 90.8496 77.8981 89.5531 77.8981C88.2565 77.8981 87.7237 78.6351 87.7237 79.4077C87.7237 80.4112 88.5141 80.7664 89.4998 81.1838C90.006 81.4058 90.6009 81.6722 90.6009 82.3293C90.6026 82.4436 90.5803 82.557 90.5354 82.6621C90.4905 82.7672 90.4241 82.8618 90.3404 82.9396C90.2567 83.0174 90.1576 83.0768 90.0495 83.114C89.9414 83.1511 89.8268 83.1652 89.7129 83.1552C89.4986 83.1794 89.2821 83.1381 89.0918 83.0366C88.9015 82.9351 88.7465 82.7783 88.6473 82.5869L88.4963 82.3382C88.4491 82.2561 88.3821 82.1871 88.3015 82.1375C88.2208 82.0879 88.1291 82.0592 88.0345 82.0541C87.9724 82.0528 87.9106 82.0642 87.853 82.0874C87.7953 82.1106 87.743 82.1453 87.699 82.1892C87.6551 82.2332 87.6205 82.2855 87.5972 82.3432C87.574 82.4008 87.5627 82.4626 87.5639 82.5247C87.5639 82.8355 88.0079 83.7502 89.5531 83.7502C90.0534 83.7757 90.5467 83.6248 90.9473 83.3239C91.1183 83.1747 91.2553 82.9904 91.3488 82.7835C91.4422 82.5767 91.4901 82.3521 91.489 82.1251C91.489 81.1039 90.6809 80.7309 90.0859 80.4467L89.5886 80.2336V80.2691Z" fill="#6EADB5"/>
<path id="Vector_37" fill-rule="evenodd" clip-rule="evenodd" d="M94.5083 80.2691C94.0909 80.0915 93.5403 79.8517 93.5403 79.2479C93.5422 79.1362 93.5673 79.0261 93.6139 78.9246C93.6605 78.823 93.7276 78.7323 93.8111 78.658C93.8945 78.5837 93.9925 78.5276 94.0987 78.4931C94.205 78.4586 94.3172 78.4465 94.4284 78.4575C94.6169 78.46 94.8009 78.5166 94.9583 78.6205C95.1157 78.7244 95.24 78.8712 95.3164 79.0436C95.423 79.2212 95.5295 79.4077 95.8226 79.4077C95.878 79.4114 95.9336 79.4036 95.9858 79.3846C96.038 79.3656 96.0857 79.336 96.1258 79.2975C96.1659 79.2591 96.1976 79.2127 96.2188 79.1613C96.24 79.11 96.2502 79.0548 96.2488 78.9992C96.2488 78.6529 95.7693 77.8981 94.4728 77.8981C93.1762 77.8981 92.6434 78.6351 92.6434 79.4077C92.6434 80.4112 93.4338 80.7664 94.4195 81.1838C94.9257 81.4058 95.5206 81.6722 95.5206 82.3293C95.5223 82.4436 95.5 82.557 95.4551 82.6621C95.4102 82.7672 95.3438 82.8618 95.2601 82.9396C95.1764 83.0174 95.0773 83.0768 94.9692 83.114C94.8612 83.1511 94.7465 83.1652 94.6326 83.1552C94.4341 83.1658 94.2367 83.1207 94.0625 83.025C93.8883 82.9293 93.7443 82.7867 93.6469 82.6135L93.4959 82.3649C93.4481 82.2833 93.381 82.2147 93.3005 82.1652C93.22 82.1156 93.1285 82.0866 93.0342 82.0807C92.972 82.0795 92.9103 82.0908 92.8526 82.1141C92.795 82.1373 92.7426 82.1719 92.6987 82.2159C92.6547 82.2598 92.6201 82.3122 92.5969 82.3698C92.5736 82.4275 92.5623 82.4892 92.5635 82.5514C92.5635 82.8622 93.0075 83.7768 94.5527 83.7768C95.053 83.8023 95.5464 83.6515 95.9469 83.3506C96.118 83.2014 96.2549 83.0171 96.3484 82.8102C96.4419 82.6033 96.4897 82.3787 96.4886 82.1517C96.4886 81.1305 95.6805 80.7575 95.0855 80.4734L94.5882 80.2602L94.5083 80.2691Z" fill="#6EADB5"/>
<path id="Vector_38" fill-rule="evenodd" clip-rule="evenodd" d="M122.419 78.2356C122.419 78.0668 122.375 78.0313 122.188 78.0313H121.584C121.389 78.0313 121.389 78.0935 121.389 78.2356V83.4749C121.389 83.6259 121.389 83.6703 121.567 83.6703H122.188C122.357 83.6703 122.419 83.6703 122.419 83.4749V78.2356Z" fill="#6EADB5"/>
<path id="Vector_39" fill-rule="evenodd" clip-rule="evenodd" d="M42.4697 80.2869L45.2226 79.9228C45.2131 79.5867 45.0848 79.2649 44.8604 79.0144C44.6361 78.764 44.3301 78.6013 43.9971 78.5552C43.0647 78.5552 42.5851 79.3811 42.4697 80.3313V80.2869ZM46.0218 80.2869L42.4697 80.7753C42.5674 82.2938 43.3577 82.8533 44.2457 82.8533C44.5718 82.848 44.8906 82.7564 45.1698 82.588C45.449 82.4195 45.6786 82.1802 45.8353 81.8942C45.9952 81.6367 46.0307 81.5834 46.1728 81.5834C46.3148 81.5834 46.4037 81.5834 46.4037 81.841C46.3119 82.3826 46.0279 82.8729 45.6038 83.222C45.1797 83.5711 44.6439 83.7555 44.0948 83.7413C43.6553 83.7548 43.2211 83.6435 42.8423 83.4203C42.4636 83.1972 42.1558 82.8712 41.9546 82.4803C41.6992 81.9617 41.5742 81.3887 41.5905 80.8108C41.5607 80.1946 41.6955 79.5816 41.9813 79.0348C42.1906 78.6565 42.5005 78.3435 42.8766 78.1304C43.2527 77.9173 43.6805 77.8123 44.1125 77.8271C44.6819 77.8127 45.2339 78.024 45.6481 78.4149C46.0623 78.8058 46.3052 79.3447 46.3237 79.9139C46.3237 80.2159 46.1284 80.2336 45.9863 80.2603L46.0218 80.2869Z" fill="#6EADB5"/>
<path id="Vector_40" fill-rule="evenodd" clip-rule="evenodd" d="M82.7507 80.278L85.5036 79.8695C85.4936 79.5331 85.3637 79.2113 85.1374 78.9622C84.911 78.7131 84.6032 78.553 84.2693 78.5108C83.3368 78.5108 82.8662 79.3278 82.7507 80.2869V80.278ZM86.3029 80.278L82.7507 80.7753C82.8395 82.2938 83.6388 82.8444 84.5268 82.8444C84.856 82.8514 85.181 82.7703 85.4683 82.6095C85.7556 82.4487 85.9946 82.214 86.1608 81.9297C86.3206 81.6722 86.3561 81.6101 86.4893 81.6101C86.6225 81.6101 86.7202 81.61 86.7202 81.8765C86.6279 82.4227 86.34 82.9168 85.9103 83.2664C85.4806 83.6161 84.9383 83.7975 84.3847 83.7768C83.9453 83.7903 83.511 83.679 83.1323 83.4559C82.7535 83.2327 82.4457 82.9068 82.2445 82.5158C81.9928 81.9811 81.8623 81.3974 81.8623 80.8064C81.8623 80.2154 81.9928 79.6317 82.2445 79.0969C82.4569 78.7193 82.7687 78.4071 83.146 78.1942C83.5233 77.9812 83.9517 77.8758 84.3847 77.8892C84.9526 77.8748 85.5033 78.0849 85.9172 78.4739C86.3312 78.8629 86.575 79.3995 86.5959 79.9672C86.5959 80.278 86.4005 80.2958 86.2585 80.3135L86.3029 80.278Z" fill="#6EADB5"/>
<path id="Vector_41" fill-rule="evenodd" clip-rule="evenodd" d="M40.8712 78.5108H39.8588V82.063C39.8588 82.5247 39.8588 82.6402 39.992 82.8444C40.0593 82.9673 40.1601 83.0685 40.2828 83.1361C40.4055 83.2038 40.5449 83.235 40.6847 83.2263H40.9866C41.0164 83.2223 41.0466 83.225 41.0752 83.234C41.1038 83.2431 41.1301 83.2583 41.1521 83.2787C41.1741 83.299 41.1914 83.324 41.2027 83.3517C41.214 83.3795 41.2191 83.4095 41.2175 83.4394C41.2175 83.7236 40.5781 83.8035 40.3295 83.8035C40.0958 83.815 39.8627 83.7721 39.6485 83.6781C39.4343 83.5841 39.2448 83.4416 39.0951 83.2618C38.8795 82.9639 38.7786 82.5981 38.811 82.2317V78.5108H38.2071C38.0561 78.5108 38.0295 78.5108 38.0295 78.3421C38.0295 78.1734 38.0295 78.0402 38.2071 78.0313H38.811V76.3707C38.811 76.1931 38.811 76.1309 39.033 76.1309H39.6191C39.7967 76.1309 39.8677 76.1309 39.85 76.344V77.9958H40.8712C41.0044 77.9958 41.0488 77.9958 41.0488 78.1467C41.0488 78.4398 41.0488 78.4753 40.8801 78.4753L40.8712 78.5108Z" fill="#6EADB5"/>
<path id="Vector_42" fill-rule="evenodd" clip-rule="evenodd" d="M55.799 83.3062C55.799 83.5637 55.799 83.617 55.9944 83.6525C56.6035 83.7637 57.2225 83.8113 57.8415 83.7946C58.7295 83.7946 61.6778 83.7946 61.6778 81.7522C61.6778 80.802 61.0295 80.0471 59.7508 79.7807L59.4666 79.7274C59.5633 79.6974 59.6581 79.6618 59.7508 79.6209C60.1143 79.5122 60.4375 79.298 60.6794 79.0056C60.9212 78.7132 61.0709 78.3556 61.1094 77.978C61.1053 77.6884 61.0198 77.4058 60.8628 77.1625C60.7058 76.9191 60.4836 76.7247 60.2214 76.6016C59.4869 76.29 58.6918 76.1474 57.8948 76.1842C57.2481 76.1886 56.6032 76.251 55.9677 76.3707C55.8079 76.3707 55.7724 76.4773 55.7724 76.6549V83.3506L55.799 83.3062ZM57.0067 76.8502C57.3018 76.8198 57.5982 76.8049 57.8948 76.8058C58.2944 76.8058 59.8573 76.8058 59.8573 78.1645C59.8573 78.5375 59.6619 79.4166 58.0812 79.5232C57.7353 79.5455 57.3882 79.5455 57.0423 79.5232V76.8591L57.0067 76.8502ZM57.0067 80.0915H57.8148C58.5712 80.0083 59.3308 80.218 59.9372 80.6776C60.0827 80.8055 60.1998 80.9625 60.2808 81.1384C60.3619 81.3143 60.4052 81.5052 60.4079 81.6989C60.4079 82.7468 59.3867 83.1552 58.0546 83.1552C57.6106 83.1552 57.2554 83.1553 57.0245 83.102V80.0915H57.0067Z" fill="#6EADB5"/>
<path id="Vector_43" fill-rule="evenodd" clip-rule="evenodd" d="M107.331 83.546C107.331 83.7325 107.331 83.7502 107.562 83.7502H108.255C108.45 83.7502 108.495 83.7502 108.504 83.5726V76.4684C108.504 76.2908 108.433 76.2908 108.255 76.2908H107.367C107.163 76.2908 107.145 76.2908 107.047 76.5039L104.383 81.9919L101.613 76.495C101.541 76.3085 101.506 76.2908 101.319 76.2908H100.431C100.245 76.2908 100.209 76.3352 100.209 76.495V83.5993C100.209 83.7413 100.209 83.7858 100.334 83.8035H100.947C101.097 83.8035 101.169 83.8035 101.169 83.617V77.8182L103.957 83.546C104.055 83.7413 104.081 83.7946 104.232 83.7946C104.383 83.7946 104.383 83.7946 104.499 83.546L107.243 77.8182V83.546H107.331Z" fill="#6EADB5"/>
<path id="Vector_44" fill-rule="evenodd" clip-rule="evenodd" d="M88.0345 53.415C88.0345 53.1664 87.7326 53.1398 87.5194 53.1398H86.3917C85.9032 53.1398 85.8766 53.273 85.7523 53.6548L82.5554 63.6718L79.0565 53.5749C78.9677 53.3351 78.9944 53.1398 78.6658 53.1398C77.9287 53.1398 78.0264 53.0865 77.8399 53.6548L74.6164 63.5652L71.2241 53.6548C71.0731 53.2197 70.9843 53.1398 70.4959 53.1398H68.8175C68.5778 53.1398 68.3646 53.2197 68.3646 53.4683C68.3767 53.6259 68.4189 53.7796 68.4889 53.9212L73.1156 66.6556C73.2399 66.9842 73.3287 67.0641 73.7283 67.0641H74.6164C75.0426 67.0641 75.1048 67.0641 75.2202 66.6556L78.1685 58.0062L81.1789 66.6556C81.3032 67.0374 81.392 67.0641 81.8183 67.0641H82.8839C83.1947 67.0641 83.248 66.8954 83.3457 66.6556L87.848 53.9212C87.9301 53.7637 87.9814 53.5919 87.999 53.415H88.0345Z" fill="#EE1F41"/>
<path id="Vector_45" fill-rule="evenodd" clip-rule="evenodd" d="M57.0245 58.4325L63.96 57.429C63.7824 55.6529 62.5125 54.0012 60.8697 54.0012C58.5341 54.0012 57.3175 56.0614 57.06 58.4414L57.0245 58.4325ZM65.9048 58.539L57.0245 59.7645C57.2554 63.5742 59.3067 64.9773 61.4646 64.9773C62.2808 64.9609 63.0785 64.7309 63.778 64.3102C64.4776 63.8895 65.0548 63.2928 65.4519 62.5796C65.8515 61.9224 65.9403 61.7892 66.2867 61.7892C66.4554 61.7892 66.8639 61.8692 66.8639 62.4464C66.6321 63.8 65.9218 65.0252 64.8623 65.8989C63.8028 66.7726 62.4646 67.2366 61.0917 67.2062C59.9889 67.2412 58.8987 66.9628 57.9478 66.4032C56.9968 65.8436 56.224 65.0259 55.7191 64.0448C55.0762 62.7443 54.7709 61.3029 54.8311 59.8533C54.7708 58.3329 55.1107 56.8233 55.8168 55.4753C56.3425 54.5317 57.1176 53.7509 58.0574 53.2184C58.9972 52.6859 60.0653 52.4221 61.145 52.456C62.5683 52.4224 63.9477 52.9504 64.9847 53.9259C66.0217 54.9014 66.633 56.246 66.6863 57.6688C66.6863 58.4325 66.1978 58.4858 65.8515 58.5568L65.9048 58.539Z" fill="#EE1F41"/>
<path id="Vector_46" fill-rule="evenodd" clip-rule="evenodd" d="M94.2241 58.3792C93.1851 57.9441 91.7998 57.3402 91.7998 55.8217C91.8052 55.5468 91.8663 55.2758 91.9793 55.0252C92.0924 54.7746 92.2552 54.5496 92.4577 54.3636C92.6602 54.1777 92.8984 54.0347 93.1577 53.9435C93.417 53.8522 93.6922 53.8144 93.9666 53.8325C94.4391 53.839 94.8998 53.9814 95.2935 54.2428C95.6872 54.5043 95.9973 54.8736 96.1866 55.3066C96.4442 55.7684 96.7106 56.1946 97.4565 56.1946C97.5961 56.202 97.7358 56.1805 97.8667 56.1312C97.9975 56.082 98.1168 56.0062 98.2169 55.9085C98.317 55.8109 98.3958 55.6936 98.4484 55.5641C98.5009 55.4345 98.526 55.2954 98.5222 55.1556C98.5222 54.2676 97.3144 52.4116 94.0198 52.4116C90.8762 52.4116 89.4376 54.2587 89.4376 56.1946C89.4376 58.6989 91.4268 59.5958 93.7889 60.6348C95.0588 61.2031 96.5596 61.8514 96.5596 63.512C96.5644 63.7981 96.5091 64.082 96.3972 64.3453C96.2853 64.6086 96.1193 64.8455 95.91 65.0406C95.7007 65.2356 95.4527 65.3846 95.1822 65.4777C94.9116 65.5708 94.6246 65.606 94.3395 65.5811C93.8407 65.6098 93.3439 65.4976 92.9057 65.2573C92.4676 65.0171 92.1059 64.6585 91.8619 64.2224C91.6843 63.9205 91.5689 63.734 91.4801 63.6008C91.364 63.394 91.197 63.2202 90.995 63.0959C90.793 62.9715 90.5626 62.9008 90.3256 62.8904C90.17 62.8855 90.0149 62.9124 89.87 62.9695C89.7251 63.0266 89.5934 63.1126 89.4828 63.2223C89.3723 63.332 89.2853 63.4631 89.2271 63.6076C89.1689 63.7521 89.1409 63.9069 89.1445 64.0626C89.1445 64.8529 90.2724 67.1352 94.1353 67.1352C95.3883 67.1952 96.6238 66.8221 97.6341 66.0784C98.0625 65.699 98.4053 65.2327 98.6395 64.7106C98.8738 64.1885 98.9942 63.6225 98.9928 63.0502C98.9928 60.4927 96.9681 59.5691 95.4407 58.8587L94.1974 58.317L94.2241 58.3792Z" fill="#EE1F41"/>
<path id="Vector_47" fill-rule="evenodd" clip-rule="evenodd" d="M120.421 53.415C120.421 53.1664 120.119 53.1398 119.906 53.1398H118.778C118.29 53.1398 118.263 53.273 118.139 53.6548L114.942 63.6718L111.47 53.5749C111.381 53.3351 111.408 53.1398 111.07 53.1398C110.342 53.1398 110.44 53.0865 110.253 53.6548L106.967 63.5652L103.611 53.6548C103.46 53.2197 103.371 53.1398 102.882 53.1398H101.257C101.009 53.1398 100.796 53.2197 100.796 53.4683C100.808 53.6259 100.85 53.7796 100.92 53.9212L105.546 66.6556C105.671 66.9842 105.76 67.0641 106.159 67.0641H107.047C107.474 67.0641 107.527 67.0641 107.651 66.6556L110.67 58.0062L113.681 66.6556C113.805 67.0374 113.894 67.0641 114.32 67.0641H115.386C115.697 67.0641 115.75 66.8954 115.848 66.6556L120.35 53.9212C120.432 53.7637 120.483 53.5919 120.501 53.415H120.421Z" fill="#EE1F41"/>
<path id="Vector_48" fill-rule="evenodd" clip-rule="evenodd" d="M141.219 58.4236L148.119 57.4201C147.95 55.644 146.671 54.0012 145.028 54.0012C142.693 54.0012 141.476 56.0614 141.219 58.4413V58.4236ZM150.055 58.5301L141.219 59.7556C141.45 63.5653 143.501 64.9684 145.659 64.9684C146.474 64.9549 147.272 64.726 147.971 64.305C148.669 63.8839 149.244 63.2856 149.637 62.5707C150.046 61.9224 150.135 61.7803 150.525 61.7803C150.694 61.7803 151.102 61.8602 151.102 62.4375C150.871 63.791 150.16 65.0163 149.101 65.89C148.041 66.7637 146.703 67.2276 145.33 67.1973C144.228 67.2342 143.138 66.9575 142.187 66.3995C141.236 65.8414 140.463 65.0249 139.958 64.0448C139.32 62.7425 139.015 61.3024 139.07 59.8533C139.01 58.33 139.349 56.8176 140.055 55.4664C140.581 54.5228 141.356 53.742 142.296 53.2095C143.236 52.6769 144.304 52.4132 145.384 52.4471C146.808 52.4111 148.188 52.9384 149.226 53.9144C150.263 54.8904 150.874 56.2363 150.925 57.6599C150.925 58.4236 150.436 58.4768 150.09 58.5479L150.055 58.5301Z" fill="#EE1F41"/>
<path id="Vector_49" fill-rule="evenodd" clip-rule="evenodd" d="M125.989 53.4773C125.989 53.0421 125.882 52.9622 125.412 52.9622H123.911C123.423 52.9622 123.423 53.1221 123.423 53.4773V66.6024C123.423 66.9842 123.423 67.0997 123.858 67.0997H125.412C125.847 67.0997 125.989 67.0997 125.989 66.6024V53.4773Z" fill="#EE1F41"/>
<path id="Vector_50" fill-rule="evenodd" clip-rule="evenodd" d="M138.466 54.1699C138.466 52.7846 136.512 52.5892 135.313 52.5892C134.114 52.5892 131.006 52.9444 130.083 53.7614C129.902 53.9466 129.767 54.1715 129.688 54.4182C129.609 54.6649 129.589 54.9265 129.63 55.1823V66.6024C129.63 67.073 129.807 67.0997 130.269 67.0997H131.921C132.285 67.0997 132.383 66.8776 132.383 66.6024V55.946C132.383 54.8271 132.72 54.0101 134.159 54.0101C136.024 54.0101 136.024 55.4487 137.249 55.4487C137.415 55.4502 137.579 55.4177 137.731 55.3531C137.884 55.2886 138.021 55.1934 138.135 55.0735C138.249 54.9536 138.337 54.8115 138.394 54.6561C138.451 54.5006 138.476 54.3352 138.466 54.1699Z" fill="#EE1F41"/>
<path id="Vector_51" fill-rule="evenodd" clip-rule="evenodd" d="M13.3422 53.3973C13.3422 49.4278 9.65692 48.0692 5.63414 48.0692C4.90595 48.0692 0.643404 48.229 0.217149 48.5753C0.140304 48.6376 0.0804635 48.7183 0.0431985 48.8099C0.00593342 48.9015 -0.00754389 49.001 0.00402148 49.0993V66.4159C0.00402148 66.8066 0.128346 66.8865 0.581242 66.8865H2.51715C2.9434 66.8865 3.04109 66.78 3.04109 66.4159V58.9298C3.61831 58.9831 4.16001 58.983 4.74611 58.983C8.91097 58.983 13.36 57.5888 13.36 53.3973H13.3422ZM10.2341 53.4773C10.2544 54.1834 10.0698 54.8804 9.70268 55.4839C9.33551 56.0874 8.80146 56.5718 8.16503 56.8784C6.98435 57.3309 5.72581 57.5451 4.46194 57.5089C3.97352 57.5089 3.4851 57.429 3.00557 57.4024V49.7298C3.60363 49.6005 4.21418 49.538 4.82603 49.5433C7.87197 49.5433 10.2164 50.4313 10.2164 53.4417L10.2341 53.4773Z" fill="#EE1F41"/>
<path id="Vector_52" fill-rule="evenodd" clip-rule="evenodd" d="M29.9218 66.6023C29.9218 66.4513 29.7708 66.2915 29.682 66.1583L23.528 58.166C24.1809 58.0104 24.8219 57.8087 25.4461 57.5621C27.4886 56.6741 28.8562 55.1378 28.8562 53.122C28.8562 49.8807 26.3341 48.4865 22.8619 48.1934C22.2758 48.1401 21.6986 48.1401 21.0859 48.1401C20.4731 48.1401 16.4237 48.2201 15.9975 48.7262C15.9015 48.9122 15.8614 49.1219 15.882 49.3301V66.5401C15.882 66.8065 16.0596 66.8865 16.3704 66.8865H18.2886C18.7681 66.8865 18.8036 66.7 18.8036 66.3359V59.2316C18.7805 59.1163 18.7849 58.9971 18.8166 58.8837C18.8483 58.7704 18.9063 58.6662 18.986 58.5796C19.0657 58.493 19.1647 58.4264 19.275 58.3854C19.3853 58.3444 19.5037 58.3301 19.6206 58.3436C19.9482 58.3665 20.2656 58.467 20.5467 58.6369C20.8277 58.8067 21.0643 59.0411 21.2368 59.3204L26.2986 66.3803C26.5118 66.6911 26.6006 66.7977 27.0268 66.7977H29.46C29.6731 66.7977 29.8863 66.7177 29.8863 66.5046L29.9218 66.6023ZM25.7747 53.3973C25.7747 56.2212 23.2172 57.2691 20.2689 57.2691H18.8392V49.7297C19.4785 49.6764 20.1179 49.6232 20.784 49.6232C23.7677 49.6232 25.8102 50.5112 25.8102 53.4417L25.7747 53.3973Z" fill="#EE1F41"/>
<path id="Vector_53" fill-rule="evenodd" clip-rule="evenodd" d="M52.7975 66.3803V48.6197C52.7975 48.3 52.7086 48.2023 52.3446 48.2023H50.9415C50.4797 48.2023 50.4531 48.3267 50.4531 48.6996V62.322L39.0063 48.6019C38.7932 48.3355 38.7932 48.2112 38.3314 48.2112H36.3511C35.9604 48.2112 35.9249 48.3888 35.9249 48.7085V66.3004C35.9249 66.6467 35.987 66.7977 36.4133 66.7977H37.8785C38.2693 66.7977 38.3048 66.6201 38.3048 66.3004V51.8433L50.4531 66.4336C50.755 66.7977 50.8793 66.7977 51.3944 66.7977H52.2824C52.6465 66.7977 52.7708 66.7 52.7708 66.3803H52.7975Z" fill="#EE1F41"/>
</g>
</g>
</g>
</svg>
