<svg width="156" height="11" viewBox="0 0 156 11" fill="none" xmlns="http://www.w3.org/2000/svg">
<g id="The_times_of_india 1">
<g id="Group">
<path id="Vector" d="M5.78269 9.38142C5.78269 10.3854 7.26666 9.90588 7.26666 10.2805C7.26666 10.4603 7.11681 10.4908 6.87705 10.4908C6.17278 10.4908 5.78269 10.4603 4.88361 10.4603C3.98453 10.4603 3.59493 10.4908 2.89017 10.4908C2.65041 10.4908 2.50057 10.4603 2.50057 10.2805C2.50057 9.90588 3.98405 10.3854 3.98405 9.38142L3.96955 0.658896C2.4561 0.658896 1.15195 1.99253 0.567063 3.20677C0.402232 3.55142 0.327309 3.74622 0.237401 3.74622C0.132508 3.74622 0.102539 3.68628 0.102539 3.62634C0.102539 3.44653 0.192447 3.08689 0.252386 2.80218L0.731895 0.344218C0.746879 0.253826 0.761864 0.0595093 0.896726 0.0595093C0.986634 0.0595093 1.0166 0.119448 1.09153 0.179387C1.18192 0.239325 1.31678 0.299264 1.63146 0.299264H8.12078C8.43546 0.299264 8.5708 0.239325 8.66023 0.179387C8.73515 0.119448 8.76512 0.0595093 8.85503 0.0595093C8.98989 0.0595093 9.00488 0.25431 9.01986 0.344218L9.49937 2.80218C9.55931 3.08689 9.6497 3.44653 9.6497 3.62634C9.6497 3.68628 9.61925 3.74622 9.51484 3.74622C9.42493 3.74622 9.35001 3.55142 9.18518 3.20677C8.60077 1.99253 7.29663 0.658896 5.78269 0.658896V9.38142Z" fill="black"/>
<path id="Vector_2" d="M13.5292 5.27507V9.38183C13.5292 10.3858 14.773 9.9063 14.773 10.2809C14.773 10.4607 14.6831 10.4912 14.4433 10.4912C13.9188 10.4912 13.5292 10.4607 12.6302 10.4607C11.7311 10.4607 11.341 10.4912 10.8165 10.4912C10.5768 10.4912 10.4869 10.4607 10.4869 10.2809C10.4869 9.9063 11.7311 10.3858 11.7311 9.38183V1.37809C11.7311 0.373635 10.4869 0.853628 10.4869 0.479011C10.4869 0.299195 10.5768 0.269226 10.8165 0.269226C11.341 0.269226 11.7311 0.299195 12.6302 0.299195C13.5292 0.299195 13.9188 0.269226 14.4433 0.269226C14.6831 0.269226 14.773 0.299195 14.773 0.479011C14.773 0.853628 13.5292 0.374119 13.5292 1.37809V4.91495H17.8603V1.37809C17.8603 0.373635 16.6161 0.853628 16.6161 0.479011C16.6161 0.299195 16.7065 0.269226 16.9462 0.269226C17.4707 0.269226 17.8603 0.299195 18.7594 0.299195C19.6585 0.299195 20.0485 0.269226 20.5725 0.269226C20.8123 0.269226 20.9027 0.299195 20.9027 0.479011C20.9027 0.853628 19.6585 0.374119 19.6585 1.37809V9.38135C19.6585 10.3853 20.9027 9.90581 20.9027 10.2804C20.9027 10.4602 20.8123 10.4907 20.5725 10.4907C20.0481 10.4907 19.6585 10.4602 18.7594 10.4602C17.8603 10.4602 17.4702 10.4907 16.9462 10.4907C16.7065 10.4907 16.6161 10.4602 16.6161 10.2804C16.6161 9.90581 17.8603 10.3853 17.8603 9.38135V5.27459L13.5292 5.27507Z" fill="black"/>
<path id="Vector_3" d="M23.1489 1.37809C23.1489 0.373635 21.9047 0.853628 21.9047 0.479011C21.9047 0.299195 21.9951 0.269226 22.2349 0.269226C22.7593 0.269226 23.1489 0.299195 24.048 0.299195C27.3601 0.299195 28.4694 0.269226 29.5483 0.269226L30.2676 3.07184C30.3126 3.26664 30.3575 3.38652 30.3575 3.46193C30.3575 3.56682 30.3275 3.61177 30.2376 3.61177C30.0578 3.61177 30.1028 3.23716 29.3685 2.18823C28.454 0.884564 27.1803 0.629341 25.3966 0.629341H24.9471V5.0358H25.2768C26.5659 5.0358 27.5399 4.52632 27.5399 3.01239C27.5399 2.78762 27.6148 2.72768 27.7197 2.72768C27.8396 2.72768 27.8995 2.78762 27.8995 3.01239V7.49377C27.8995 7.71854 27.8396 7.76349 27.7197 7.76349C27.6148 7.76349 27.5399 7.71854 27.5399 7.49377C27.5399 5.91989 26.5659 5.39543 25.2768 5.39543H24.9471V9.29241C24.9471 9.86182 25.3067 10.1315 26.2058 10.1315C28.9784 10.1315 30.1627 8.30294 30.5968 6.81897C30.6717 6.59372 30.7167 6.51928 30.8216 6.51928C30.9265 6.51928 30.9564 6.59372 30.9564 6.66913C30.9564 6.75952 30.9564 6.89438 30.9115 7.10368L30.2821 10.4912C29.0379 10.4912 27.7642 10.4607 24.0475 10.4607C23.1484 10.4607 22.7584 10.4912 22.2344 10.4912C21.9946 10.4912 21.9042 10.4607 21.9042 10.2809C21.9042 9.9063 23.1484 10.3858 23.1484 9.38183L23.1489 1.37809Z" fill="black"/>
<path id="Vector_4" d="M41.7154 9.38136C41.7154 10.3853 43.1994 9.90582 43.1994 10.2804C43.1994 10.4602 43.0495 10.4907 42.8098 10.4907C42.1055 10.4907 41.7154 10.4602 40.8163 10.4602C39.9172 10.4602 39.5276 10.4907 38.8229 10.4907C38.5831 10.4907 38.4333 10.4602 38.4333 10.2804C38.4333 9.90582 39.9168 10.3853 39.9168 9.38136L39.9023 0.658835C38.3888 0.658835 37.0847 1.99247 36.4998 3.20671C36.3349 3.55136 36.26 3.74616 36.1701 3.74616C36.0652 3.74616 36.0352 3.68622 36.0352 3.62628C36.0352 3.44646 36.1252 3.08683 36.1851 2.80212L36.6646 0.344157C36.6796 0.253765 36.6946 0.0594482 36.8294 0.0594482C36.9193 0.0594482 36.9493 0.119387 37.0242 0.179325C37.1141 0.239264 37.249 0.299203 37.5637 0.299203H44.053C44.3677 0.299203 44.503 0.239264 44.5925 0.179325C44.6674 0.119387 44.6973 0.0594482 44.7873 0.0594482C44.9221 0.0594482 44.9371 0.254249 44.9521 0.344157L45.4316 2.80212C45.4915 3.08683 45.5819 3.44646 45.5819 3.62628C45.5819 3.68622 45.5515 3.74616 45.4471 3.74616C45.3572 3.74616 45.2822 3.55136 45.1174 3.20671C44.533 1.99247 43.2289 0.658835 41.7149 0.658835L41.7154 9.38136Z" fill="black"/>
<path id="Vector_5" d="M47.8132 1.37809C47.8132 0.373635 46.5695 0.853628 46.5695 0.479011C46.5695 0.299195 46.6594 0.269226 46.8991 0.269226C47.4236 0.269226 47.8132 0.299195 48.7123 0.299195C49.6113 0.299195 50.0014 0.269226 50.5259 0.269226C50.7656 0.269226 50.8556 0.299195 50.8556 0.479011C50.8556 0.853628 49.6113 0.374119 49.6113 1.37809V9.38135C49.6113 10.3853 50.8556 9.90581 50.8556 10.2804C50.8556 10.4602 50.7656 10.4907 50.5259 10.4907C50.0014 10.4907 49.6113 10.4602 48.7123 10.4602C47.8132 10.4602 47.4236 10.4907 46.8991 10.4907C46.6594 10.4907 46.5695 10.4602 46.5695 10.2804C46.5695 9.90581 47.8132 10.3853 47.8132 9.38135V1.37809Z" fill="black"/>
<path id="Vector_6" d="M58.0486 7.95781L61.2708 0.299195H61.9606C62.8597 0.299195 63.2493 0.269226 63.7738 0.269226C64.0135 0.269226 64.1034 0.299195 64.1034 0.479011C64.1034 0.853628 62.8597 0.374119 62.8597 1.37809V9.38135C62.8597 10.3853 64.1034 9.90581 64.1034 10.2804C64.1034 10.4602 64.0135 10.4907 63.7738 10.4907C63.2493 10.4907 62.8597 10.4602 61.9606 10.4602C61.0615 10.4602 60.6714 10.4907 60.147 10.4907C59.9072 10.4907 59.8173 10.4602 59.8173 10.2804C59.8173 9.90581 61.0615 10.3853 61.0615 9.38135V1.58788H61.0311L57.5392 10.1456C57.4792 10.2804 57.4193 10.4602 57.3144 10.4602C57.2395 10.4602 57.1795 10.3099 57.1196 10.1456L53.7026 1.70775H53.6726V7.98729C53.6726 9.26147 54.1072 9.87584 54.6766 10.0557C55.0667 10.1755 55.2465 10.1156 55.2465 10.3254C55.2465 10.4602 55.1561 10.4907 54.9164 10.4907C54.4968 10.4907 54.0922 10.4602 53.4928 10.4602C52.5638 10.4602 52.1737 10.4907 51.904 10.4907C51.6942 10.4907 51.5593 10.4757 51.5593 10.3404C51.5593 10.1006 51.7242 10.1755 52.1138 10.0557C53.1777 9.75596 53.3125 8.58668 53.3125 6.77353V1.70775C53.3125 0.373635 51.7691 0.853144 51.7691 0.479011C51.7691 0.299195 51.859 0.269226 52.0988 0.269226C52.6232 0.269226 53.0133 0.299195 53.9124 0.299195H54.8714L58.0486 7.95781Z" fill="black"/>
<path id="Vector_7" d="M66.2892 1.37809C66.2892 0.373635 65.045 0.853628 65.045 0.479011C65.045 0.299195 65.1354 0.269226 65.3752 0.269226C65.8996 0.269226 66.2892 0.299195 67.1883 0.299195C70.5004 0.299195 71.6098 0.269226 72.6887 0.269226L73.4079 3.07184C73.4529 3.26664 73.4978 3.38652 73.4978 3.46193C73.4978 3.56682 73.4679 3.61177 73.378 3.61177C73.1981 3.61177 73.2431 3.23716 72.5088 2.18823C71.5943 0.884564 70.3206 0.629341 68.5369 0.629341H68.0874V5.0358H68.4171C69.7062 5.0358 70.6802 4.52632 70.6802 3.01239C70.6802 2.78762 70.7552 2.72768 70.86 2.72768C70.9799 2.72768 71.0399 2.78762 71.0399 3.01239V7.49377C71.0399 7.71854 70.9799 7.76349 70.86 7.76349C70.7552 7.76349 70.6802 7.71854 70.6802 7.49377C70.6802 5.91989 69.7062 5.39543 68.4171 5.39543H68.0874V9.29241C68.0874 9.86182 68.447 10.1315 69.3461 10.1315C72.1188 10.1315 73.303 8.30294 73.7371 6.81897C73.812 6.59372 73.857 6.51928 73.9619 6.51928C74.0668 6.51928 74.0967 6.59372 74.0967 6.66913C74.0967 6.75952 74.0967 6.89438 74.0518 7.10368L73.4224 10.4912C72.1782 10.4912 70.9045 10.4607 67.1878 10.4607C66.2888 10.4607 65.8987 10.4912 65.3747 10.4912C65.1349 10.4912 65.0446 10.4607 65.0446 10.2809C65.0446 9.9063 66.2888 10.3858 66.2888 9.38183V1.37809H66.2892Z" fill="black"/>
<path id="Vector_8" d="M75.4149 6.33899C75.4149 6.20412 75.4899 6.15917 75.5648 6.15917C75.6997 6.15917 75.7296 6.27905 75.7746 6.60871C76.0293 8.45231 76.8235 10.3409 78.802 10.3409C80.3014 10.3409 80.9752 9.44178 80.9752 8.42234C80.9752 5.39495 75.4149 6.62369 75.4149 2.93699C75.4149 1.3781 76.854 0.0594482 78.5622 0.0594482C79.8963 0.0594482 80.4058 0.658835 80.9902 0.658835C81.4248 0.658835 81.23 0.179325 81.5147 0.179325C81.62 0.179325 81.6495 0.239264 81.665 0.404095C81.8598 2.50243 81.9193 3.53637 81.9193 3.73117C81.9193 3.8815 81.8448 3.94144 81.7544 3.94144C81.6346 3.94144 81.6046 3.74664 81.5596 3.58181C81.0501 1.87308 80.2405 0.419563 78.5477 0.419563C77.4089 0.419563 76.7341 1.09387 76.7341 2.03839C76.7341 4.79605 82.2944 3.867 82.2944 7.50876C82.2944 9.09761 81.1555 10.701 78.7125 10.701C77.6182 10.701 76.6142 10.1316 76.2246 10.1316C75.6102 10.1316 75.835 10.641 75.5503 10.641C75.4904 10.641 75.4154 10.6111 75.4154 10.4612V6.33899H75.4149Z" fill="black"/>
<path id="Vector_9" d="M98.4928 5.37997C98.4928 8.73702 95.6452 10.7005 93.1123 10.7005C90.5794 10.7005 87.7318 8.73702 87.7318 5.37997C87.7318 2.02292 90.5794 0.0594482 93.1123 0.0594482C95.6452 0.0594482 98.4928 2.02292 98.4928 5.37997ZM93.1123 0.41908C91.1488 0.41908 89.7103 1.99247 89.7103 5.37997C89.7103 8.76698 91.1493 10.3409 93.1123 10.3409C95.0753 10.3409 96.5143 8.76698 96.5143 5.37997C96.5143 1.99247 95.0758 0.41908 93.1123 0.41908Z" fill="black"/>
<path id="Vector_10" d="M100.843 1.37809C100.843 0.373635 99.5992 0.853628 99.5992 0.479011C99.5992 0.299195 99.6896 0.269226 99.9293 0.269226C100.454 0.269226 100.843 0.299195 101.743 0.299195C105.055 0.299195 106.164 0.269226 107.123 0.269226L107.843 3.07184C107.888 3.26664 107.933 3.38652 107.933 3.46193C107.933 3.56682 107.903 3.61177 107.813 3.61177C107.633 3.61177 107.678 3.23716 106.944 2.18823C106.029 0.884564 104.755 0.629341 102.972 0.629341H102.642V5.0358H102.972C104.261 5.0358 105.235 4.52632 105.235 3.01239C105.235 2.78762 105.31 2.72768 105.415 2.72768C105.535 2.72768 105.594 2.78762 105.594 3.01239V7.49376C105.594 7.71853 105.535 7.76349 105.415 7.76349C105.31 7.76349 105.235 7.71853 105.235 7.49376C105.235 5.91989 104.261 5.39543 102.972 5.39543H102.642V9.38231C102.642 10.3863 103.886 9.90678 103.886 10.2814C103.886 10.4612 103.795 10.4917 103.556 10.4917C103.031 10.4917 102.641 10.4612 101.742 10.4612C100.843 10.4612 100.453 10.4917 99.9288 10.4917C99.6891 10.4917 99.5987 10.4612 99.5987 10.2814C99.5987 9.90678 100.842 10.3863 100.842 9.38231L100.843 1.37809Z" fill="black"/>
<path id="Vector_11" d="M114.405 1.37809C114.405 0.373635 113.161 0.853628 113.161 0.479011C113.161 0.299195 113.251 0.269226 113.49 0.269226C114.015 0.269226 114.405 0.299195 115.304 0.299195C116.203 0.299195 116.593 0.269226 117.118 0.269226C117.358 0.269226 117.447 0.299195 117.447 0.479011C117.447 0.853628 116.204 0.374119 116.204 1.37809V9.38135C116.204 10.3853 117.447 9.90581 117.447 10.2804C117.447 10.4602 117.358 10.4907 117.118 10.4907C116.593 10.4907 116.203 10.4602 115.304 10.4602C114.405 10.4602 114.015 10.4907 113.49 10.4907C113.251 10.4907 113.161 10.4602 113.161 10.2804C113.161 9.90581 114.405 10.3853 114.405 9.38135V1.37809Z" fill="black"/>
<path id="Vector_12" d="M126.573 2.77166C126.573 1.49796 126.019 0.883592 125.449 0.703776C125.059 0.583899 124.88 0.643838 124.88 0.433569C124.88 0.298707 124.97 0.268738 125.209 0.268738C125.749 0.268738 126.153 0.298707 126.783 0.298707C127.413 0.298707 127.817 0.268738 128.357 0.268738C128.597 0.268738 128.687 0.298707 128.687 0.433569C128.687 0.643838 128.507 0.583899 128.117 0.703776C127.548 0.883592 126.993 1.49796 126.993 2.77166V10.4907C126.993 10.5956 126.933 10.7005 126.813 10.7005C126.708 10.7005 126.589 10.6555 126.514 10.5501L120.158 2.09735H120.128V7.98729C120.128 9.26147 120.683 9.87584 121.252 10.0557C121.642 10.1755 121.821 10.1156 121.821 10.3254C121.821 10.4602 121.732 10.4907 121.492 10.4907C120.952 10.4907 120.548 10.4602 119.918 10.4602C119.289 10.4602 118.884 10.4907 118.344 10.4907C118.104 10.4907 118.014 10.4602 118.014 10.3254C118.014 10.1156 118.194 10.1755 118.584 10.0557C119.154 9.87584 119.708 9.26098 119.708 7.98729V1.57289C118.839 0.32916 118.029 0.763715 118.029 0.479006C118.029 0.314175 118.134 0.269221 118.359 0.269221C118.719 0.269221 119.018 0.29919 119.498 0.29919H120.892L126.542 7.88288H126.572V2.77166H126.573Z" fill="black"/>
<path id="Vector_13" d="M130.393 1.37809C130.393 0.373635 129.149 0.853628 129.149 0.479011C129.149 0.299195 129.239 0.269226 129.479 0.269226C130.004 0.269226 130.394 0.299195 131.292 0.299195C131.907 0.299195 132.596 0.269226 133.421 0.269226C136.973 0.269226 139.146 2.35258 139.146 5.42492C139.146 8.22753 137.422 10.4907 134.05 10.4907C133.046 10.4907 132.177 10.4602 131.292 10.4602C130.394 10.4602 130.004 10.4907 129.479 10.4907C129.239 10.4907 129.149 10.4602 129.149 10.2804C129.149 9.90581 130.393 10.3853 130.393 9.38135V1.37809ZM132.192 8.78196C132.192 9.74098 132.746 10.1311 133.825 10.1311C135.534 10.1311 137.167 9.35138 137.167 5.52932C137.167 2.66677 136.029 0.628374 133.735 0.628374H132.192V8.78196Z" fill="black"/>
<path id="Vector_14" d="M141.602 1.37809C141.602 0.373635 140.357 0.853628 140.357 0.479011C140.357 0.299195 140.448 0.269226 140.688 0.269226C141.212 0.269226 141.602 0.299195 142.501 0.299195C143.4 0.299195 143.79 0.269226 144.314 0.269226C144.554 0.269226 144.645 0.299195 144.645 0.479011C144.645 0.853628 143.401 0.374119 143.401 1.37809V9.38135C143.401 10.3853 144.645 9.90581 144.645 10.2804C144.645 10.4602 144.554 10.4907 144.314 10.4907C143.79 10.4907 143.4 10.4602 142.501 10.4602C141.602 10.4602 141.212 10.4907 140.688 10.4907C140.448 10.4907 140.357 10.4602 140.357 10.2804C140.357 9.90581 141.602 10.3853 141.602 9.38135V1.37809Z" fill="black"/>
<path id="Vector_15" d="M148.03 6.80352C147.625 7.95782 147.43 8.39189 147.43 8.82693C147.43 10.3259 148.674 9.96576 148.674 10.3259C148.674 10.4912 148.599 10.4912 148.434 10.4912C148.119 10.4912 147.759 10.4607 146.741 10.4607C146.246 10.4607 145.766 10.4912 145.227 10.4912C145.077 10.4912 145.032 10.4308 145.032 10.3109C145.032 10.0412 145.617 10.191 146.036 9.83139C146.426 9.50172 146.92 8.70754 147.325 7.6881C149.124 3.19173 149.379 2.6373 149.379 2.51742C149.379 2.41253 149.019 2.12782 149.019 1.94801C149.019 1.72324 149.273 1.7532 149.693 0.86911C150.008 0.209785 149.933 0 150.128 0C150.323 0 150.308 0.494494 151.207 2.47295L154.399 9.53218C154.804 10.4163 155.508 9.98172 155.508 10.3109C155.508 10.4762 155.403 10.4912 155.254 10.4912C154.654 10.4912 154.055 10.4607 153.455 10.4607C152.855 10.4607 152.271 10.4912 151.656 10.4912C151.506 10.4912 151.417 10.4458 151.417 10.3109C151.417 9.93676 152.466 10.3713 152.466 9.56166C152.466 9.4268 152.315 8.97726 152.211 8.75201L151.356 6.804L148.03 6.80352ZM149.588 2.75718L148.18 6.44389H151.207L149.588 2.75718Z" fill="black"/>
</g>
</g>
</svg>
