<svg width="256" height="95" viewBox="0 0 256 95" fill="none" xmlns="http://www.w3.org/2000/svg">
<g id="did_You_Know 1">
<g id="Layer 2">
<g id="Layer 1">
<path id="Vector" d="M110.824 31.7805C110.824 38.8223 105.896 43.9668 98.1301 43.9668H88.5043V19.6305H98.1301C105.891 19.6305 110.824 24.6348 110.824 31.7805ZM97.6113 37.9943C101.502 37.9943 103.961 35.7855 103.961 31.7805C103.961 27.7755 101.51 25.4991 97.6113 25.4991H95.2768V37.9943H97.6113Z" fill="#282563"/>
<path id="Vector_2" d="M113.862 19.6305H120.622V43.9668H113.862V19.6305Z" fill="#282563"/>
<path id="Vector_3" d="M146.806 31.7805C146.806 38.8223 141.878 43.9668 134.112 43.9668H124.486V19.6305H134.112C141.873 19.6305 146.806 24.6348 146.806 31.7805ZM133.593 37.9943C137.484 37.9943 139.941 35.7855 139.941 31.7805C139.941 27.7755 137.492 25.4991 133.593 25.4991H131.259V37.9943H133.593Z" fill="#282563"/>
<path id="Vector_4" d="M154.637 19.6305H162.364L166.642 29.0188L170.919 19.6305H178.545L169.985 36.2423V43.9746H163.189V36.2345L154.637 19.6305Z" fill="#282563"/>
<path id="Vector_5" d="M192.274 44.2081C185.374 44.2081 179.787 39.0299 179.787 31.7103C179.787 24.3907 185.374 19.2515 192.274 19.2515C199.174 19.2515 204.725 24.3959 204.725 31.7103C204.725 39.0247 199.174 44.2081 192.274 44.2081ZM192.274 37.9242C195.758 37.9242 197.861 35.4739 197.861 31.7103C197.861 27.8792 195.758 25.4627 192.274 25.4627C188.791 25.4627 186.687 27.8792 186.687 31.7103C186.687 35.4739 188.754 37.9242 192.274 37.9242Z" fill="#282563"/>
<path id="Vector_6" d="M207.661 19.6305H214.387V33.7427C214.387 36.2631 215.525 37.8516 218.078 37.8516C220.63 37.8516 221.839 36.2631 221.839 33.7427V19.6305H228.601V33.7427C228.601 40.6808 223.771 44.203 217.94 44.203C212.109 44.203 207.661 40.6808 207.661 33.7427V19.6305Z" fill="#282563"/>
<path id="Vector_7" d="M100.044 67.5607V78.2286H93.2822V53.8923H100.044V64.3863L107.598 53.8923H115.395L106.462 65.6971L115.844 78.2286H107.67L100.044 67.5607Z" fill="#282563"/>
<path id="Vector_8" d="M140.856 53.8923V78.2286H134.094L125.091 64.6303V78.2312H118.328V53.8923H125.091L134.094 67.6646V53.8923H140.856Z" fill="#282563"/>
<path id="Vector_9" d="M156.38 78.4701C149.481 78.4701 143.891 73.2919 143.891 65.9723C143.891 58.6527 149.481 53.5134 156.38 53.5134C163.28 53.5134 168.831 58.6579 168.831 65.9723C168.831 73.2867 163.28 78.4701 156.38 78.4701ZM156.38 72.1861C159.864 72.1861 161.967 69.7359 161.967 65.9723C161.967 62.1412 159.864 59.7247 156.38 59.7247C152.897 59.7247 150.791 62.1412 150.791 65.9723C150.791 69.7359 152.86 72.1861 156.38 72.1861Z" fill="#282563"/>
<path id="Vector_10" d="M170.87 53.8923H178.182L181.012 70.5301L184.84 53.8923H192.256L195.983 70.3925L198.811 53.8923H206.125L200.159 78.2286H191.859L188.513 63.3143L185.097 78.2286H176.768L170.87 53.8923Z" fill="#282563"/>
<path id="Vector_11" d="M216.371 52.0962C221.201 52.0962 224.672 54.6165 224.672 59.5533C224.672 63.8335 221.533 66.3538 217.082 66.4213L216.911 68.9416H210.945L210.737 62.0737H213.24C216.171 62.0737 218.138 61.5208 218.07 59.517C218.036 58.31 217.31 57.6196 216.208 57.6196C214.862 57.6196 214.242 58.5177 214.242 59.7246H207.85C207.713 55.5821 210.54 52.0962 216.371 52.0962ZM213.99 78.5038C211.575 78.5038 210.024 76.9854 210.024 75.0179C210.024 73.0504 211.58 71.4957 213.99 71.4957C216.4 71.4957 217.925 73.053 217.925 75.0179C217.925 76.9828 216.371 78.5038 213.99 78.5038Z" fill="#282563"/>
<path id="Vector_12" d="M23.8887 66.6886L22.3324 64.8717L21.5542 57.8636L20.2573 52.1533L17.404 46.7026L14.5508 40.9922V35.0224L16.6259 27.4951L19.9979 23.0826L24.4074 19.7084L31.4109 18.151H37.1173L41.5269 19.7084L45.6771 23.0826L48.0116 26.1973L50.346 30.0907L51.643 34.5033L51.1242 39.4349L49.5679 44.3665L47.4928 48.779L45.9365 52.1533L44.3802 56.3063L43.8614 58.9019L43.0832 63.3144L42.5645 66.1695L40.7488 66.9482L23.8887 66.6886Z" fill="#FFC108"/>
<path id="Vector_13" d="M255.186 6.53311V88.0997C254.594 89.3638 254.19 90.7706 253.37 91.8659C251.938 93.7685 249.886 94.7211 247.459 94.7211C243.874 94.7211 240.289 94.7211 236.704 94.7211C178.061 94.7211 119.416 94.7211 60.7708 94.7211C53.8218 94.7211 46.8703 94.7574 39.9239 94.8898C34.4976 94.9962 30.6639 90.9211 31.4783 84.6294C31.5821 83.8196 32.0282 83.2771 32.949 83.3316C33.9217 83.3991 34.2097 84.0194 34.3108 84.889C34.4898 86.4463 34.5235 88.0712 35.0319 89.5221C35.5507 91.0146 36.9721 91.7413 38.5699 91.9204C39.1731 91.9822 39.7793 92.01 40.3856 92.0035C77.3032 92.0242 114.222 92.0364 151.143 92.0398C151.426 92.0398 151.701 92.0398 151.968 92.0606H159.547C188.637 92.0606 217.727 92.0675 246.818 92.0814C248.88 92.0814 250.641 91.5778 251.64 89.7453C252.169 88.7246 252.45 87.5934 252.46 86.4437C252.527 78.4181 252.496 70.3926 252.496 62.367C252.496 47.7832 252.496 33.1977 252.496 18.6104C252.496 15.2024 252.377 11.7918 252.48 8.38637C252.576 5.21715 250.543 2.58002 246.701 2.5956C189.437 2.66308 132.174 2.67865 74.9099 2.64232C73.0605 2.64232 72.4016 2.30229 72.5106 1.27703C72.6714 -0.25956 73.9035 0.0207648 74.8891 0.0207648C132.11 0.00692159 189.33 0 246.551 0C249.809 0 252.439 1.05641 254.088 3.97905C254.54 4.78109 254.825 5.67916 255.186 6.53311Z" fill="#282563"/>
<path id="Vector_14" d="M32.8478 71.7111C35.3483 71.7111 37.8488 71.7292 40.3493 71.7111C41.2934 71.7111 42.0223 71.9706 42.0664 73.0089C42.1105 74.0471 41.2753 74.4209 40.4193 74.4261C35.3336 74.4624 30.2462 74.4624 25.157 74.4261C24.2777 74.4261 23.4762 74.0782 23.5125 73.014C23.5489 71.9499 24.2674 71.6981 25.2167 71.7162C27.7613 71.7292 30.3033 71.7111 32.8478 71.7111Z" fill="#282563"/>
<path id="Vector_15" d="M32.6533 77.4344C33.818 77.4344 34.9878 77.4344 36.1447 77.4344C37.0681 77.4214 37.701 77.8601 37.7243 78.7634C37.758 79.7341 37.1174 80.2428 36.1499 80.248C33.8638 80.2601 31.5795 80.2601 29.2969 80.248C28.3579 80.248 27.655 79.7964 27.6394 78.8308C27.6238 77.8653 28.3553 77.4448 29.2917 77.4396C30.4122 77.4292 31.5328 77.4344 32.6533 77.4344Z" fill="#282563"/>
<path id="Vector_16" d="M11.374 12.8791C10.8675 12.3722 10.0464 12.3722 9.53987 12.8791C9.03339 13.3859 9.03339 14.2076 9.53987 14.7144L13.575 18.7522C14.0815 19.2591 14.9026 19.2591 15.4091 18.7522C15.9156 18.2454 15.9156 17.4237 15.4091 16.9169L11.374 12.8791Z" fill="#282563"/>
<path id="Vector_17" d="M50.264 16.9159C49.7575 17.4227 49.7575 18.2444 50.264 18.7513C50.7704 19.2581 51.5916 19.2581 52.0981 18.7513L56.1332 14.7135C56.6397 14.2066 56.6397 13.3849 56.1332 12.8781C55.6267 12.3713 54.8055 12.3713 54.2991 12.8781L50.264 16.9159Z" fill="#282563"/>
<path id="Vector_18" d="M31.4108 10.6237C31.4108 11.3405 31.9914 11.9215 32.7077 11.9215C33.424 11.9215 34.0046 11.3405 34.0046 10.6237V4.9134C34.0046 4.19665 33.424 3.6156 32.7077 3.6156C31.9914 3.6156 31.4108 4.19665 31.4108 4.9134V10.6237Z" fill="#282563"/>
<path id="Vector_19" d="M64.0936 37.6179C64.8098 37.6179 65.3905 37.0369 65.3905 36.3201C65.3905 35.6034 64.8098 35.0223 64.0936 35.0223H58.3871C57.6708 35.0223 57.0902 35.6034 57.0902 36.3201C57.0902 37.0369 57.6708 37.6179 58.3871 37.6179H64.0936Z" fill="#282563"/>
<path id="Vector_20" d="M7.02851 37.8776C7.74479 37.8776 8.32544 37.2965 8.32544 36.5798C8.32544 35.863 7.74479 35.282 7.02851 35.282H1.32202C0.605748 35.282 0.0250931 35.863 0.0250931 36.5798C0.0250931 37.2965 0.605748 37.8776 1.32202 37.8776H7.02851Z" fill="#282563"/>
<path id="Vector_21" d="M32.6222 68.1162C32.181 68.1175 31.744 68.0297 31.3375 67.8581C30.931 67.6864 30.5634 67.4344 30.2565 67.1172C29.9496 66.7999 29.7099 66.424 29.5517 66.0118C29.3935 65.5997 29.3201 65.1598 29.3358 64.7186C29.494 60.4332 29.5044 52.2363 27.9117 44.2912C25.6395 44.2471 24.0469 43.7358 23.1624 42.765C22.9146 42.5062 22.7236 42.1984 22.6017 41.8614C22.4797 41.5243 22.4295 41.1655 22.4543 40.8079C22.4757 40.0573 22.7893 39.3448 23.3284 38.8223C23.6941 38.4979 24.3504 38.1423 25.4035 38.272C27.6705 38.5576 28.8248 41.6463 29.1231 42.5781C29.1384 42.6224 29.1514 42.6675 29.162 42.7131L29.66 42.682C32.4717 42.4743 34.7051 42.3887 36.3755 42.3653C37.9578 38.3577 39.5504 38.1552 40.1859 38.2694C40.5672 38.2824 41.8745 38.3992 42.5826 39.3077C42.7939 39.5918 42.9349 39.9221 42.994 40.2713C43.0531 40.6205 43.0285 40.9788 42.9224 41.3167C42.8608 41.5631 42.7801 41.8043 42.6812 42.0383C42.4149 42.6336 41.9755 43.1349 41.4202 43.4766C40.865 43.8183 40.2197 43.9846 39.5685 43.9538C39.1535 43.9382 38.4558 43.9123 37.4701 43.9175C37.3845 44.177 37.2989 44.4366 37.2107 44.7273C35.8489 49.2099 35.8386 60.2567 35.8982 64.799C35.9041 65.2335 35.8236 65.6647 35.6614 66.0677C35.4992 66.4707 35.2586 66.8375 34.9535 67.1466C34.6485 67.4557 34.285 67.7011 33.8844 67.8685C33.4837 68.0358 33.0538 68.1218 32.6196 68.1214L32.6222 68.1162ZM29.5096 44.2549C31.0814 52.2727 31.0659 60.467 30.9128 64.7757C30.9103 65.002 30.9523 65.2266 31.0365 65.4367C31.1207 65.6468 31.2454 65.8382 31.4035 66.0001C31.5617 66.1619 31.7501 66.291 31.9581 66.38C32.1661 66.4689 32.3895 66.5161 32.6157 66.5186C32.8419 66.5212 33.0663 66.4791 33.2763 66.3949C33.4862 66.3106 33.6775 66.1858 33.8393 66.0276C34.001 65.8694 34.13 65.6808 34.2189 65.4727C34.3078 65.2645 34.3549 65.0409 34.3575 64.8146C34.2823 59.0835 34.3575 48.792 35.7374 44.2705C35.7711 44.1563 35.8074 44.0421 35.8412 43.933C34.2849 43.9668 32.2616 44.0524 29.7949 44.2341L29.5096 44.2549ZM24.008 40.9896C24.0116 41.1331 24.0439 41.2743 24.1032 41.405C24.1625 41.5356 24.2474 41.653 24.353 41.7501C24.698 42.1057 25.5384 42.6223 27.5356 42.7209C27.1154 41.5736 26.262 39.9488 25.2193 39.819C25.0738 39.7855 24.9229 39.783 24.7763 39.8116C24.6297 39.8403 24.4908 39.8994 24.3685 39.9851C24.1483 40.2278 24.0238 40.5424 24.0184 40.8702V40.9896H24.008ZM38.0693 42.3575C38.7774 42.3575 39.2988 42.3783 39.6386 42.3938C39.9756 42.4119 40.3103 42.3282 40.5994 42.1538C40.8884 41.9793 41.1185 41.7221 41.2597 41.4153C41.3257 41.2588 41.3795 41.0974 41.4206 40.9325C41.5347 40.4809 41.405 40.3174 41.3635 40.2629C41.1041 39.9332 40.3882 39.8242 40.1003 39.8242H39.9654C39.8279 39.8502 39.0446 40.1383 38.0693 42.3575Z" fill="#282563"/>
<path id="Vector_22" d="M50.7247 27.4796C46.4033 18.8207 37.1926 14.7326 27.8832 17.0193C21.2948 18.6416 16.6258 22.8413 14.0916 29.2005C11.6404 35.3365 12.2163 41.27 15.5883 46.8791C17.7645 50.4844 19.6088 54.1467 20.0549 58.4113C20.2728 60.5008 20.7138 62.5643 21.0925 64.6407C21.5516 67.2234 23.1935 68.599 25.8185 68.612C28.153 68.625 30.4874 68.612 32.8219 68.612C35.325 68.612 37.828 68.6405 40.3311 68.612C42.2039 68.5834 44.0637 67.174 44.4139 65.4454C44.7977 63.5506 45.0934 61.6324 45.3217 59.7117C45.8275 55.4757 47.0466 51.4889 49.3759 47.8965C53.6117 41.3297 54.2368 34.5214 50.7247 27.4796ZM46.476 46.4612C44.0118 50.2274 42.6837 54.4141 42.1598 58.8759C41.9445 60.7136 41.6618 62.5435 41.3272 64.363C41.2623 64.7108 40.8369 65.0197 40.5257 65.2818C40.3856 65.4012 40.1158 65.3805 39.9031 65.3987L38.9408 65.4791H28.8818C28.7792 65.4895 28.6758 65.4895 28.5732 65.4791H28.4435C23.5307 65.4791 24.6253 65.557 23.8575 61.6973C23.2376 58.5826 22.82 55.403 21.9043 52.3791C21.1646 50.1003 20.1034 47.9388 18.7528 45.9602C13.0204 37.3195 16.3665 26.3142 24.7913 21.6343C32.7493 17.2218 43.6331 20.4845 47.6951 28.6424C50.7792 34.8355 50.2215 40.7223 46.476 46.4612Z" fill="#282563"/>
<path id="Vector_23" d="M28.8816 65.4686C28.779 65.479 28.6757 65.479 28.5731 65.4686H28.8816Z" fill="#282563"/>
</g>
</g>
</g>
</svg>
